<svg xmlns="http://www.w3.org/2000/svg" viewBox="0 0 351.21 106.43"><defs><style>.cls-1{fill:#bcbec0;}.cls-2{fill:#3d3d3d;}.cls-3{fill:#24aa91;}.cls-4{fill:#fff;}.cls-5{fill:#595a5c;}.cls-6{fill:#282828;}.cls-7{fill:#e3e3e3;}.cls-8{fill:#a2d2c7;}.cls-9{fill:#197766;}</style></defs><title>Asset 1</title><g id="Layer_2" data-name="Layer 2"><g id="Layer_1-2" data-name="Layer 1"><path class="cls-1" d="M93.21,51a60.85,60.85,0,0,1-5-9.15c-.33-.78-.64-1.58-.91-2.37a21.36,21.36,0,0,1-.87-3.27c-1-5.94-3.81-21.72,5.51-29.49C98.67,1.1,106.51,0,117.78,0c2,0,4.06,0,6.22.06l3.33.05c8.72.1,15.76.22,20.72.31,3.61.06,6.11.11,7.36.11,2.38,0,8,0,11.81,4.39,3,3.39,2.46,12.59,1.9,17.78-.1.86-.19,1.65-.29,2.33s-.18,1.19-.26,1.61c-.88,4.81-3.9,16.81-4,17.31l-.18.72-29,2.53h-.18a2.53,2.53,0,0,1-1.63-.58,5.63,5.63,0,0,1-.85-1,5.27,5.27,0,0,0-.77-.93H131a46.07,46.07,0,0,0-7.16.47,5.37,5.37,0,0,0-1.72,1.52A1.21,1.21,0,0,0,122,47,2,2,0,0,1,120,48.63c-.9,0-15.9,1.68-25.77,2.79l-.62.07Z"/><path class="cls-2" d="M34,35.11c0,5.06,0,16.77-17,16.77S0,40.17,0,35.11V17.9H7.92V35.11c0,2.48.15,5.2,1.27,6.66S12.93,44,17,44c8.7,0,9.09-2.92,9.09-8.9V17.9H34Z"/><path class="cls-2" d="M70.23,31.08c0,6.85-6.22,13.17-17.11,13.17H45.3V52H37.38V18H52.15C64,18,70.23,24.22,70.23,31.08Zm-7.87,0c0-3.16-3.6-5.2-10.21-5.2H45.3V36.33h7.82C58.76,36.33,62.36,34.24,62.36,31.08Z"/><path class="cls-2" d="M34.22,86.28l3.5,7.09a31.23,31.23,0,0,1-13.81,3.07C10.5,96.44,0,89,0,79.47s10.5-17,23.91-17a31.36,31.36,0,0,1,13.81,3.06l-3.5,7.1a23.42,23.42,0,0,0-10.31-2.24c-7.58,0-16,3.7-16,9.09s8.41,9.09,16,9.09A23.43,23.43,0,0,0,34.22,86.28Z"/><path class="cls-2" d="M66.39,96.44H41.6v-34h7.93v26.1H66.39Z"/><path class="cls-2" d="M111.55,79.47c0,9.38-9.24,17-20.61,17s-20.66-7.59-20.66-17,9.24-17,20.66-17S111.55,70.09,111.55,79.47Zm-7.88,0c0-5-5.83-9.09-12.73-9.09S78.2,74.51,78.2,79.47,84,88.56,90.94,88.56,103.67,84.38,103.67,79.47Z"/><path class="cls-2" d="M151.5,86.28c0,6-7.1,10.55-16.53,10.55-12.39,0-19.25-4.62-19.54-4.82l4.47-6.51s5.3,3.4,15.07,3.4c5.16,0,8.61-1.26,8.61-2.72s-6.81-2.53-9.63-3c-6.9-1.12-15.5-2.53-15.5-10.16,0-6,7.09-10.55,16.52-10.55s14.1,2.62,14.63,3l-4.08,6.76,0,0s-3.45-1.9-10.6-1.9c-5.05,0-8.6,1.41-8.6,2.68s6.08,1.89,8.85,2.33C142.07,76.51,151.5,78.06,151.5,86.28Z"/><path class="cls-2" d="M163.31,75.53h14.14v7.88H163.31v5.15h20.8v7.88H155.39v-34h28.82v7.92h-20.9Z"/><path class="cls-3" d="M256.43,106.43c-13.49,0-27.71-16.51-35.91-16.51h-10.9v16.51H192.7V33.77h31.55c25.33,0,38.62,13.59,38.62,28S252,83.9,247.51,85.56c2.07,3.64,13,6.13,16.71,2.49C274,91.79,269.93,106.43,256.43,106.43ZM246.05,61.79c0-7.47-7.68-11.1-21.8-11.1H209.62V73h14.63C238.37,73,246.05,69.27,246.05,61.79Z"/><path class="cls-3" d="M316,106.32H295.88L261.32,33.87H280l26.06,54.5,26.47-54.5h18.68Z"/><path class="cls-4" d="M119.75,29.53l48.41-7c.59-5.46.92-14-1.65-17-3.35-3.83-8.07-4-11-4s-13-.25-28.08-.42-26-.93-34.69,6.34S86.46,29.74,87.55,36a21.59,21.59,0,0,0,.83,3.12L125.68,33Z"/><path class="cls-5" d="M176.66,37.35H164.85a1.49,1.49,0,0,1-1.49-1.49h0a1.49,1.49,0,0,1,1.49-1.49h11.81a1.49,1.49,0,0,1,1.48,1.49h0A1.49,1.49,0,0,1,176.66,37.35Z"/><rect class="cls-5" x="174.86" y="32.92" width="1.38" height="10.89"/><circle class="cls-6" cx="127.47" cy="47.22" r="7.53"/><circle class="cls-7" cx="127.47" cy="47.22" r="4.7"/><path class="cls-1" d="M119.75,29.53l5.93,3.5-37.3,6.09c.26.76.56,1.53.89,2.29l43.18-7-5.8-3.57,41.22-5.94c.09-.67.19-1.44.29-2.3Z"/><path class="cls-8" d="M126.65,30.82l5.8,3.57-43.18,7a60,60,0,0,0,4.88,9s24.79-2.79,25.89-2.79.93-.85,1.27-1.43a6.25,6.25,0,0,1,2.2-1.95c.84-.43,8.12-.68,8.79-.51s1.44,1.69,1.95,2.11a1.49,1.49,0,0,0,1.1.34l6.28-.54V28.66Z"/><path class="cls-8" d="M153.13,27v17.6l10.47-.91s3.14-12.42,4-17.25c.07-.4.16-.94.25-1.57Z"/><rect class="cls-5" x="98.32" y="15.21" width="13.2" height="12.39"/><path class="cls-4" d="M111.38,28.47H98a.87.87,0,0,1-.88-.88V15.27a.88.88,0,0,1,.88-.89h13.41a.89.89,0,0,1,.88.89V27.59A.88.88,0,0,1,111.38,28.47ZM98.85,26.71h11.64V16.15H98.85Z"/><rect class="cls-3" x="141.17" y="14.52" width="13.2" height="31.83"/><path class="cls-4" d="M154.18,47.64H141.35a.8.8,0,0,1-.84-.74V14a.8.8,0,0,1,.84-.74h12.83A.8.8,0,0,1,155,14V46.9A.8.8,0,0,1,154.18,47.64Zm-12-2h11.13V14.72H142.2Z"/><path class="cls-9" d="M151.21,34H144a.41.41,0,0,1-.41-.41.41.41,0,0,1,.41-.41h7.22a.41.41,0,0,1,.41.41A.41.41,0,0,1,151.21,34Z"/><path class="cls-9" d="M151.21,35.64H144a.41.41,0,0,1,0-.82h7.22a.41.41,0,0,1,0,.82Z"/><path class="cls-9" d="M151.21,37.28H144a.41.41,0,0,1-.41-.41.41.41,0,0,1,.41-.41h7.22a.41.41,0,0,1,.41.41A.41.41,0,0,1,151.21,37.28Z"/><path class="cls-9" d="M151.21,38.93H144a.42.42,0,0,1,0-.83h7.22a.42.42,0,0,1,0,.83Z"/><path class="cls-9" d="M151.21,40.57H144a.41.41,0,0,1-.41-.41.41.41,0,0,1,.41-.41h7.22a.41.41,0,0,1,.41.41A.41.41,0,0,1,151.21,40.57Z"/><path class="cls-7" d="M146.15,29.84h-2a.83.83,0,0,1,0-1.65h2a.83.83,0,0,1,0,1.65Z"/></g></g></svg>