<?xml version="1.0" standalone="no"?>
<!DOCTYPE svg PUBLIC "-//W3C//DTD SVG 20010904//EN"
 "http://www.w3.org/TR/2001/REC-SVG-20010904/DTD/svg10.dtd">
<svg version="1.0" xmlns="http://www.w3.org/2000/svg"
 width="105.000000pt" height="105.000000pt" viewBox="0 0 105.000000 105.000000"
 preserveAspectRatio="xMidYMid meet">
<metadata>
Created by potrace 1.11, written by Peter Selinger 2001-2013
</metadata>
<g transform="translate(0.000000,105.000000) scale(0.100000,-0.100000)"
fill="#000000" stroke="none">
<path d="M212 805 c-125 -34 -187 -114 -186 -240 1 -123 7 -157 44 -229 l35
-71 50 1 c28 1 77 4 110 8 139 17 131 17 145 -9 19 -36 71 -50 109 -31 16 9
33 26 37 38 4 13 11 26 16 29 5 3 52 4 104 1 82 -4 97 -2 107 12 7 10 17 17
22 16 6 -2 24 -2 42 -1 29 1 33 5 43 41 6 22 15 40 20 41 6 0 27 1 48 2 35 0
37 -1 37 -31 0 -16 3 -34 8 -38 4 -4 7 8 7 27 0 19 5 40 12 47 16 16 -14 48
-34 36 -7 -5 -28 -9 -46 -9 -25 -1 -31 2 -27 14 22 75 26 257 6 295 -30 55
-60 60 -371 62 -224 2 -296 0 -338 -11z"/>
</g>
</svg>
