<?xml version="1.0" encoding="UTF-8"?>
<svg width="30px" height="30px" viewBox="0 0 30 30" version="1.1" xmlns="http://www.w3.org/2000/svg" xmlns:xlink="http://www.w3.org/1999/xlink">
    <!-- Generator: Sketch 49.1 (51147) - http://www.bohemiancoding.com/sketch -->
    <title>Shape</title>
    <desc>Created with Sketch.</desc>
    <defs></defs>
    <g id="Symbols" stroke="none" stroke-width="1" fill="none" fill-rule="evenodd">
        <g id="Admin-Management" transform="translate(-33.000000, -104.000000)" fill="#50CEBE" fill-rule="nonzero">
            <path d="M37.2209302,129.421512 C39.9505814,132.238372 43.7703488,134 48,134 C56.2674419,134 63,127.267442 63,119 C63,110.732558 56.2674419,104 48,104 C39.7325581,104 33,110.732558 33,119 C33,122.94186 34.5348837,126.534884 37.0290698,129.212209 C37.0813953,129.299419 37.1511628,129.360465 37.2209302,129.421512 Z M48.092074,132.333333 C44.8230652,132.333333 41.8162763,131.143264 39.5,129.1744 C43.3983367,127.879324 44.8405465,126.304233 45.3737271,125.254172 C46.1166836,125.577941 46.9470468,125.752951 47.8648167,125.761701 C47.882298,125.761701 47.90852,125.761701 47.9260014,125.761701 C47.934742,125.761701 47.987186,125.761701 48.0046673,125.761701 C48.0221487,125.761701 48.0483707,125.761701 48.065852,125.761701 C49.0622878,125.7442 49.9625764,125.542939 50.7404956,125.166667 C51.2387135,126.216728 52.6547013,127.844322 56.6666667,129.1744 C54.359131,131.143264 51.3610828,132.333333 48.092074,132.333333 Z M43.2094253,116.264565 C43.2094253,116.247201 43.2094253,116.229838 43.2094253,116.212474 C43.4178157,111.689285 46.752061,111.333333 47.7766469,111.333333 C47.8200615,111.333333 47.8547932,111.333333 47.880842,111.333333 C47.9068908,111.333333 47.9242567,111.333333 47.9503055,111.333333 C47.9763543,111.333333 48.0024031,111.333333 48.0545006,111.333333 C49.0704035,111.333333 52.4133318,111.689285 52.6217222,116.212474 C52.6217222,116.229838 52.6217222,116.247201 52.6217222,116.264565 C52.6304051,116.307973 53.0558687,120.492575 51.1022093,122.689056 C50.3294285,123.557231 49.2961597,123.991318 47.9503055,124 C47.9416225,124 47.9242567,124 47.9242567,124 C47.9155738,124 47.9068908,124 47.8982079,124 C46.5436707,123.982637 45.5190849,123.557231 44.7463041,122.689056 C42.7839617,120.509938 43.2007424,116.307973 43.2094253,116.264565 Z M47.9166667,105.666667 C55.2207074,105.666667 61.1666667,111.615202 61.1666667,118.922407 C61.1666667,122.266825 59.913053,125.332542 57.8672251,127.666667 C52.2433749,126.029295 52.0257337,124.043547 52.0257337,124.017419 C52.0257337,124.052257 52.0257337,124.060966 52.0257337,124.060966 L51.9647941,124.060966 C52.0692619,123.956453 52.1737297,123.85194 52.2781975,123.738717 C54.6722514,121.047506 54.2717915,116.440222 54.2282633,115.987332 C53.9932107,111.179731 50.6937692,109.472684 47.934078,109.472684 C47.8818441,109.472684 47.8296102,109.472684 47.7947876,109.472684 C47.759965,109.472684 47.7164367,109.472684 47.6554972,109.472684 C44.895806,109.472684 41.5876588,111.179731 41.3613119,115.987332 C41.3177836,116.431512 40.9260293,121.038797 43.3113776,123.738717 C43.450668,123.895487 43.598664,124.043547 43.7466601,124.182898 C43.5638414,124.688044 42.6410425,126.290578 37.9661082,127.657957 C35.9115747,125.323832 34.6666667,122.266825 34.6666667,118.922407 C34.6666667,111.615202 40.6126259,105.666667 47.9166667,105.666667 Z" id="Shape"></path>
        </g>
    </g>
</svg>