<?xml version="1.0" encoding="UTF-8"?>
<svg width="35px" height="38px" viewBox="0 0 35 38" version="1.1" xmlns="http://www.w3.org/2000/svg" xmlns:xlink="http://www.w3.org/1999/xlink">
    <!-- Generator: Sketch 49.1 (51147) - http://www.bohemiancoding.com/sketch -->
    <title>Group 4</title>
    <desc>Created with Sketch.</desc>
    <defs></defs>
    <g id="Symbols" stroke="none" stroke-width="1" fill="none" fill-rule="evenodd">
        <g id="Admin-Management" transform="translate(-30.000000, -208.000000)" fill="#50CEBE" fill-rule="nonzero">
            <g id="Group-4" transform="translate(30.000000, 208.000000)">
                <path d="M9.75005115,31.5339258 C8.64768542,31.5339258 7.75075448,32.4307673 7.75075448,33.533133 C7.75075448,34.6354987 8.64768542,35.5324297 9.75005115,35.5324297 C10.8524169,35.5324297 11.7493478,34.6354987 11.7493478,33.533133 C11.7493478,32.4307673 10.8525064,31.5339258 9.75005115,31.5339258 Z M9.75005115,34.1897187 C9.38796675,34.1897187 9.09346547,33.8951279 9.09346547,33.533133 C9.09346547,33.1711381 9.38796675,32.8766368 9.75005115,32.8766368 C10.1121355,32.8766368 10.4066368,33.1711381 10.4066368,33.533133 C10.4066368,33.8951279 10.1121355,34.1897187 9.75005115,34.1897187 Z" id="Shape"></path>
                <path d="M26.9619949,32.8617775 L24.6162788,32.8617775 L24.6162788,20.7840921 C24.6162788,18.2021483 22.5157417,16.1016113 19.933798,16.1016113 L13.8101407,16.1016113 C6.2134399,16.1016113 0.0330306905,22.2820205 0.0330306905,29.8787212 L0.0330306905,33.5335806 C0.0330306905,33.9043478 0.333529412,34.2049361 0.704386189,34.2049361 L5.33029412,34.2049361 C5.65531969,36.352289 7.51336317,38.0034655 9.75005115,38.0034655 C11.9867391,38.0034655 13.8446931,36.352289 14.1698082,34.2049361 L24.9831969,34.2044885 L24.9831969,37.33211 C24.9831969,37.7028772 25.2836957,38.0034655 25.6545524,38.0034655 C26.0254092,38.0034655 26.3259079,37.7028772 26.3259079,37.33211 L26.3259079,34.2044885 L26.9619949,34.2044885 C27.3328517,34.2044885 27.6333504,33.9039003 27.6333504,33.533133 C27.6333504,33.1623657 27.3328517,32.8617775 26.9619949,32.8617775 Z M9.75005115,36.6607545 C8.02547315,36.6607545 6.62251918,35.257711 6.62251918,33.533133 C6.62251918,31.808555 8.02556266,30.405601 9.75005115,30.405601 C11.4745396,30.405601 12.8775831,31.8086445 12.8775831,33.533133 C12.8776726,35.257711 11.4746292,36.6607545 9.75005115,36.6607545 Z M23.2735678,32.8623146 L14.1698977,32.8623146 C13.8452302,30.7145141 11.9870077,29.06289 9.75005115,29.06289 C7.51309463,29.06289 5.65487212,30.7145141 5.3302046,32.8623146 L1.37574169,32.8623146 L1.37574169,29.8788107 C1.37574169,23.0224808 6.95372123,17.4444118 13.8101407,17.4444118 L19.933798,17.4444118 C21.7752813,17.4444118 23.2735678,18.9426087 23.2735678,20.7841816 L23.2735678,32.8623146 Z" id="Shape"></path>
                <path d="M34.8168542,28.3784655 L30.2767903,21.4598338 L32.845844,21.4598338 C33.0925448,21.4598338 33.3193734,21.3244885 33.4366368,21.1074169 C33.5539003,20.8903453 33.542532,20.6264578 33.4071867,20.4201279 L29.5607673,14.5584783 L31.1664706,14.5584783 C31.4131714,14.5584783 31.64,14.423133 31.7572634,14.2060614 C31.8745269,13.9889898 31.8631586,13.7251023 31.7278133,13.5187724 L28.2531458,8.22365729 L30.0507673,8.22365729 C30.297468,8.22365729 30.5242967,8.08831202 30.6415601,7.87124041 C30.7588235,7.6541688 30.7474552,7.39019182 30.61211,7.18395141 L26.0969309,0.303005115 C25.9727749,0.113861893 25.7617903,0 25.5355882,0 C25.3093862,0 25.0984015,0.113861893 24.9742455,0.303005115 L20.4590665,7.18395141 C20.3237212,7.39019182 20.3123529,7.65407928 20.4296164,7.87124041 C20.5468798,8.08840153 20.7737084,8.22365729 21.0204092,8.22365729 L22.8181202,8.22365729 L19.3434527,13.5187724 C19.2081074,13.7250128 19.1967391,13.9889003 19.3140026,14.2060614 C19.431266,14.4232225 19.6580946,14.5584783 19.9047954,14.5584783 L21.5104987,14.5584783 L21.3208184,14.8476087 C21.1174425,15.1575959 21.203734,15.5738363 21.5138107,15.7772123 C21.8237084,15.9805882 22.2398593,15.8942072 22.4434143,15.5842199 L23.3153708,14.2553836 C23.4507161,14.0491432 23.4620844,13.7852558 23.344821,13.5680946 C23.2275575,13.3509335 23.0007289,13.2156777 22.7540281,13.2156777 L21.1483248,13.2156777 L24.6229923,7.92056266 C24.7583376,7.71432225 24.7697059,7.45043478 24.6524425,7.23327366 C24.535179,7.01611253 24.3083504,6.88085678 24.0616496,6.88085678 L22.2639386,6.88085678 L25.5356777,1.89492327 L28.8074169,6.88085678 L27.0097954,6.88085678 C26.7630946,6.88085678 26.536266,7.01620205 26.4190026,7.23327366 C26.3017391,7.45034527 26.3131074,7.71432225 26.4484527,7.92056266 L29.9230307,13.2156777 L28.3173274,13.2156777 C28.0706266,13.2156777 27.843798,13.351023 27.7265345,13.5680946 C27.6092711,13.7851662 27.6206394,14.0491432 27.7559847,14.2553836 L31.6024041,20.1170332 L29.0333504,20.1170332 C28.7866496,20.1170332 28.559821,20.2523785 28.4425575,20.4694501 C28.3252941,20.6865217 28.3366624,20.9504987 28.4720077,21.1567391 L33.0120716,28.0753708 L26.1916368,28.0753708 C25.8207801,28.0753708 25.5202813,28.3759591 25.5202813,28.7467263 C25.5202813,29.1174936 25.8207801,29.4180818 26.1916368,29.4180818 L34.255601,29.4180818 C34.5023018,29.4180818 34.7291304,29.2827366 34.8463939,29.065665 C34.9636573,28.8485934 34.9521995,28.5847954 34.8168542,28.3784655 Z" id="Shape"></path>
                <path d="M0.898273657,22.2175703 C1.01186701,22.2921355 1.13951407,22.3276726 1.26590793,22.3276726 C1.48450128,22.3276726 1.69888747,22.2209719 1.82778772,22.024578 L6.35639386,15.1232225 C6.49173913,14.9169821 6.50310742,14.6530946 6.38584399,14.4359335 C6.26858056,14.2187724 6.04175192,14.0835166 5.79505115,14.0835166 L4.18952685,14.0835166 L7.66410486,8.78840153 C7.79945013,8.58216113 7.81081841,8.31827366 7.69355499,8.10111253 C7.57629156,7.88395141 7.34946292,7.74869565 7.10276215,7.74869565 L5.30523018,7.74869565 L8.57696931,2.76276215 L11.8487084,7.74869565 L10.0509974,7.74869565 C9.80429668,7.74869565 9.57746803,7.88404092 9.4602046,8.10111253 C9.34294118,8.31818414 9.35430946,8.58216113 9.48965473,8.78840153 L12.9643223,14.0835166 L11.3586189,14.0835166 C10.9877621,14.0835166 10.6872634,14.3841049 10.6872634,14.7548721 C10.6872634,15.1256394 10.9877621,15.4262276 11.3586189,15.4262276 L14.2078517,15.4262276 C14.4545524,15.4262276 14.6813811,15.2908824 14.7986445,15.0738107 C14.9159079,14.8567391 14.9045396,14.5927621 14.7691944,14.3865217 L11.2945269,9.09140665 L13.0922379,9.09140665 C13.3389386,9.09140665 13.5657673,8.95606138 13.6830307,8.73898977 C13.8002941,8.52191816 13.7889258,8.25794118 13.6535806,8.05170077 L9.13840153,1.17075448 C9.01424552,0.981611253 8.80335038,0.867749361 8.57705882,0.867749361 C8.35076726,0.867749361 8.13987212,0.981611253 8.01571611,1.17075448 L3.50053708,8.05170077 C3.36519182,8.25794118 3.35382353,8.52182864 3.47108696,8.73898977 C3.58835038,8.9561509 3.81517903,9.09140665 4.0618798,9.09140665 L5.85950128,9.09140665 L2.38492327,14.3865217 C2.24957801,14.5928517 2.23820972,14.8566496 2.35547315,15.0738107 C2.47273657,15.2909719 2.69956522,15.4262276 2.94626598,15.4262276 L4.5518798,15.4262276 L0.705460358,21.2878772 C0.501905371,21.597954 0.588286445,22.0141049 0.898273657,22.2175703 Z" id="Shape"></path>
                <path d="M13.5707801,20.2804859 L9.1401023,20.2804859 C6.62296675,20.2804859 4.57506394,22.3282992 4.57506394,24.8455243 C4.57506394,25.2162916 4.87556266,25.5168798 5.24641944,25.5168798 L13.5707801,25.5168798 C13.9416368,25.5168798 14.2421355,25.2162916 14.2421355,24.8455243 L14.2421355,20.9518414 C14.2421355,20.5810742 13.9415473,20.2804859 13.5707801,20.2804859 Z M12.8994246,24.1741688 L5.98813299,24.1741688 C6.29776215,22.718491 7.59347826,21.6231969 9.1401023,21.6231969 L12.8994246,21.6231969 L12.8994246,24.1741688 Z" id="Shape"></path>
                <path d="M21.3581458,20.2804859 L16.5634143,20.2804859 C16.1925575,20.2804859 15.8920588,20.5810742 15.8920588,20.9518414 L15.8920588,30.6665345 C15.8920588,31.0373018 16.1925575,31.33789 16.5634143,31.33789 L21.3581458,31.33789 C21.7290026,31.33789 22.0295013,31.0373018 22.0295013,30.6665345 L22.0295013,20.9518414 C22.0295013,20.5810742 21.728913,20.2804859 21.3581458,20.2804859 Z M20.6867903,29.995179 L17.2347698,29.995179 L17.2347698,21.6231969 L20.6867903,21.6231969 L20.6867903,29.995179 Z" id="Shape"></path>
            </g>
        </g>
    </g>
</svg>