<?xml version="1.0" encoding="UTF-8"?>
<svg width="30px" height="24px" viewBox="0 0 30 24" version="1.1" xmlns="http://www.w3.org/2000/svg" xmlns:xlink="http://www.w3.org/1999/xlink">
    <!-- Generator: Sketch 49.1 (51147) - http://www.bohemiancoding.com/sketch -->
    <title>Group</title>
    <desc>Created with Sketch.</desc>
    <defs></defs>
    <g id="Symbols" stroke="none" stroke-width="1" fill="none" fill-rule="evenodd">
        <g id="Admin-Management" transform="translate(-33.000000, -314.000000)" fill="#50CEBE" fill-rule="nonzero">
            <g id="Group" transform="translate(33.000000, 314.000000)">
                <path d="M18.3082617,16.2148828 L11.6917383,16.2148828 C11.1930469,16.2148828 10.7874023,16.6205273 10.7874023,17.1192187 L10.7874023,19.1485547 C10.7874023,19.6472461 11.1930469,20.0529492 11.6917383,20.0529492 L18.3083203,20.0529492 C18.8070117,20.0529492 19.2127148,19.6473047 19.2127148,19.1485547 L19.2127148,17.1192187 C19.2125977,16.6205859 18.8069531,16.2148828 18.3082617,16.2148828 Z M18.0498633,18.8902148 L11.9500781,18.8902148 L11.9500781,17.3776758 L18.0498633,17.3776758 L18.0498633,18.8902148 Z" id="Shape"></path>
                <path d="M29.705625,11.1889453 L29.7149414,11.1842578 L25.3552734,2.56488281 C25.002832,1.86820313 24.2991211,1.43548828 23.5185938,1.43548828 L22.6900195,1.43548828 L22.6900195,0.63421875 C22.6900195,0.313125 22.4297461,0.0528515625 22.1086523,0.0528515625 L7.89140625,0.0528515625 C7.5703125,0.0528515625 7.31003906,0.313125 7.31003906,0.63421875 L7.31003906,1.43548828 L6.48146484,1.43548828 C5.7009375,1.43548828 4.99722656,1.86820313 4.64478516,2.56488281 L0.285058594,11.1842578 L0.294375,11.1889453 C0.107636719,11.4965039 0,11.857207 0,12.2425195 L0,21.3485156 C0,22.4712891 0.913476562,23.384707 2.03625,23.384707 L27.9638086,23.384707 C29.086582,23.384707 30,22.4712305 30,21.3485156 L30,12.2425195 C30,11.857207 29.8923633,11.4965039 29.705625,11.1889453 Z M22.6899609,2.72742188 L23.5185352,2.72742188 C23.8091016,2.72742188 24.0710742,2.88861328 24.2023828,3.14806641 L27.7725,10.2063867 L25.3449023,10.2063867 L25.3449023,8.03455078 C25.3449023,7.71345703 25.0846289,7.45318359 24.7635352,7.45318359 L24.0442969,7.45318359 L24.0442969,4.33441406 C24.0442969,4.01332031 23.7840234,3.75304688 23.4629297,3.75304688 L22.6899609,3.75304688 L22.6899609,2.72742188 Z M24.1822266,8.61585937 L24.1822266,10.2063281 L21.1143164,10.2063281 C20.5879102,10.2063281 20.1080273,10.5164648 19.8917578,10.9962891 L19.0541016,12.8542969 C19.0461328,12.8718164 19.0286133,12.8831836 19.0093359,12.8831836 L10.9907227,12.8831836 C10.9714453,12.8831836 10.9539258,12.8718164 10.945957,12.8542383 L10.1083594,10.9963477 C9.89203125,10.5164648 9.41214844,10.2063281 8.88574219,10.2063281 L5.81783203,10.2063281 L5.81783203,8.61585937 L24.1822266,8.61585937 Z M8.47277344,1.21558594 L21.5272266,1.21558594 L21.5272266,3.75298828 L8.47277344,3.75298828 L8.47277344,1.21558594 Z M22.8815625,4.91572266 L22.8815625,7.453125 L7.1184375,7.453125 L7.1184375,4.91572266 L22.8815625,4.91572266 Z M5.79761719,3.14806641 C5.92886719,2.88855469 6.19089844,2.72742188 6.48146484,2.72742188 L7.31003906,2.72742188 L7.31003906,3.75298828 L6.53707031,3.75298828 C6.21597656,3.75298828 5.95570313,4.01326172 5.95570313,4.33435547 L5.95570313,7.453125 L5.23646484,7.453125 C4.91537109,7.453125 4.65509766,7.71339844 4.65509766,8.03449219 L4.65509766,10.2063281 L2.2275,10.2063281 L5.79761719,3.14806641 Z M27.9638086,22.0927148 L2.03625,22.0927148 C1.62585938,22.0927148 1.29193359,21.7587891 1.29193359,21.3485156 L1.29193359,12.2425195 C1.29193359,11.8321875 1.62580078,11.4983203 2.03625,11.4983203 L8.88574219,11.4983203 C8.90496094,11.4983203 8.92259766,11.5096875 8.93056641,11.5273242 L9.76816406,13.3852148 C9.98449219,13.8650977 10.4643164,14.1751172 10.9907227,14.1751172 L19.0092773,14.1751172 C19.5356836,14.1751172 20.0155664,13.8650391 20.2318359,13.3852734 L21.0694922,11.5273242 L21.0694922,11.5272656 C21.0774609,11.5096875 21.0949805,11.4983203 21.1142578,11.4983203 L27.96375,11.4983203 C28.3741406,11.4983203 28.7079492,11.8322461 28.7079492,12.2425195 L28.7079492,21.3485156 L28.7080078,21.3485156 C28.7080664,21.7589063 28.3741992,22.0927148 27.9638086,22.0927148 Z" id="Shape"></path>
            </g>
        </g>
    </g>
</svg>