<?xml version="1.0" encoding="UTF-8"?>
<svg width="283px" height="72px" viewBox="0 0 283 72" version="1.1" xmlns="http://www.w3.org/2000/svg" xmlns:xlink="http://www.w3.org/1999/xlink">
    <!-- Generator: Sketch 49.1 (51147) - http://www.bohemiancoding.com/sketch -->
    <title>Group 2</title>
    <desc>Created with Sketch.</desc>
    <defs></defs>
    <g id="Symbols" stroke="none" stroke-width="1" fill="none" fill-rule="evenodd">
        <g id="Group-2">
            <g id="Group" transform="translate(71.000000, 55.774648)" fill="#2D415A" fill-rule="nonzero">
                <path d="M19.177789,6.19658086 L2.22560791,6.19658086 C1.04668056,6.19658086 0.0908969017,5.27935891 0.0908969017,4.14760563 C0.0908969017,3.0160272 1.0464984,2.0986304 2.22560791,2.0986304 L19.177789,2.0986304 C20.3567163,2.0986304 21.3125,3.01585236 21.3125,4.14760563 C21.3123178,5.27935891 20.3565342,6.19658086 19.177789,6.19658086 Z" id="Shape"></path>
                <rect id="Rectangle-path" x="16.5973371" y="0.0919669743" width="1.98734509" height="15.0074017"></rect>
            </g>
            <rect id="Rectangle-path" fill="#E3E3E3" fill-rule="nonzero" x="28" y="1.01408451" width="2" height="9.12676056"></rect>
            <g id="Group" transform="translate(19.000000, 0.000000)" fill="#A3A3A3" fill-rule="nonzero">
                <rect id="Rectangle-path" x="0.148764706" y="5.94929577" width="17.8177059" height="4.17840376"></rect>
                <rect id="Rectangle-path" x="2.83288235" y="0.0933333333" width="12.4494706" height="2.64676056"></rect>
            </g>
            <ellipse id="Oval" fill="#4A4A4A" fill-rule="nonzero" cx="55.5" cy="62.8732394" rx="8.5" ry="9.12676056"></ellipse>
            <ellipse id="Oval" fill="#E3E3E3" fill-rule="nonzero" cx="55.5" cy="62.3661972" rx="5.5" ry="5.57746479"></ellipse>
            <ellipse id="Oval" fill="#4A4A4A" fill-rule="nonzero" cx="19.5" cy="62.8732394" rx="8.5" ry="9.12676056"></ellipse>
            <ellipse id="Oval" fill="#E3E3E3" fill-rule="nonzero" cx="20.5" cy="62.3661972" rx="5.5" ry="5.57746479"></ellipse>
            <path d="M2,57.8028169 C3.20199932,59.6301259 5.25216896,60.8450704 7.5988342,60.8450704 L70.830842,60.8450704 C70.830842,60.8450704 75.5887863,60.6237883 80,57.8028169 L2,57.8028169 Z" id="Shape" fill="#A3A3A3" fill-rule="nonzero"></path>
            <g id="Group" transform="translate(0.000000, 8.112676)" fill="#E3E3E3" fill-rule="nonzero">
                <path d="M0.9214,50.2967742 L77.6084,50.2967742 C78.5330211,49.5707406 79.4420737,48.7011358 80.2870632,47.6619718 L0,47.6619718 C0.184136842,48.6126306 0.4964,49.5034984 0.9214,50.2967742 Z" id="Shape"></path>
                <path d="M67.2423368,0.127578373 L9.69465263,0.127578373 C5.49511579,0.127578373 2.01566316,4.18464334 1.74097895,9.40245343 L1.37037895,16.435075 L82.9481895,16.435075 C78.3891474,-0.236074512 67.2423368,0.127578373 67.2423368,0.127578373 Z" id="Shape"></path>
                <path d="M1.21648421,19.35393 L0.506957895,32.8189005 L84.8557684,32.8189005 C84.8477158,27.5164016 84.3939053,23.0758746 83.6378526,19.35393 L1.21648421,19.35393 Z" id="Shape"></path>
            </g>
            <path d="M0.0138821018,53.3109597 C-0.0310145372,54.1628808 0.0346311461,54.9890136 0.187029299,55.7746479 L80.4398609,55.7746479 C83.0184663,52.6041431 85,47.8463883 85,40.7057606 C85,40.6576346 84.9989268,40.6113247 84.9989268,40.5633803 L0.685542976,40.5633803 L0.0138821018,53.3109597 Z" id="Shape" fill="#A1D5C0" fill-rule="nonzero"></path>
            <path d="M83.3053164,24.3380282 L1.1549748,24.3380282 L1,27.3802817 L84,27.3802817 C83.7904236,26.3111463 83.5586822,25.296178 83.3053164,24.3380282 Z" id="Shape" fill="#E5CC47" fill-rule="nonzero"></path>
            <path d="M32,42.687541 C32,43.1925098 31.5859764,43.6056338 31.079908,43.6056338 L4.85835334,43.6056338 C4.35228499,43.6056338 3.96704757,43.1933963 4.00223069,42.689846 L5.15065756,26.2679005 C5.18584069,25.7641729 5.62865049,25.3521127 6.13471884,25.3521127 L31.079908,25.3521127 C31.5859764,25.3521127 32,25.7652367 32,26.2702054 L32,42.687541 Z" id="Shape" fill="#2D415A" fill-rule="nonzero"></path>
            <path d="M51,42.68755 C51,43.1925138 50.5763685,43.6056338 50.0585562,43.6056338 L35.9414438,43.6056338 C35.4236315,43.6056338 35,43.1925138 35,42.68755 L35,26.2701965 C35,25.7652327 35.4236315,25.3521127 35.9414438,25.3521127 L50.0585562,25.3521127 C50.5763685,25.3521127 51,25.7652327 51,26.2701965 L51,42.68755 Z" id="SVGCleanerId_0" fill="#2D415A" fill-rule="nonzero"></path>
            <path d="M47,39.6272606 C47,40.1441332 46.5970876,40.5633803 46.0999652,40.5633803 L38.9000348,40.5633803 C38.4030863,40.5633803 38,40.1443139 38,39.6272606 L38,29.3304859 C38,28.8136133 38.4029124,28.3943662 38.9000348,28.3943662 L46.0999652,28.3943662 C46.5969137,28.3943662 47,28.8134325 47,29.3304859 L47,39.6272606 Z" id="Shape" fill="#6FEBE7" fill-rule="nonzero"></path>
            <path d="M51,42.68755 C51,43.1925138 50.5763685,43.6056338 50.0585562,43.6056338 L35.9414438,43.6056338 C35.4236315,43.6056338 35,43.1925138 35,42.68755 L35,26.2701965 C35,25.7652327 35.4236315,25.3521127 35.9414438,25.3521127 L50.0585562,25.3521127 C50.5763685,25.3521127 51,25.7652327 51,26.2701965 L51,42.68755 Z" id="SVGCleanerId_0_1_" fill="#2D415A" fill-rule="nonzero"></path>
            <rect id="Rectangle-path" fill="#E5CC47" fill-rule="nonzero" x="53" y="21.2957746" width="16" height="40.5633803"></rect>
            <path d="M65,37.53784 C65,38.0864135 64.5764749,38.5352113 64.0587926,38.5352113 L56.9412074,38.5352113 C56.4235251,38.5352113 56,38.0864135 56,37.53784 L56,26.3494839 C56,25.8009105 56.4235251,25.3521127 56.9412074,25.3521127 L64.0587926,25.3521127 C64.5764749,25.3521127 65,25.8009105 65,26.3494839 L65,37.53784 Z" id="Shape" fill="#2D415A" fill-rule="nonzero"></path>
            <path d="M29.0180347,27.3802817 L8.33796801,27.3802817 C7.82744646,27.3802817 7.38074009,27.763654 7.34524737,28.2978181 L7,33.4647887 L30,33.4647887 L30,28.268675 C30,27.7333828 29.528377,27.3802817 29.0180347,27.3802817 Z" id="Shape" fill="#6FEBE7" fill-rule="nonzero"></path>
            <path d="M7.00222814,40.3365781 C6.96708528,40.837624 7.35188182,41.2266797 7.857371,41.2266797 L29.2879468,41.2266797 C29.7934359,41.2266797 30.2602325,40.857553 30.2602325,40.3552725 L30.2602325,33.4647887 L7.48695108,33.4647887 L7.00222814,40.3365781 Z" id="Shape" fill="#54B3AF" fill-rule="nonzero"></path>
            <path d="M36.9619481,40.5808402 C36.9619481,41.0850606 37.3201212,41.4940453 37.8275628,41.4940453 L47.0175974,41.4940453 C47.525039,41.4940453 47.9898831,41.085237 47.9898831,40.5808402 L47.9898831,33.5037648 L36.9619481,33.5037648 L36.9619481,40.5808402 Z" id="Shape" fill="#54B3AF" fill-rule="nonzero"></path>
            <path d="M47.0301772,27.3802817 L37.863422,27.3802817 C37.3572659,27.3802817 37,27.8161115 37,28.3538479 L37,33.4647887 L48,33.4647887 L48,28.3538479 C48,27.8161115 47.5363333,27.3802817 47.0301772,27.3802817 Z" id="Shape" fill="#6FEBE7" fill-rule="nonzero"></path>
            <path d="M59,33.4647887 L59,34.4788732 C59,35.0387936 59.3464526,35.4929577 59.8372892,35.4929577 L62.0595305,35.4929577 C62.550367,35.4929577 63,35.0389894 63,34.4788732 L63,33.4647887 L59,33.4647887 Z" id="Shape" fill="#54B3AF" fill-rule="nonzero"></path>
            <path d="M62.9998283,28.3538479 C62.9998283,27.8162995 62.5502146,27.3802817 62.0593991,27.3802817 L59.8372532,27.3802817 C59.3464378,27.3802817 59,27.8161115 59,28.3538479 L59,33.4647887 L63,33.4647887 L63,28.3538479 L62.9998283,28.3538479 Z" id="Shape" fill="#6FEBE7" fill-rule="nonzero"></path>
            <path d="M12.374926,22.3098592 L8.62507401,22.3098592 C7.72748101,22.3098592 7,21.6024663 7,20.7296589 L7,19.8337214 C7,18.960914 7.72748101,18.2535211 8.62507401,18.2535211 L12.374926,18.2535211 C13.272519,18.2535211 14,18.960914 14,19.8337214 L14,20.7296589 C14,21.6022911 13.272519,22.3098592 12.374926,22.3098592 Z" id="Shape" fill="#FFFFFF" fill-rule="nonzero"></path>
            <path d="M75.9122871,20.2816901 L73.0877129,20.2816901 C72.4869441,20.2816901 72,19.6004849 72,18.7605634 C72,17.9204102 72.4871098,17.2394366 73.0877129,17.2394366 L75.9122871,17.2394366 C76.5130558,17.2394366 77,17.9206419 77,18.7605634 C77.0001656,19.6004849 76.5130558,20.2816901 75.9122871,20.2816901 Z" id="Shape" fill="#E5CC47" fill-rule="nonzero"></path>
            <path d="M65.2397614,20.2816901 L19.2377399,20.2816901 C17.7158239,20.2816901 16.477679,19.0306834 16.477679,17.4929577 C16.477679,16.5958164 15.7553686,15.8661822 14.8676287,15.8661822 L11.7624936,15.8661822 C10.7102126,15.8661822 9.76419033,15.2755088 9.29384454,14.3246863 C8.82332106,13.3736842 8.92336061,12.2546364 9.55451597,11.4041745 L10.4170239,10.2422176 C10.9355237,9.54382265 11.7608944,9.12676056 12.6251792,9.12676056 L65.2399391,9.12676056 C66.7618551,9.12676056 68,10.3777673 68,11.915493 L68,17.4931373 C67.9998223,19.0306834 66.7616774,20.2816901 65.2397614,20.2816901 Z M12.6250015,10.2885379 C12.1210723,10.2885379 11.6393543,10.5318092 11.3369257,10.9391763 L10.4744178,12.1011332 C10.1007354,12.6047316 10.0436969,13.2417253 10.322315,13.8049296 C10.6011109,14.3679545 11.1393343,14.7042254 11.7624936,14.7042254 L14.8676287,14.7042254 C16.3895447,14.7042254 17.6276896,15.9552321 17.6276896,17.4929577 C17.6276896,18.390099 18.35,19.1197333 19.2377399,19.1197333 L65.2397614,19.1197333 C66.1273237,19.1197333 66.8498118,18.3899195 66.8498118,17.4929577 L66.8498118,11.9153134 C66.8498118,11.0181721 66.1273237,10.2885379 65.2397614,10.2885379 L12.6250015,10.2885379 Z" id="Shape" fill="#A3A3A3" fill-rule="nonzero"></path>
            <path d="M67.8638199,42.5915493 L65.1363556,42.5915493 C64.5086561,42.5915493 64,42.1376243 64,41.5774648 C64,41.0173053 64.5086561,40.5633803 65.1363556,40.5633803 L67.8636443,40.5633803 C68.4913439,40.5633803 69,41.0173053 69,41.5774648 C69.0001755,42.1376243 68.4913439,42.5915493 67.8638199,42.5915493 Z" id="Shape" fill="#E3E3E3" fill-rule="nonzero"></path>
            <path d="M66.4044531,45.9662507 L56.6153125,45.9662507 C56.308,45.9662507 56.059125,45.6924822 56.059125,45.3544311 C56.059125,45.01638 56.308,44.7426116 56.6153125,44.7426116 L66.4044531,44.7426116 C66.7117656,44.7426116 66.9606406,45.01638 66.9606406,45.3544311 C66.9606406,45.6922931 66.7114219,45.9662507 66.4044531,45.9662507 Z" id="Shape" fill="#D68602" fill-rule="nonzero"></path>
            <path d="M66.4044531,48.4135288 L56.6153125,48.4135288 C56.308,48.4135288 56.059125,48.1397603 56.059125,47.8017092 C56.059125,47.4636582 56.308,47.1898897 56.6153125,47.1898897 L66.4044531,47.1898897 C66.7117656,47.1898897 66.9606406,47.4636582 66.9606406,47.8017092 C66.9606406,48.1397603 66.7114219,48.4135288 66.4044531,48.4135288 Z" id="Shape" fill="#D68602" fill-rule="nonzero"></path>
            <path d="M66.4044531,50.8609959 L56.6153125,50.8609959 C56.308,50.8609959 56.059125,50.5872275 56.059125,50.2491764 C56.059125,49.9111253 56.308,49.6373569 56.6153125,49.6373569 L66.4044531,49.6373569 C66.7117656,49.6373569 66.9606406,49.9111253 66.9606406,50.2491764 C66.9606406,50.5870384 66.7114219,50.8609959 66.4044531,50.8609959 Z" id="Shape" fill="#D68602" fill-rule="nonzero"></path>
            <path d="M66.4044531,53.3082741 L56.6153125,53.3082741 C56.308,53.3082741 56.059125,53.0345056 56.059125,52.6964545 C56.059125,52.3584034 56.308,52.084635 56.6153125,52.084635 L66.4044531,52.084635 C66.7117656,52.084635 66.9606406,52.3584034 66.9606406,52.6964545 C66.9606406,53.0345056 66.7114219,53.3082741 66.4044531,53.3082741 Z" id="Shape" fill="#D68602" fill-rule="nonzero"></path>
            <path d="M66.4044531,55.7555522 L56.6153125,55.7555522 C56.308,55.7555522 56.059125,55.4817837 56.059125,55.1437326 C56.059125,54.8056815 56.308,54.5319131 56.6153125,54.5319131 L66.4044531,54.5319131 C66.7117656,54.5319131 66.9606406,54.8056815 66.9606406,55.1437326 C66.9606406,55.4817837 66.7114219,55.7555522 66.4044531,55.7555522 Z" id="Shape" fill="#D68602" fill-rule="nonzero"></path>
            <path d="M69.6590121,23.3239437 L55.3409879,23.3239437 C54.0480228,23.3239437 53,22.1889702 53,20.7887324 C53,19.3884946 54.0480228,18.2535211 55.3409879,18.2535211 L69.6590121,18.2535211 C70.9519772,18.2535211 72,19.3884946 72,20.7887324 C72,22.1889702 70.9516103,23.3239437 69.6590121,23.3239437 Z" id="Shape" fill="#2D415A" fill-rule="nonzero"></path>
            <path d="M81.4186235,38.5352113 L72.5813765,38.5352113 C72.2601462,38.5352113 72,38.2795469 72,37.9638507 L72,29.9798112 C72,29.6641151 72.2601462,29.4084507 72.5813765,29.4084507 L81.4186235,29.4084507 C81.7398538,29.4084507 82,29.6641151 82,29.9798112 L82,37.9640273 C82,38.2793703 81.7396741,38.5352113 81.4186235,38.5352113 Z M73.1627531,37.3924902 L80.8372469,37.3924902 L80.8372469,30.5511718 L73.1627531,30.5511718 L73.1627531,37.3924902 Z" id="Shape" fill="#A3A3A3" fill-rule="nonzero"></path>
            <text id="upClose-RV" font-family=".SFNSDisplay, .SF NS Display" font-size="32" font-weight="normal" letter-spacing="1.05999994" fill="#4B473D">
                <tspan x="106" y="58">upClose-RV</tspan>
            </text>
        </g>
    </g>
</svg>