<?xml version="1.0" encoding="UTF-8"?>
<svg width="30px" height="30px" viewBox="0 0 30 30" version="1.1" xmlns="http://www.w3.org/2000/svg" xmlns:xlink="http://www.w3.org/1999/xlink">
    <!-- Generator: Sketch 49.1 (51147) - http://www.bohemiancoding.com/sketch -->
    <title>Shape Copy 2</title>
    <desc>Created with Sketch.</desc>
    <defs></defs>
    <g id="//OwnerDashboards" stroke="none" stroke-width="1" fill="none" fill-rule="evenodd">
        <g id="OWNER-Dash-Profile-Copy" transform="translate(-504.000000, -337.000000)" fill="#FFFFFF" fill-rule="nonzero">
            <g id="Group-10" transform="translate(191.000000, 252.000000)">
                <path d="M317.22093,110.421512 C319.950581,113.238372 323.770349,115 328,115 C336.267442,115 343,108.267442 343,100 C343,91.7325581 336.267442,85 328,85 C319.732558,85 313,91.7325581 313,100 C313,103.94186 314.534884,107.534884 317.02907,110.212209 C317.081395,110.299419 317.151163,110.360465 317.22093,110.421512 Z M328.092074,113.333333 C324.823065,113.333333 321.816276,112.143264 319.5,110.1744 C323.398337,108.879324 324.840547,107.304233 325.373727,106.254172 C326.116684,106.577941 326.947047,106.752951 327.864817,106.761701 C327.882298,106.761701 327.90852,106.761701 327.926001,106.761701 C327.934742,106.761701 327.987186,106.761701 328.004667,106.761701 C328.022149,106.761701 328.048371,106.761701 328.065852,106.761701 C329.062288,106.7442 329.962576,106.542939 330.740496,106.166667 C331.238714,107.216728 332.654701,108.844322 336.666667,110.1744 C334.359131,112.143264 331.361083,113.333333 328.092074,113.333333 Z M323.209425,97.2645648 C323.209425,97.2472013 323.209425,97.2298378 323.209425,97.2124743 C323.417816,92.6892849 326.752061,92.3333333 327.776647,92.3333333 C327.820062,92.3333333 327.854793,92.3333333 327.880842,92.3333333 C327.906891,92.3333333 327.924257,92.3333333 327.950305,92.3333333 C327.976354,92.3333333 328.002403,92.3333333 328.054501,92.3333333 C329.070404,92.3333333 332.413332,92.6892849 332.621722,97.2124743 C332.621722,97.2298378 332.621722,97.2472013 332.621722,97.2645648 C332.630405,97.3079735 333.055869,101.492575 331.102209,103.689056 C330.329428,104.557231 329.29616,104.991318 327.950305,105 C327.941623,105 327.924257,105 327.924257,105 C327.915574,105 327.906891,105 327.898208,105 C326.543671,104.982637 325.519085,104.557231 324.746304,103.689056 C322.783962,101.509938 323.200742,97.3079735 323.209425,97.2645648 Z M327.916667,86.6666667 C335.220707,86.6666667 341.166667,92.6152019 341.166667,99.922407 C341.166667,103.266825 339.913053,106.332542 337.867225,108.666667 C332.243375,107.029295 332.025734,105.043547 332.025734,105.017419 C332.025734,105.052257 332.025734,105.060966 332.025734,105.060966 L331.964794,105.060966 C332.069262,104.956453 332.17373,104.85194 332.278198,104.738717 C334.672251,102.047506 334.271792,97.4402217 334.228263,96.9873317 C333.993211,92.1797308 330.693769,90.4726841 327.934078,90.4726841 C327.881844,90.4726841 327.82961,90.4726841 327.794788,90.4726841 C327.759965,90.4726841 327.716437,90.4726841 327.655497,90.4726841 C324.895806,90.4726841 321.587659,92.1797308 321.361312,96.9873317 C321.317784,97.4315123 320.926029,102.038797 323.311378,104.738717 C323.450668,104.895487 323.598664,105.043547 323.74666,105.182898 C323.563841,105.688044 322.641042,107.290578 317.966108,108.657957 C315.911575,106.323832 314.666667,103.266825 314.666667,99.922407 C314.666667,92.6152019 320.612626,86.6666667 327.916667,86.6666667 Z" id="Shape-Copy-2"></path>
            </g>
        </g>
    </g>
</svg>