<?xml version="1.0" encoding="UTF-8"?>
<svg width="19px" height="31px" viewBox="0 0 19 31" version="1.1" xmlns="http://www.w3.org/2000/svg" xmlns:xlink="http://www.w3.org/1999/xlink">
    <!-- Generator: Sketch 49.1 (51147) - http://www.bohemiancoding.com/sketch -->
    <title>Group 7</title>
    <desc>Created with Sketch.</desc>
    <defs></defs>
    <g id="//OwnerDashboards" stroke="none" stroke-width="1" fill="none" fill-rule="evenodd">
        <g id="OWNER-Dash-Profile-Copy" transform="translate(-509.000000, -468.000000)" fill="#FFFFFF" fill-rule="nonzero">
            <g id="Group-10" transform="translate(191.000000, 252.000000)">
                <g id="Group-9" transform="translate(267.000000, 201.000000)">
                    <g id="Group-7" transform="translate(51.000000, 15.000000)">
                        <path d="M15.5607013,0 L3.43923899,0 C1.5428239,0 0,1.56344141 0,3.48519922 L0,27.5148008 C0,29.4365586 1.5428239,31 3.43923899,31 L15.560761,31 C17.4571761,31 19,29.4365586 19,27.5148008 L19,3.48519922 C18.9999403,1.56344141 17.4571164,0 15.5607013,0 Z M17.1898616,27.5148008 C17.1898019,28.425123 16.4590189,29.1656719 15.5607013,29.1656719 L3.43923899,29.1656719 C2.54092138,29.1656719 1.81013836,28.425123 1.81013836,27.5148008 L1.81013836,25.5753633 L17.1899214,25.5753633 L17.1899214,27.5148008 L17.1898616,27.5148008 Z M17.1899214,23.7410352 L1.81013836,23.7410352 L1.81013836,6.05202344 L17.1899214,6.05202344 L17.1899214,23.7410352 Z M17.1898616,4.21769531 L1.81013836,4.21769531 L1.81013836,3.48519922 C1.81013836,2.57487695 2.54092138,1.83432812 3.43923899,1.83432812 L15.560761,1.83432812 C16.4590786,1.83432812 17.1898616,2.57487695 17.1898616,3.48519922 L17.1898616,4.21769531 Z" id="Shape"></path>
                        <path d="M10.1901522,26 L7.80984777,26 C7.3625817,26 7,26.4477159 7,27 C7,27.5522841 7.3625817,28 7.80984777,28 L10.1901522,28 C10.6374183,28 11,27.5522841 11,27 C11,26.4477159 10.6374183,26 10.1901522,26 Z" id="Shape"></path>
                        <path d="M9.00002939,14.0998642 C8.32783705,14.0998642 7.78091291,13.5470543 7.78091291,12.8674958 C7.78091291,12.1879372 8.32777827,11.6351868 9.00002939,11.6351868 L11.1095435,11.6351868 C11.6013285,11.6351868 12,11.2321817 12,10.7350509 C12,10.2379202 11.6013285,9.83491511 11.1095435,9.83491511 L9.89042706,9.83491511 L9.89042706,8.90013582 C9.89042706,8.40300509 9.49175558,8 8.99997061,8 C8.50818564,8 8.10951415,8.40300509 8.10951415,8.90013582 L8.10951415,9.97129032 C6.88875173,10.3556367 6,11.5086163 6,12.8674958 C6,14.539652 7.34579549,15.9000764 8.99997061,15.9000764 C9.67216295,15.9000764 10.2190871,16.4528862 10.2190871,17.1324448 C10.2190871,17.8120034 9.67216295,18.3648132 8.99997061,18.3648132 L6.89045646,18.3648132 C6.39867149,18.3648132 6,18.7678183 6,19.2649491 C6,19.7620798 6.39867149,20.1650849 6.89045646,20.1650849 L8.10957294,20.1650849 L8.10957294,21.0998642 C8.10957294,21.5969949 8.50824442,22 9.00002939,22 C9.49181436,22 9.89048585,21.5969949 9.89048585,21.0998642 L9.89048585,20.0287097 C11.1112483,19.6443633 12,18.4913837 12,17.1325042 C12.0000588,15.4602886 10.6542633,14.0998642 9.00002939,14.0998642 Z" id="Shape"></path>
                    </g>
                </g>
            </g>
        </g>
    </g>
</svg>