<?xml version="1.0" encoding="UTF-8"?>
<svg width="29px" height="32px" viewBox="0 0 29 32" version="1.1" xmlns="http://www.w3.org/2000/svg" xmlns:xlink="http://www.w3.org/1999/xlink">
    <!-- Generator: Sketch 49.1 (51147) - http://www.bohemiancoding.com/sketch -->
    <title>Group 3</title>
    <desc>Created with Sketch.</desc>
    <defs></defs>
    <g id="//OwnerDashboards" stroke="none" stroke-width="1" fill="none" fill-rule="evenodd">
        <g id="OWNER-Dash-Profile-Copy" transform="translate(-505.000000, -403.000000)" fill="#FFFFFF" fill-rule="nonzero">
            <g id="Group-10" transform="translate(191.000000, 252.000000)">
                <g id="Group-3" transform="translate(314.000000, 151.000000)">
                    <path d="M8.07861381,26.12811 C7.16522506,26.12811 6.42205371,26.8712072 6.42205371,27.7845959 C6.42205371,28.6979847 7.16522506,29.441156 8.07861381,29.441156 C8.99200256,29.441156 9.73517391,28.6979847 9.73517391,27.7845959 C9.73517391,26.8712072 8.99207673,26.12811 8.07861381,26.12811 Z M8.07861381,28.328624 C7.77860102,28.328624 7.53458568,28.0845345 7.53458568,27.7845959 C7.53458568,27.4846573 7.77860102,27.2406419 8.07861381,27.2406419 C8.3786266,27.2406419 8.62264194,27.4846573 8.62264194,27.7845959 C8.62264194,28.0845345 8.3786266,28.328624 8.07861381,28.328624 Z" id="Shape"></path>
                    <path d="M22.3399386,27.2283299 L20.3963453,27.2283299 L20.3963453,17.2211049 C20.3963453,15.0817801 18.6559003,13.341335 16.5165754,13.341335 L11.442688,13.341335 C5.14827877,13.341335 0.0273682864,18.4622455 0.0273682864,24.7566547 L0.0273682864,27.7849668 C0.0273682864,28.0921739 0.276352941,28.3412327 0.583634271,28.3412327 L4.41652941,28.3412327 C4.68583632,30.120468 6.22535806,31.4885857 8.07861381,31.4885857 C9.93186957,31.4885857 11.4713171,30.120468 11.7406982,28.3412327 L20.7003632,28.3408619 L20.7003632,30.9323197 C20.7003632,31.2395269 20.9493478,31.4885857 21.2566292,31.4885857 C21.5639105,31.4885857 21.8128951,31.2395269 21.8128951,30.9323197 L21.8128951,28.3408619 L22.3399386,28.3408619 C22.6472199,28.3408619 22.8962046,28.0918031 22.8962046,27.7845959 C22.8962046,27.4773887 22.6472199,27.2283299 22.3399386,27.2283299 Z M8.07861381,30.3760537 C6.64967775,30.3760537 5.48723018,29.213532 5.48723018,27.7845959 C5.48723018,26.3556598 6.64975192,25.1932123 8.07861381,25.1932123 C9.5074757,25.1932123 10.6699974,26.355734 10.6699974,27.7845959 C10.6700716,29.213532 9.50754987,30.3760537 8.07861381,30.3760537 Z M19.2838133,27.2287749 L11.7407724,27.2287749 C11.4717621,25.4491688 9.93209207,24.0806803 8.07861381,24.0806803 C6.22513555,24.0806803 4.68546547,25.4491688 4.41645524,27.2287749 L1.13990026,27.2287749 L1.13990026,24.7567289 C1.13990026,19.0757698 5.76165473,14.4539412 11.442688,14.4539412 L16.5165754,14.4539412 C18.042376,14.4539412 19.2838133,15.6953043 19.2838133,17.221179 L19.2838133,27.2287749 Z" id="Shape"></path>
                    <path d="M28.8482506,23.5135857 L25.0864834,17.7810051 L27.2151279,17.7810051 C27.4195371,17.7810051 27.6074808,17.6688619 27.7046419,17.4890026 C27.8018031,17.3091432 27.7923836,17.0904936 27.6802404,16.9195345 L24.4932072,12.0627391 L25.8236471,12.0627391 C26.0280563,12.0627391 26.216,11.9505959 26.3131611,11.7707366 C26.4103223,11.5908772 26.4009028,11.3722276 26.2887596,11.2012685 L23.4097494,6.81388747 L24.8992072,6.81388747 C25.1036164,6.81388747 25.2915601,6.70174425 25.3887212,6.52188491 C25.4858824,6.34202558 25.4764629,6.12330179 25.3643197,5.95241688 L21.6231714,0.251061381 C21.5202992,0.094342711 21.3454834,0 21.1580588,0 C20.9706343,0 20.7958184,0.094342711 20.6929463,0.251061381 L16.951798,5.95241688 C16.8396547,6.12330179 16.8302353,6.34195141 16.9273964,6.52188491 C17.0245575,6.70181841 17.2125013,6.81388747 17.4169105,6.81388747 L18.9064425,6.81388747 L16.0274322,11.2012685 C15.915289,11.3721535 15.9058696,11.5908031 16.0030307,11.7707366 C16.1001918,11.9506701 16.2881355,12.0627391 16.4925448,12.0627391 L17.8229847,12.0627391 L17.665821,12.3023043 C17.4973095,12.5591509 17.5688082,12.9040358 17.8257289,13.0725473 C18.0825013,13.2410588 18.427312,13.1694859 18.5959719,12.9126394 L19.3184501,11.8116036 C19.4305934,11.6407187 19.4400128,11.4220691 19.3428517,11.2421355 C19.2456905,11.062202 19.0577468,10.950133 18.8533376,10.950133 L17.5228977,10.950133 L20.4019079,6.56275192 C20.5140512,6.39186701 20.5234706,6.17321739 20.4263095,5.99328389 C20.3291483,5.81335038 20.1412046,5.70128133 19.9367954,5.70128133 L18.4472634,5.70128133 L21.158133,1.57007928 L23.8690026,5.70128133 L22.3795448,5.70128133 C22.1751355,5.70128133 21.9871918,5.81342455 21.8900307,5.99328389 C21.7928696,6.17314322 21.802289,6.39186701 21.9144322,6.56275192 L24.7933683,10.950133 L23.4629284,10.950133 C23.2585192,10.950133 23.0705754,11.0622762 22.9734143,11.2421355 C22.8762532,11.4219949 22.8856726,11.6407187 22.9978159,11.8116036 L26.1848491,16.668399 L24.0562046,16.668399 C23.8517954,16.668399 23.6638517,16.7805422 23.5666905,16.9604015 C23.4695294,17.1402609 23.4789488,17.3589847 23.5910921,17.5298696 L27.3528593,23.2624501 L21.7016419,23.2624501 C21.3943606,23.2624501 21.145376,23.511509 21.145376,23.8187161 C21.145376,24.1259233 21.3943606,24.3749821 21.7016419,24.3749821 L28.3832123,24.3749821 C28.5876215,24.3749821 28.7755652,24.2628389 28.8727263,24.0829795 C28.9698875,23.9031202 28.9603939,23.6845448 28.8482506,23.5135857 Z" id="Shape"></path>
                    <path d="M0.744283887,18.408844 C0.838404092,18.4706266 0.944168798,18.5000716 1.04889514,18.5000716 C1.23001535,18.5000716 1.40764962,18.4116624 1.51445269,18.2489361 L5.26672634,12.5306701 C5.37886957,12.3597852 5.388289,12.1411355 5.29112788,11.961202 C5.19396675,11.7812685 5.00602302,11.6691995 4.80161381,11.6691995 L3.47132225,11.6691995 L6.35025831,7.28181841 C6.46240153,7.1109335 6.47182097,6.89228389 6.37465985,6.71235038 C6.27749872,6.53241688 6.08955499,6.42034783 5.88514578,6.42034783 L4.39576215,6.42034783 L7.10663171,2.28914578 L9.81750128,6.42034783 L8.32796931,6.42034783 C8.1235601,6.42034783 7.93561637,6.53249105 7.83845524,6.71235038 C7.74129412,6.89220972 7.75071355,7.1109335 7.86285678,7.28181841 L10.741867,11.6691995 L9.41142711,11.6691995 C9.10414578,11.6691995 8.85516113,11.9182583 8.85516113,12.2254655 C8.85516113,12.5326726 9.10414578,12.7817315 9.41142711,12.7817315 L11.7722199,12.7817315 C11.9766292,12.7817315 12.1645729,12.6695882 12.261734,12.4897289 C12.3588951,12.3098696 12.3494757,12.0911458 12.2373325,11.9202609 L9.35832225,7.5328798 L10.8478542,7.5328798 C11.0522634,7.5328798 11.2402072,7.42073657 11.3373683,7.24087724 C11.4345294,7.0610179 11.42511,6.84229412 11.3129668,6.67140921 L7.57181841,0.970053708 C7.46894629,0.813335038 7.2942046,0.718992327 7.10670588,0.718992327 C6.91920716,0.718992327 6.74446547,0.813335038 6.64159335,0.970053708 L2.90044501,6.67140921 C2.78830179,6.84229412 2.77888235,7.06094373 2.87604348,7.24087724 C2.9732046,7.42081074 3.16114834,7.5328798 3.36555754,7.5328798 L4.85501535,7.5328798 L1.97607928,11.9202609 C1.86393606,12.0912199 1.85451662,12.3097954 1.95167775,12.4897289 C2.04883887,12.6696624 2.23678261,12.7817315 2.44119182,12.7817315 L3.77155754,12.7817315 L0.584524297,17.6385269 C0.41586445,17.8954476 0.48743734,18.2402583 0.744283887,18.408844 Z" id="Shape"></path>
                    <path d="M11.2443606,16.8038312 L7.57322762,16.8038312 C5.48760102,16.8038312 3.79076726,18.5005908 3.79076726,20.5862916 C3.79076726,20.8934987 4.03975192,21.1425575 4.34703325,21.1425575 L11.2443606,21.1425575 C11.5516419,21.1425575 11.8006266,20.8934987 11.8006266,20.5862916 L11.8006266,17.3600972 C11.8006266,17.05289 11.5515678,16.8038312 11.2443606,16.8038312 Z M10.6880946,20.0300256 L4.96159591,20.0300256 C5.21814578,18.8238926 6.29173913,17.9163632 7.57322762,17.9163632 L10.6880946,17.9163632 L10.6880946,20.0300256 Z" id="Shape"></path>
                    <path d="M17.6967494,16.8038312 L13.7239719,16.8038312 C13.4166905,16.8038312 13.1677059,17.05289 13.1677059,17.3600972 L13.1677059,25.4094143 C13.1677059,25.7166215 13.4166905,25.9656803 13.7239719,25.9656803 L17.6967494,25.9656803 C18.0040307,25.9656803 18.2530153,25.7166215 18.2530153,25.4094143 L18.2530153,17.3600972 C18.2530153,17.05289 18.0039565,16.8038312 17.6967494,16.8038312 Z M17.1404834,24.8531483 L14.2802379,24.8531483 L14.2802379,17.9163632 L17.1404834,17.9163632 L17.1404834,24.8531483 Z" id="Shape"></path>
                </g>
            </g>
        </g>
    </g>
</svg>