<?xml version="1.0" encoding="UTF-8"?>
<svg width="1920px" height="56px" viewBox="0 0 1920 56" version="1.1" xmlns="http://www.w3.org/2000/svg" xmlns:xlink="http://www.w3.org/1999/xlink">
    <!-- Generator: Sketch 49.1 (51147) - http://www.bohemiancoding.com/sketch -->
    <title>Page 1 Copy 3</title>
    <desc>Created with Sketch.</desc>
    <defs>
        <polygon id="path-1" points="0.0279572927 0.976722222 5.69849995 0.976722222 5.69849995 6.22222222 0.0279572927 6.22222222"></polygon>
        <polygon id="path-3" points="0.841147504 0.169834123 10.7147325 0.169834123 10.7147325 3.22222222 0.841147504 3.22222222"></polygon>
    </defs>
    <g id="//Homepage" stroke="none" stroke-width="1" fill="none" fill-rule="evenodd">
        <g id="Home" transform="translate(0.000000, -817.000000)">
            <g id="Page-1-Copy-3" transform="translate(0.000000, 817.000000)">
                <path d="M0,28 L1994,28 L0,28 Z" id="Fill-1" fill="#FEFEFE"></path>
                <g id="Group-166">
                    <path d="M1897.7608,17.1417778 C1902.05693,22.2984444 1914.22966,16.3112222 1922.32512,18.1456667 L1923.66014,19.3156667 L1927.31284,15.1701111 C1917.4731,15.8273333 1904.68976,18.579 1897.7608,17.1417778" id="Fill-6" fill="#FEFEFE"></path>
                    <path d="M1873.52825,5.99066667 C1875.02304,7.99844444 1868.28667,7.71677778 1879.1791,6.619 C1878.63196,6.40233333 1878.47439,6.27233333 1878.15486,6.11344444 C1877.17438,6.14233333 1875.82405,6.13511111 1873.52825,5.99066667" id="Fill-8" fill="#FEFEFE"></path>
                    <path d="M1878.15551,6.11055556 C1882.94188,5.96611111 1875.02369,4.42777778 1878.15551,6.11055556" id="Fill-10" fill="#FEFEFE"></path>
                    <path d="M1856.05287,7.26033333 L1862.35591,5.46922222 C1861.04059,4.28477778 1855.42913,4.01755556 1857.51264,3.15811111 C1851.04546,4.13311111 1852.3761,5.31033333 1856.05287,7.26033333" id="Fill-12" fill="#FEFEFE"></path>
                    <path d="M1850.07549,11.0231111 L1853.343,10.2647778 C1852.7696,9.76644444 1851.90513,9.59311111 1850.07549,11.0231111" id="Fill-14" fill="#FEFEFE"></path>
                    <path d="M1860.27065,8.66433333 L1853.34169,10.2676667 C1854.25651,11.0982222 1854.3528,12.7665556 1856.52385,9.68988889 C1855.95701,11.2137778 1857.32705,9.74766667 1860.27065,8.66433333" id="Fill-16" fill="#FEFEFE"></path>
                    <path d="M1864.1932,9.45011111 C1867.7299,10.5695556 1872.29741,11.2773333 1865.9703,13.0612222 C1878.03142,12.3534444 1876.25432,8.72788889 1864.1932,9.45011111" id="Fill-18" fill="#FEFEFE"></path>
                    <path d="M1895.44027,22.4739444 L1900.16755,23.9833889 L1904.25796,22.2572778 C1902.21385,23.1095 1895.14701,20.8561667 1895.44027,22.4739444" id="Fill-20" fill="#FEFEFE"></path>
                    <path d="M1816.77949,4.591 C1816.38555,5.68877778 1818.9002,7.516 1819.36855,8.91711111 L1824.0258,7.66044444 C1821.63371,6.90933333 1817.09683,6.216 1816.77949,4.591" id="Fill-22" fill="#FEFEFE"></path>
                    <path d="M1819.36965,8.91783333 L1812.40129,10.8028333 C1818.62554,11.0195 1819.76359,10.1239444 1819.36965,8.91783333" id="Fill-24" fill="#FEFEFE"></path>
                    <polygon id="Fill-26" fill="#FEFEFE" points="1848.95167 16.7467222 1860.39562 12.7889444 1846.74561 16.7972778"></polygon>
                    <polygon id="Fill-28" fill="#FEFEFE" points="1790.16953 4.45377778 1794.11987 1.91155556 1787.08367 5.75377778"></polygon>
                    <path d="M1772.51884,4.89794444 C1775.44275,2.79627778 1768.5116,1.33738889 1771.60184,0.0446111111 C1766.80672,0.420166667 1762.71412,2.22572222 1759.02641,3.85072222 C1762.94392,2.94794444 1767.11749,3.17905556 1772.51884,4.89794444" id="Fill-30" fill="#FEFEFE"></path>
                    <path d="M1752.83696,6.21672222 C1754.79353,5.71116667 1756.82013,4.80838889 1759.02619,3.84783333 C1756.94706,4.33894444 1754.90076,5.03227778 1752.83696,6.21672222" id="Fill-32" fill="#FEFEFE"></path>
                    <path d="M1800.53408,10.2582778 C1799.99569,9.59383333 1798.95832,7.8605 1795.05175,7.12383333 L1797.78963,10.2149444 C1798.62785,10.2293889 1799.5733,10.2438333 1800.53408,10.2582778" id="Fill-34" fill="#FEFEFE"></path>
                    <path d="M1797.8868,10.311 L1797.79051,10.2098889 C1794.81626,10.1448889 1792.75465,10.0726667 1791.87047,10.0365556 C1792.6299,10.0654444 1794.43983,10.1448889 1797.8868,10.311" id="Fill-36" fill="#FEFEFE"></path>
                    <path d="M1801.22479,10.272 C1800.97091,10.2647778 1800.78489,10.2575556 1800.5332,10.2575556 C1800.79802,10.5608889 1800.95778,10.662 1801.22479,10.272" id="Fill-38" fill="#FEFEFE"></path>
                    <path d="M1830.68666,13.9538889 C1826.59188,15.68 1818.0587,17.5288889 1826.31831,20.1577778 C1829.25316,18.0488889 1824.52588,16.5466667 1830.68666,13.9538889" id="Fill-40" fill="#FEFEFE"></path>
                    <path d="M1804.62799,14.1301111 L1812.02749,14.8378889 C1811.88304,14.0217778 1810.54803,12.8301111 1812.57463,11.9778889 L1804.62799,14.1301111 Z" id="Fill-42" fill="#FEFEFE"></path>
                    <polygon id="Fill-44" fill="#FEFEFE" points="1801.0044 15.1101667 1804.62864 14.1279444 1801.8842 13.8679444"></polygon>
                    <path d="M1765.51416,9.10488889 C1762.31668,10.4482222 1758.81937,10.5637778 1754.87122,10.7732222 C1759.10388,11.3798889 1763.48099,11.7121111 1767.63705,11.7048889 C1768.22359,10.7371111 1770.05103,8.99655556 1765.51416,9.10488889" id="Fill-46" fill="#FEFEFE"></path>
                    <path d="M1781.2457,9.96216667 C1781.02465,10.0343889 1780.74233,10.0705 1780.53442,10.1355 C1780.97213,10.4027222 1781.3223,10.4821667 1781.2457,9.96216667" id="Fill-48" fill="#FEFEFE"></path>
                    <path d="M1715.98259,10.7551667 C1716.19926,10.9212778 1716.38528,11.1379444 1716.60633,11.3185 C1716.65666,11.1379444 1716.68949,10.9646111 1716.75296,10.7840556 L1715.98259,10.7551667 Z" id="Fill-50" fill="#FEFEFE"></path>
                    <path d="M1768.34811,12.2790556 C1771.53027,12.8785 1773.43212,12.1201667 1775.24425,11.1668333 C1772.86529,11.4773889 1770.34408,11.6796111 1767.63683,11.7012778 C1767.37421,12.1418333 1767.32387,12.4307222 1768.34811,12.2790556" id="Fill-52" fill="#FEFEFE"></path>
                    <path d="M1741.9883,7.659 C1743.64503,8.30177778 1745.525,8.85066667 1747.49908,9.35622222 C1745.87955,8.38122222 1742.57483,6.85733333 1741.9883,7.659" id="Fill-54" fill="#FEFEFE"></path>
                    <path d="M1779.46268,9.28472222 C1779.62245,9.23416667 1779.7647,9.17638889 1779.93979,9.1475 C1778.89585,8.48305556 1779.02497,8.80805556 1779.46268,9.28472222" id="Fill-56" fill="#FEFEFE"></path>
                    <path d="M1779.46268,9.28472222 C1777.82565,9.72527778 1776.53878,10.4908333 1775.24534,11.1697222 C1777.18221,10.9241667 1778.97901,10.5919444 1780.53508,10.1369444 C1780.14114,9.92027778 1779.7472,9.58805556 1779.46268,9.28472222" id="Fill-58" fill="#FEFEFE"></path>
                    <path d="M1704.20095,30.5671667 C1704.76122,27.7071667 1713.12806,25.0638333 1720.35029,28.1332778 C1727.45652,25.9882778 1722.81022,16.5777222 1716.60567,11.3199444 C1716.38682,12.5621667 1716.38682,13.7177222 1709.07267,15.4077222 C1711.63328,16.9677222 1725.30079,19.0621667 1719.12907,21.6477222 C1709.44253,23.1210556 1711.19119,20.6366111 1706.48142,19.1271667 C1710.48429,22.6877222 1694.15768,24.3127222 1696.26744,29.5488333 L1704.76122,27.7071667 C1704.92098,28.5232778 1701.84169,29.8232778 1704.20095,30.5671667" id="Fill-60" fill="#FEFEFE"></path>
                    <path d="M1730.54129,11.6088333 L1733.55055,11.2549444 C1730.12108,10.7566111 1727.66334,9.6155 1723.14397,7.37661111 C1718.13656,8.7705 1717.097,9.83216667 1716.75121,10.7855 L1731.56991,11.1827222 L1730.54129,11.6088333 Z" id="Fill-62" fill="#FEFEFE"></path>
                    <path d="M1747.06224,11.2419444 C1744.71173,14.3547222 1737.48513,15.6763889 1741.91039,19.0491667 C1750.74339,18.8325 1748.09962,16.4491667 1753.37622,15.0986111 C1739.12436,15.8713889 1757.471,13.3652778 1747.17167,11.5958333 C1749.97302,11.0686111 1752.49204,10.9097222 1754.871,10.7797222 C1752.30383,10.3969444 1749.82857,9.9275 1747.49995,9.35694444 C1747.62908,9.42916667 1747.71881,9.47972222 1747.82605,9.55194444 L1747.89389,9.5375 C1747.89389,9.55916667 1747.87857,9.56638889 1747.87857,9.58805556 C1748.49355,9.97805556 1748.6949,10.2091667 1748.00332,9.98527778 C1747.95517,10.0213889 1747.78227,10.0358333 1747.70568,10.0502778 C1747.60938,10.4836111 1747.34675,10.8591667 1747.06224,11.2275 C1742.93463,10.5847222 1746.41224,10.4186111 1747.70568,10.0502778 C1747.75382,9.89861111 1747.86544,9.75416667 1747.87857,9.58805556 C1747.86544,9.57361111 1747.84574,9.55916667 1747.82605,9.55194444 L1733.55011,11.2563889 C1736.5725,11.6897222 1740.35432,11.5958333 1747.06224,11.2419444" id="Fill-64" fill="#FEFEFE"></path>
                    <path d="M1818.70236,26.8535 C1818.26027,26.5790556 1818.27997,26.3551667 1818.24495,26.1312778 C1817.32357,26.5140556 1816.9734,26.7740556 1818.70236,26.8535" id="Fill-66" fill="#FEFEFE"></path>
                    <path d="M1812.82937,24.9742778 C1813.86894,24.5409444 1814.73342,23.2987222 1818.10598,23.6165 C1821.03207,24.5481667 1818.09285,25.1115 1818.24604,26.1298333 C1820.27921,25.3065 1825.36322,23.8981667 1818.98578,22.3887222 L1817.97685,22.8076111 C1812.22971,21.7387222 1804.84553,17.8603889 1805.84789,17.4342778 C1807.52432,20.2292778 1809.00597,22.2298333 1812.82937,24.9742778" id="Fill-68" fill="#FEFEFE"></path>
                    <path d="M1779.53534,18.9011111 L1767.64712,20.4322222 L1773.70066,23.1261111 L1773.39426,21.5011111 C1780.1547,22.1366667 1778.69494,20.1433333 1779.53534,18.9011111" id="Fill-70" fill="#FEFEFE"></path>
                    <polygon id="Fill-72" fill="#FEFEFE" points="1714.62262 9.20744444 1716.19838 5.92133333 1709.33289 10.558"></polygon>
                    <polygon id="Fill-74" fill="#FEFEFE" points="1699.17428 9.60177778 1699.74549 6.74177778 1695.66603 8.46788889"></polygon>
                    <path d="M827.393891,45.0643333 L823.90096,45.8732222 C825.553318,45.6276667 826.616955,45.3532222 827.393891,45.0643333" id="Fill-76" fill="#FEFEFE"></path>
                    <path d="M852.683067,45.2586111 L853.302428,43.8502778 C852.131552,44.6302778 851.652258,45.2008333 852.683067,45.2586111" id="Fill-78" fill="#FEFEFE"></path>
                    <path d="M1319.75829,9.92316667 C1314.6699,7.25094444 1308.98623,3.11261111 1309.60121,6.3265 L1311.16384,9.46094444 C1314.71805,8.89761111 1317.4428,9.2515 1319.75829,9.92316667" id="Fill-80" fill="#FEFEFE"></path>
                    <path d="M1059.91197,28.6308889 C1060.39564,28.9342222 1060.899,29.2592222 1061.40018,29.5842222 C1062.63671,28.5081111 1063.79884,27.5186667 1064.83621,26.587 C1063.35675,27.2297778 1061.67594,27.9086667 1059.91197,28.6308889" id="Fill-82" fill="#FEFEFE"></path>
                    <path d="M1056.32186,41.5976667 L1049.61394,39.5754444 C1051.12186,40.2832222 1053.27977,40.9548889 1056.32186,41.5976667" id="Fill-84" fill="#FEFEFE"></path>
                    <path d="M689.276018,48.3865556 L685.200931,51.5787778 C691.576188,51.5571111 688.770462,49.9537778 689.276018,48.3865556" id="Fill-86" fill="#FEFEFE"></path>
                    <path d="M1540.94929,10.7551667 C1536.55905,9.53461111 1533.06393,9.01461111 1529.99339,8.86294444 C1535.28531,10.6612778 1539.55299,13.3623889 1540.94929,10.7551667" id="Fill-88" fill="#FEFEFE"></path>
                    <path d="M837.345026,11.8132222 C835.206809,12.3837778 834.294182,13.0193333 834.35765,13.7198889 C836.557147,13.1782222 837.802434,12.5787778 837.345026,11.8132222" id="Fill-90" fill="#FEFEFE"></path>
                    <path d="M1517.31334,8.87594444 C1518.0859,9.1865 1518.84752,9.34538889 1519.63321,9.61261111 C1522.84382,9.08538889 1526.07412,8.6665 1529.99382,8.8615 C1526.08726,7.52538889 1521.61385,6.70205556 1517.31334,8.87594444" id="Fill-92" fill="#FEFEFE"></path>
                    <path d="M188.361814,45.7908889 C187.998514,45.6464444 187.558615,45.5814444 187.228144,45.4153333 C187.118716,45.8414444 187.622083,45.8631111 188.361814,45.7908889" id="Fill-94" fill="#FEFEFE"></path>
                    <path d="M42.4301473,14.1727222 C43.8658386,13.9777222 46.2119681,13.9777222 48.4224074,13.9343889 C47.345639,13.7177222 45.5378936,13.7393889 42.4301473,14.1727222" id="Fill-96" fill="#FEFEFE"></path>
                    <path d="M1637.01476,8.23388889 C1640.29102,8.03166667 1637.53344,7.88722222 1637.01476,8.23388889" id="Fill-98" fill="#FEFEFE"></path>
                    <path d="M1652.94918,20.6257778 C1652.25322,20.9796667 1651.72359,21.4274444 1651.64042,22.1496667 C1651.90962,21.3985556 1652.36702,20.9146667 1652.94918,20.6257778" id="Fill-100" fill="#FEFEFE"></path>
                    <path d="M1484.67697,28.3773889 C1484.58068,28.3773889 1484.50408,28.3701667 1484.39246,28.3701667 C1485.36856,28.9768333 1485.20004,28.8612778 1484.67697,28.3773889" id="Fill-102" fill="#FEFEFE"></path>
                    <path d="M1641.94513,9.65883333 C1640.71516,9.27605556 1639.29698,8.95105556 1637.75405,8.72716667 C1638.4325,8.97272222 1639.70624,9.27605556 1641.94513,9.65883333" id="Fill-104" fill="#FEFEFE"></path>
                    <path d="M1641.28178,8.17755556 C1642.41107,8.322 1643.29963,8.39422222 1644.1466,8.48088889 C1644.55804,7.96088889 1644.19256,7.62866667 1641.28178,8.17755556" id="Fill-106" fill="#FEFEFE"></path>
                    <path d="M1632.45053,8.40288889 C1634.32393,8.35233333 1636.07258,8.504 1637.75558,8.72788889 C1637.11215,8.51844444 1636.84077,8.33788889 1637.01585,8.23677778 C1636.05508,8.28011111 1634.69817,8.34511111 1632.45053,8.40288889" id="Fill-108" fill="#FEFEFE"></path>
                    <path d="M456.754004,37.4051667 C456.537337,37.3040556 456.287842,37.2390556 456.051478,37.1090556 C452.746762,38.4090556 454.197773,38.1996111 456.754004,37.4051667" id="Fill-110" fill="#FEFEFE"></path>
                    <path d="M1234.48261,42.4621667 C1234.63581,42.4332778 1234.71678,42.3466111 1234.85685,42.3105 C1234.70365,42.2816111 1234.51106,42.2382778 1234.37318,42.2021667 L1234.48261,42.4621667 Z" id="Fill-112" fill="#FEFEFE"></path>
                    <path d="M1222.71476,44.7963889 C1227.72654,40.8963889 1230.57604,41.3730556 1234.37318,42.2036111 L1230.47974,33.1686111 L1222.71476,44.7963889 Z" id="Fill-114" fill="#FEFEFE"></path>
                    <path d="M421.757717,13.9538889 L423.915631,14.8638889 C419.043911,15.8677778 420.40738,14.965 421.757717,13.9538889 M1612.18649,12.5816667 C1613.30046,12.0977778 1613.22386,11.6138889 1612.75333,11.1227778 C1611.97858,12.0038889 1609.49019,12.0688889 1606.65602,11.8233333 C1607.44171,12.7333333 1608.87521,13.3616667 1612.18649,12.5816667 M1601.10147,11.0722222 C1600.9986,11.1227778 1600.92857,11.1661111 1600.84541,11.2383333 C1595.50752,9.88055556 1597.40062,10.415 1601.10147,11.0722222 M1078.09403,35.3316667 C1076.31474,36.48 1073.56373,35.9094444 1070.45817,34.5877778 C1072.71019,34.3061111 1075.26423,34.4361111 1078.09403,35.3316667 M890.346763,43.7166667 C887.952486,44.4461111 883.181439,46.7066667 881.432784,44.6483333 C884.157533,40.6544444 886.267299,42.5683333 890.346763,43.7166667 M766.840112,45.97 L775.104091,48.7794444 C765.130851,53.4161111 757.913001,51.82 765.671424,55.7777778 C766.840112,45.97 797.795016,54.7738889 798.944006,44.9733333 L804.391316,47.0388889 C802.830878,46.9377778 802.581383,47.5155556 801.038452,47.4216667 C811.633241,52.1161111 808.908491,40.3294444 822.560689,41.7233333 C827.316417,42.4744444 830.636453,43.8972222 827.393016,45.0672222 L837.99437,42.6405556 C841.078042,42.8283333 840.32518,44.5327778 837.254639,44.345 L853.423674,43.565 L853.303303,43.8538889 C855.610039,42.3083333 860.836305,39.9322222 863.390347,38.9211111 C867.498263,40.3294444 861.32873,39.9611111 862.381424,41.1816667 L871.334797,38.8055556 C874.980928,41.3477778 867.561731,43.8177778 861.376878,43.4566667 C869.737153,53.2427778 868.804829,40.9866667 886.849455,46.7066667 L878.395072,47.9488889 C883.84457,53.51 890.44306,51.495 900.000474,54.9688889 C897.733132,53.1561111 880.865949,46.2227778 890.583127,43.7816667 C893.321008,44.5183333 896.929933,44.8722222 902.171519,42.9005556 C902.219667,46.3888889 907.338694,45.5294444 913.742403,45.3344444 L913.304692,49.9494444 C920.229276,48.6205556 919.682137,46.2661111 923.757224,44.1861111 C931.474065,44.6411111 933.073897,48.2233333 934.890397,51.235 C947.24916,51.9716667 926.357226,45.5005556 940.983331,44.6266667 C951.262967,46.3961111 958.478629,44.5038889 970.773924,41.745 C977.9677,43.3338889 969.517694,44.5688889 972.097999,45.8905556 L978.473256,42.2072222 C980.035883,42.2938889 979.530327,43.4277778 979.274266,43.9983333 C984.649354,42.5683333 979.718543,39.3761111 988.16636,38.1266667 C990.442456,33.035 1005.50627,45.5583333 1015.96318,39.7805556 C1018.53911,41.095 1014.71789,42.6116667 1015.50577,44.4027778 C1029.84955,40.6111111 1027.80326,41.6511111 1039.57986,36.545 L1049.61438,39.5783333 C1042.24114,36.1044444 1051.66068,32.0022222 1059.91153,28.6294444 C1057.29621,26.9538889 1055.06169,25.4877778 1053.56253,24.7944444 L1066.72887,22.31 C1068.31995,23.0683333 1066.99369,24.6572222 1064.83577,26.5855556 C1065.73308,26.2027778 1066.58662,25.8272222 1067.24975,25.4805556 C1071.95733,27.185 1069.51709,29.85 1066.14234,32.4355556 C1064.53813,31.5255556 1062.94705,30.5505556 1061.39974,29.5827778 C1058.14755,32.3922222 1055.10546,35.4977778 1055.78173,38.1988889 C1056.63964,37.6716667 1058.28543,37.2094444 1060.09974,36.9566667 C1059.2484,37.715 1058.70563,38.3938889 1059.09957,38.8561111 C1059.54604,39.3472222 1060.92045,38.3216667 1063.0718,37.1444444 L1066.06574,42.2938889 L1066.79234,40.25 L1084.01845,43.4711111 C1096.34219,38.2855556 1107.06392,30.6588889 1126.62521,28.5283333 C1121.77319,32.3055556 1125.58346,34.6961111 1125.31864,39.1738889 C1119.98076,34.4361111 1110.16729,41.1816667 1100.02991,40.2211111 C1105.31964,40.7194444 1104.15752,42.85 1102.81156,43.5938889 L1120.89339,39.2894444 C1120.48413,42.9511111 1124.73211,42.0338889 1129.45501,43.5433333 C1125.88548,36.3138889 1142.93431,38.7261111 1150.29223,36.5088889 C1150.74745,38.9427778 1148.98348,41.42 1140.00822,40.835 C1149.91142,46.2805556 1152.80469,32.3344444 1162.52625,36.9638889 C1160.33331,37.0216667 1159.1515,36.6533333 1158.28702,37.8811111 C1163.40604,35.7288889 1175.92019,37.4333333 1172.97659,39.5494444 L1170.79022,39.6 C1185.33973,40.4594444 1215.08436,39.6577778 1217.25541,33.5116667 C1217.39985,34.3061111 1215.34699,40.9144444 1214.46719,42.1566667 L1240.43,21.4866667 C1238.14296,26.7661111 1246.92344,39.3327778 1234.85576,42.3083333 C1238.32024,43.0594444 1242.60761,43.9405556 1249.91082,42.0772222 C1247.54718,41.3261111 1244.02142,34.4505556 1247.24954,33.9666667 C1256.11537,39.8455556 1253.40375,37.1083333 1264.3312,42.1133333 C1260.79012,40.9866667 1264.72514,32.71 1270.32346,32.9772222 C1269.45023,34.2122222 1270.78962,41.1455556 1268.74332,42.005 L1282.67784,33.88 C1279.20023,35.3461111 1282.06286,40.7627778 1285.18155,43.0594444 C1283.73492,41.4705556 1297.22954,43.2111111 1300.94351,42.4022222 L1295.03661,40.5244444 C1310.77012,41.7522222 1310.57753,29.0988889 1326.1841,29.525 C1324.29538,31.2077778 1321.51811,39.8527778 1329.45599,40.8711111 C1333.09337,36.7111111 1345.56375,20.8655556 1359.37133,17.6661111 L1362.02167,20.0422222 L1372.61646,17.3338889 C1366.01797,23.5955556 1347.50499,36.7616667 1337.39388,41.8894444 C1343.28108,43.7672222 1339.0331,44.6916667 1347.85078,44.475 C1350.9651,46.7066667 1343.04472,47.855 1340.4491,47.985 L1360.97773,49.4294444 C1360.0651,44.5688889 1376.67623,44.5544444 1375.89272,40.51 L1353.59793,45.5438889 C1352.69405,40.6977778 1366.48851,31.7638889 1381.03364,32.6233333 C1384.73448,34.5516667 1378.2673,41.2611111 1378.56932,42.8788889 C1380.45805,41.2105556 1392.37472,39.6866667 1393.71193,40.8711111 L1387.54021,43.4711111 C1395.63786,45.2983333 1400.75469,37.0361111 1410.485,41.6655556 C1413.84443,41.9761111 1420.51296,47.92 1421.09511,45.0455556 C1415.61716,39.5061111 1414.54696,22.3677778 1418.19747,18.2077778 C1419.37491,18.5833333 1435.83283,23.5016667 1439.66718,26.2388889 C1445.19765,30.5866667 1431.36381,36.5955556 1436.07357,40.3222222 C1436.27492,39.0005556 1439.33014,37.3611111 1440.60388,36.8338889 C1444.12964,37.9677778 1439.14193,40.9433333 1446.80624,40.3438889 C1448.08654,35.4255556 1462.39531,40.7627778 1450.43049,36.1838889 C1457.92628,34.7755556 1458.39682,37.195 1467.20137,36.9783333 C1464.39784,33.8005556 1475.10643,26.1522222 1482.61536,24.7511111 C1482.17327,26.0005556 1483.86064,27.6327778 1484.67697,28.3766667 C1500.045,28.8244444 1508.29366,31.0561111 1522.62431,31.0994444 C1523.944,32.2911111 1530.85765,33.7355556 1527.91404,35.8516667 C1529.97566,34.985 1531.86876,33.3166667 1536.28964,33.1938889 C1544.8425,37.4477778 1526.43458,33.8583333 1532.95428,38.9716667 C1533.51236,36.1116667 1544.3851,35.0211111 1550.67938,33.2372222 C1548.74251,28.8172222 1536.13425,32.3922222 1529.83121,34.1761111 C1529.80057,28.0805556 1540.77617,21.6961111 1555.75463,18.8794444 C1567.65818,17.37 1560.91524,22.8155556 1562.98124,21.9488889 C1585.3395,23.0177778 1582.03041,11.3105556 1600.59591,15.7088889 C1607.96258,19.5872222 1600.92857,23.4294444 1602.56123,26.2316667 C1592.86375,27.705 1587.67469,23.7688889 1581.10246,23.9205556 L1589.19355,25.7622222 C1586.10987,27.0477778 1579.63613,28.03 1576.10818,26.9033333 C1582.28428,30.3916667 1613.88262,27.575 1631.13499,30.7961111 C1634.19896,29.4961111 1639.4887,28.1455556 1636.98499,26.5855556 L1631.52674,27.1272222 C1626.51057,24 1641.79981,22.8011111 1634.89055,21.335 C1642.21345,19.1322222 1650.42052,15.6727778 1660.72861,17.4422222 L1662.66548,21.8766667 C1662.44444,20.5766667 1655.92692,19.2333333 1653.02928,20.5838889 C1657.3276,18.6194444 1668.83501,26.5783333 1673.54259,20.7788889 L1666.31818,17.7094444 C1673.66734,15.485 1682.7564,10.7833333 1691.88924,12.1844444 C1687.73318,7.80777778 1689.78385,12.6827778 1683.2926,7.56944444 C1688.91937,13.9322222 1659.92541,7.30222222 1668.96414,13.99 C1662.30437,8.05333333 1657.43703,11.4694444 1648.72877,6.40666667 C1649.00015,7.86555556 1651.81463,9.20166667 1644.14594,8.47944444 C1643.80015,8.90555556 1642.98163,9.44722222 1642.46294,9.765 C1642.22877,9.72888889 1642.1456,9.70722222 1641.94426,9.65666667 C1642.09964,9.71444444 1642.21345,9.77944444 1642.36883,9.83 C1642.03617,10.0538889 1642.00553,10.0972222 1642.52641,9.895 C1644.35166,10.5305556 1645.83332,11.2961111 1646.43298,12.1122222 C1642.62708,15.4705556 1630.43246,15.3622222 1626.30704,17.0955556 C1621.75704,16.4022222 1628.21108,15.42 1625.72707,13.86 L1619.56629,16.46 C1618.95569,13.21 1607.47891,11.0722222 1618.19626,9.16555556 L1608.54911,9.02111111 C1602.86982,7.20111111 1595.05449,6.47888889 1590.23749,7.84388889 C1585.68748,7.14333333 1578.7432,11.4333333 1582.70667,8.89833333 L1567.57501,10.9061111 L1567.43494,10.0972222 C1552.50682,9.68555556 1536.70327,15.4705556 1519.63474,9.61333333 C1514.60763,10.4294444 1509.4142,11.4333333 1501.00577,10.5088889 L1499.36655,7.70666667 C1492.91469,8.68166667 1479.9869,4.89722222 1477.21401,7.82222222 C1470.25222,0.267777778 1445.89361,6.17555556 1434.54596,4.83222222 L1434.11701,8.50111111 C1426.30387,8.29166667 1418.81245,9.33166667 1409.11716,10.7977778 L1409.71244,14.0405556 C1401.35217,16.6983333 1388.21866,11.7366667 1374.99323,12.0688889 C1375.89272,10.8266667 1379.24778,11.1516667 1381.62017,11.9027778 C1365.821,4.58666667 1348.28631,17.2255556 1333.95785,11.8955556 C1330.38831,13.0727778 1327.80144,12.6683333 1325.29774,11.8594444 C1325.6304,11.845 1325.92804,11.7872222 1326.1841,11.6861111 C1325.81861,11.65 1325.27585,11.6427778 1324.71777,11.65 C1323.14201,11.0938889 1321.51811,10.4438889 1319.75851,9.92388889 C1321.25329,10.7111111 1322.68461,11.3611111 1323.92989,11.6572222 C1321.17669,11.7222222 1317.00093,12.1266667 1312.90615,12.9355556 L1311.16406,9.46166667 C1310.8314,9.505 1310.56221,9.49777778 1310.21642,9.56277778 C1306.20042,8.27722222 1306.98611,11.2094444 1309.13089,13.8238889 C1307.06928,14.3944444 1305.18055,15.0805556 1303.71641,15.9183333 C1300.45328,10.3066667 1292.97499,17.8105556 1288.52128,11.8233333 C1285.76152,14.7411111 1267.94012,14.0188889 1265.75814,20.165 C1265.62026,19.3633333 1264.41217,18.9805556 1266.62261,18.93 C1262.05948,18.2294444 1257.49853,17.5361111 1253.40375,19.2622222 L1251.46907,14.8422222 L1241.50239,20.7861111 C1235.44885,18.0922222 1232.93858,16.525 1238.95054,13.1233333 C1224.43605,18.3594444 1227.17174,15.095 1214.8283,20.2805556 L1215.43015,17.4205556 C1211.01803,17.5361111 1203.96432,21.3638889 1201.30304,19.0022222 C1191.43266,13.5638889 1152.46328,18.2511111 1127.12639,13.1955556 C1132.03969,21.6166667 1115.34759,9.42555556 1114.34524,15.9472222 C1112.86796,13.9611111 1109.33782,12.8344444 1113.44136,11.1011111 C1100.5092,13.0583333 1094.01357,7.945 1085.08427,13.4483333 C1083.60481,11.4477778 1087.85279,10.5305556 1086.53528,9.34611111 C1085.49791,9.77944444 1082.42737,11.0794444 1081.08141,9.895 C1079.76609,8.70333333 1082.97451,8.21944444 1085.02299,7.35277778 C1071.81288,7.685 1070.47786,13.8238889 1069.51709,19.58 C1062.8223,16.8572222 1059.48257,17.24 1054.64806,21.0172222 C1052.31943,19.1322222 1048.43256,17.1605556 1056.63964,16.4888889 C1052.02179,16.2072222 1028.43356,13.7227778 1027.96302,18.3377778 C1026.51639,17.1677778 1021.50898,17.9983333 1020.29214,18.5327778 C1009.93153,18.2583333 1009.02109,17.8394444 998.846502,18.28 L1001.66755,19.0311111 C997.649363,24.5994444 993.210976,20.2733333 985.008277,20.945 L985.242452,20.3744444 C966.43621,16.3588889 977.122918,22.2955556 958.570548,17.7094444 L959.579471,21.1761111 C957.850514,28.6294444 943.141244,16.785 932.37356,19.6305556 L936.260432,21.6094444 C930.379788,24.1588889 919.822205,11.4766667 913.915298,10.545 C912.628429,9.895 915.948465,9.505 917.745267,9.02833333 C902.283135,4.63722222 915.742741,13.5638889 904.220005,14.6183333 C902.09492,12.17 906.957886,8.39277778 899.20384,7.93777778 C895.338854,5.95888889 876.709885,15.8894444 866.128228,11.195 C868.461226,13.08 870.774528,14.965 865.423514,16.3805556 C857.220814,17.0522222 843.24471,9.25222222 835.836456,15.1961111 C834.794705,14.6833333 834.400765,14.185 834.356994,13.7155556 C828.086787,15.2538889 813.97937,16.265 810.201927,19.4933333 C804.406636,7.52611111 771.217219,25.3072222 771.357287,14.2716667 L752.069563,14.8638889 L752.57293,13.7372222 C740.244807,13.0077778 735.885208,15.6511111 731.551872,18.3016667 C728.700186,17.5505556 730.781501,16.5177778 731.017865,15.94 C713.001691,13.7155556 711.211454,14.185 696.108245,19.6811111 L694.536863,16.1061111 C690.444268,18.1861111 668.493074,10.4872222 650.822691,14.6688889 C650.997776,14.2572222 651.363264,13.5638889 652.766127,13.0583333 C632.887494,17.2616667 605.176027,3.12777778 597.890331,16.1711111 L584.77214,19.3777778 C601.744374,20.3961111 582.246549,25.04 589.228036,27.2066667 C582.552947,27.965 571.97129,23.2705556 580.173989,22.5988889 L581.456481,23.2561111 C584.47012,16.46 560.367578,20.8438889 560.824986,16.2144444 C527.427656,16.5538889 494.877297,12.7911111 463.596299,12.5022222 L467.198658,17.7816667 L456.288718,17.4783333 C453.423901,16.2505556 452.443429,13.3472222 460.228114,13.5638889 C456.13333,10.5738889 447.173391,16.07 446.950159,17.2255556 C431.709071,15.0805556 452.905214,11.065 448.230463,10.935 L441.881469,11.3322222 L443.312783,11.9461111 C438.167493,14.1055556 437.712274,16.395 428.354018,16.135 C422.43398,15.0733333 425.318494,12.8777778 422.987684,12.6683333 C423.000816,12.2927778 422.215125,12.1194444 419.413776,12.5166667 L405.665282,12.0688889 L411.162929,16.2361111 C405.069995,18.2944444 398.235142,16.0194444 404.579759,20.7427778 C395.267463,13.4627778 353.297569,18.1283333 347.581066,15.8677778 C339.045707,18.9083333 330.621964,18.8577778 320.18694,18.4894444 C322.780376,19.3561111 324.334249,24.0433333 315.332727,23.4727778 C318.624312,13.795 298.852918,19.2694444 291.578166,12.3072222 C298.07817,16.9294444 265.989596,13.4483333 276.190444,20.0061111 C268.679328,19.2188889 275.733037,16.3805556 270.036231,14.1055556 C252.160125,17.8538889 230.642265,11.6716667 208.546626,12.9355556 C208.203023,14.2066667 211.903868,16.1494444 207.16346,18.0344444 L195.498469,11.6861111 C191.134493,12.3072222 191.482473,19.0166667 183.507383,14.6111111 C184.634489,15.68 186.315298,17.2905556 183.389201,17.695 C140.103986,11.5055556 94.9388033,22.765 50.9817021,11.1372222 C56.9367567,13.6 52.9689089,13.8383333 48.4210942,13.9322222 C51.3778303,14.5244444 48.3554376,17.0738889 48.9354044,18.7927778 L30.5318562,14.0116667 C27.1789919,18.7855556 10.8020445,14.3366667 8.88049439,18.9011111 L14.7086129,18.0777778 C6.95675567,23.4727778 25.5528965,30.0594444 24.4192257,36.9783333 C33.0968412,30.8538889 47.3005547,46.0566667 61.5392852,37.2816667 C64.6820483,38.6972222 58.8583069,39.5133333 60.5391161,41.1166667 C64.1502298,38.1555556 68.5076402,37.5344444 76.5834034,38.8633333 L75.6707765,39.6 C98.3617013,38.8777778 108.092011,41.7955556 133.582096,43.7455556 L131.695563,40.3222222 C137.173513,40.7844444 138.326881,41.8533333 140.891866,42.7127778 C147.177392,37.5272222 125.506333,42.4166667 131.233778,36.6966667 C138.499776,43.6588889 169.861751,36.805 174.772866,44.7133333 C183.200986,44.7566667 172.304177,40.7555556 180.72792,40.7988889 L182.960245,42.9438889 L185.089708,40.185 C190.615806,40.64 193.401835,43.3122222 193.609747,45.125 C192.268164,44.9155556 189.799475,45.6377778 188.361596,45.7894444 C195.52692,48.31 208.564135,44.93 211.024069,45.7533333 L202.92642,44.4316667 C225.923743,42.4311111 254.005075,45.2405556 276.223273,40.8855556 L274.538086,39.275 C291.503755,36.285 288.126816,41.0444444 306.755786,39.665 L306.079522,40.0477778 C309.806629,38.4444444 314.785589,37.6283333 319.884919,37.8161111 C315.179529,39.7011111 328.73543,41.4922222 322.565898,43.5794444 C340.96288,40.3727778 331.665904,41.0588889 343.816754,35.0644444 L346.620291,37.7366667 C350.761035,35.3172222 351.106826,34.0388889 360.410368,33.3455556 C352.78107,35.6422222 366.350103,37.4261111 357.801612,40.4666667 C377.323511,46.3238889 386.791195,34.5516667 395.748945,43.1172222 C404.713261,35.7072222 378.85331,39.0005556 383.873853,37.4188889 C379.669641,34.9922222 391.273353,31.8722222 397.401303,32.6233333 C403.638681,32.7822222 408.007034,42.0988889 423.694587,41.9616667 C422.134148,41.9255556 422.026909,42.4888889 420.470848,42.4527778 C426.340549,44.345 431.973886,39.8961111 439.176416,42.9655556 C443.212109,38.4805556 448.528106,43.2255556 449.690228,37.5055556 L435.298299,38.8272222 C443.457227,37.3322222 451.108411,30.6444444 464.548319,33.8872222 C463.500002,35.0427778 459.501515,36.5594444 456.75488,37.4044444 C460.685522,39.0872222 464.322898,36.285 468.395797,38.0183333 C467.233675,43.7383333 450.907064,39.2605556 442.165981,43.6227778 C446.383324,46.0422222 458.700504,39.4844444 454.308077,45.6811111 C460.622054,37.8016667 469.765831,46.6705556 480.389071,40.6544444 L479.688734,44.085 C481.369543,43.5433333 484.853721,41.9255556 487.948336,42.0122222 L482.345638,46.4611111 C490.946654,42.6694444 498.92831,49.7761111 507.179157,47.7105556 C489.904903,47.8116667 503.30104,43.5794444 495.997836,41.0805556 C517.303407,36.4944444 508.24936,50.0433333 532.104595,48.4038889 C528.87429,48.8805556 519.980008,46.3383333 525.03119,44.7566667 C529.57025,45.4572222 535.569076,46.7716667 538.355105,48.57 C554.16084,47.8622222 535.927999,45.0455556 542.655613,42.9438889 C548.037266,47.1183333 550.416224,41.2394444 557.345185,39.9033333 L557.393333,43.3916667 C575.402942,45.6233333 562.168758,36.1261111 578.381563,38.8272222 L571.529202,43.6588889 L579.983585,42.4094444 L578.239307,46.3744444 C587.433422,43.435 590.298238,44.1933333 599.308514,45.3055556 C597.214068,42.85 600.485956,38.9861111 608.463234,38.8777778 C613.90179,40.9433333 605.414579,42.1855556 616.722836,41.6872222 C614.170982,43.8683333 611.374011,46.6055556 606.451953,43.3988889 C605.948586,44.5327778 603.935117,45.58 603.416429,46.7066667 C609.275188,49.0827778 618.13883,47.2483333 622.233614,47.2122222 C620.657855,47.0822222 618.773511,46.8944444 617.80617,46.4033333 L634.198437,41.5716667 C636.778742,42.8788889 634.732444,43.9333333 632.703655,44.9588889 C636.02588,44.5833333 638.321672,42.9872222 643.202147,42.6838889 C641.939352,45.515 642.241372,48.44 635.332108,49.7761111 L650.949627,46.6272222 C651.993567,47.8622222 658.964111,50.0144444 656.93751,51.0544444 C665.595429,52.7227778 678.175235,45.5583333 689.6542,47.7611111 C690.249486,47.205 691.446625,46.685 693.886863,46.2805556 C704.674244,46.9161111 714.233846,50.39 727.019377,46.5116667 L734.274433,51.5888889 C744.289254,50.4333333 724.454392,45.19 741.128983,43.2761111 C752.934042,41.6583333 745.534542,47.6094444 749.675285,49.0177778 C755.547175,46.4611111 765.754589,41.2538889 776.598873,45.385 C773.009645,46.3383333 770.195165,45.5872222 766.840112,45.97" id="Fill-116" fill="#FEFEFE"></path>
                    <path d="M1056.80619,40.0954444 C1056.12993,39.5104444 1055.94171,38.8604444 1055.78195,38.2032222 C1054.84087,38.7882222 1054.82336,39.4671111 1056.80619,40.0954444" id="Fill-118" fill="#FEFEFE"></path>
                    <path d="M690.029755,47.7972222 C689.902819,47.7683333 689.78026,47.7827778 689.653324,47.7611111 C689.4476,47.9633333 689.335984,48.18 689.276893,48.3894444 L690.029755,47.7972222 Z" id="Fill-120" fill="#FEFEFE"></path>
                    <path d="M1440.47344,42.1234444 C1438.19297,41.6251111 1436.91923,40.9823333 1436.07226,40.3251111 C1435.94751,41.1773333 1436.98489,41.8995556 1440.47344,42.1234444" id="Fill-122" fill="#FEFEFE"></path>
                    <path d="M1670.9288,6.66088889 L1663.82695,7.56366667 C1667.26298,7.39755556 1668.48857,8.15588889 1670.2219,8.712 C1670.06433,7.89588889 1668.70961,6.71866667 1670.9288,6.66088889" id="Fill-124" fill="#FEFEFE"></path>
                    <path d="M1732.56066,28.2221111 C1733.59804,27.796 1734.76016,28.1787778 1735.7844,27.7454444 L1735.50208,26.1204444 C1731.0812,26.2287778 1727.99096,27.536 1732.56066,28.2221111" id="Fill-126" fill="#FEFEFE"></path>
                    <path d="M1677.50256,18.2381111 C1678.06502,21.1703333 1682.51873,20.1736667 1687.49331,19.632 C1687.19348,19.6392222 1686.91116,19.6681111 1686.61351,19.632 C1688.07984,15.5297778 1682.77917,16.8875556 1677.50256,18.2381111" id="Fill-128" fill="#FEFEFE"></path>
                    <path d="M1688.64624,19.5323333 C1690.18042,19.3951111 1691.74523,19.3156667 1693.24439,19.4601111 C1693.82655,17.8134444 1691.37974,19.1134444 1688.64624,19.5323333" id="Fill-130" fill="#FEFEFE"></path>
                    <path d="M1626.24685,10.6388889 C1628.60393,11.39 1627.72632,6.89055556 1629.06133,8.08222222 C1631.69416,4.35555556 1613.33658,12.5961111 1626.24685,10.6388889" id="Fill-132" fill="#FEFEFE"></path>
                    <polygon id="Fill-134" fill="#FEFEFE" points="1681.52928 27.8942222 1679.74561 24.2758889 1676.95958 27.1936667"></polygon>
                    <path d="M1642.25612,25.2386111 L1650.20276,26.2425 C1650.08458,25.6358333 1651.0935,25.2747222 1652.33223,25.0075 C1647.43643,24.8847222 1642.0701,24.1697222 1642.25612,25.2386111" id="Fill-136" fill="#FEFEFE"></path>
                    <path d="M1652.3331,25.0060556 C1654.88495,25.0782778 1657.30987,24.9988333 1658.73024,24.4066111 C1657.34927,24.4427222 1654.3794,24.5655 1652.3331,25.0060556" id="Fill-138" fill="#FEFEFE"></path>
                    <polygon id="Fill-140" fill="#FEFEFE" points="1670.66508 28.9804444 1668.31458 28.2293333 1662.70312 27.9621111"></polygon>
                    <path d="M1556.8209,24.5402222 L1548.14766,25.5802222 C1547.26348,26.8152222 1549.62712,27.5735556 1552.85743,27.0824444 C1554.93436,26.2157778 1558.15154,25.7391111 1556.8209,24.5402222" id="Fill-142" fill="#FEFEFE"></path>
                    <path d="M1583.0529,34.4498333 C1580.70677,33.6987222 1580.5492,32.8898333 1579.22731,31.6981667 L1578.96249,36.1831667 L1583.0529,34.4498333 Z" id="Fill-144" fill="#FEFEFE"></path>
                    <path d="M1557.75782,35.4970556 C1556.89334,36.7392778 1545.16926,39.0720556 1556.16455,38.7903889 C1557.04435,37.5553889 1565.73072,36.5226111 1557.75782,35.4970556" id="Fill-146" fill="#FEFEFE"></path>
                    <polygon id="Fill-148" fill="#FEFEFE" points="1427.06198 29.8232778 1429.26805 29.7655 1428.95071 22.4132778"></polygon>
                    <path d="M1311.86987,47.4202222 C1322.14732,49.1824444 1314.31011,42.8846667 1323.59833,45.0802222 C1326.0123,43.3468889 1316.00623,43.2891111 1318.48149,41.7868889 C1312.27694,43.6213333 1309.02037,42.5813333 1311.86987,47.4202222" id="Fill-150" fill="#FEFEFE"></path>
                    <path d="M1318.48105,41.7847222 C1319.47465,41.4958333 1320.52735,41.1419444 1321.64789,40.6652778 C1319.85109,41.1275 1319.00412,41.4813889 1318.48105,41.7847222" id="Fill-152" fill="#FEFEFE"></path>
                    <polygon id="Fill-154" fill="#FEFEFE" points="18.2155514 10.2228889 11.6039306 8.69177778 15.8716104 11.1617778"></polygon>
                    <path d="M5.52675468,15.6785556 L3.97069299,10.9913333 L0.000656566113,15.2307778 C1.4932502,15.0285556 4.39089531,14.6241111 5.52675468,15.6785556" id="Fill-156" fill="#FEFEFE"></path>
                    <g id="Group-160" transform="translate(903.512502, 49.555556)">
                        <mask id="mask-2" fill="white">
                            <use xlink:href="#path-1"></use>
                        </mask>
                        <g id="Clip-159"></g>
                        <path d="M5.1951326,3.60561111 L5.69849995,2.47894444 C4.67644537,1.25838889 3.1291379,1.1645 0.0279572927,0.976722222 L5.1951326,3.60561111 Z" id="Fill-158" fill="#FEFEFE" mask="url(#mask-2)"></path>
                    </g>
                    <polygon id="Fill-161" fill="#FEFEFE" points="819.066444 49.6526111 820.609375 49.7465 817.72705 45.5070556"></polygon>
                    <g id="Group-165" transform="translate(742.880690, 52.555556)">
                        <mask id="mask-4" fill="white">
                            <use xlink:href="#path-3"></use>
                        </mask>
                        <g id="Clip-164"></g>
                        <path d="M0.951594427,2.50288889 C4.02213528,2.67622222 7.63106035,1.73733333 10.7147325,1.91066667 C4.02213528,2.67622222 0.122132572,-2.78377778 0.951594427,2.50288889" id="Fill-163" fill="#FEFEFE" mask="url(#mask-4)"></path>
                    </g>
                </g>
            </g>
        </g>
    </g>
</svg>