<?xml version="1.0" encoding="UTF-8"?>
<svg width="18px" height="18px" viewBox="0 0 18 18" version="1.1" xmlns="http://www.w3.org/2000/svg" xmlns:xlink="http://www.w3.org/1999/xlink">
    <!-- Generator: Sketch 49.1 (51147) - http://www.bohemiancoding.com/sketch -->
    <title>Group 5</title>
    <desc>Created with Sketch.</desc>
    <defs></defs>
    <g id="//Booking-A-Property" stroke="none" stroke-width="1" fill="none" fill-rule="evenodd">
        <g id="Listing-Profile" transform="translate(-554.000000, -1872.000000)">
            <g id="Group-5" transform="translate(555.000000, 1873.000000)">
                <g id="Icon/Save">
                    <g id="Group" transform="translate(-1.000000, -1.000000)">
                        <circle id="Oval" stroke="#D6DDBB" stroke-width="1.1" fill="#54B3AF" cx="9" cy="9" r="7.875"></circle>
                        <path d="M16.03125,8.76018579 C16.03125,4.87988449 12.8833829,1.73406943 9,1.73406943 C5.11661713,1.73406943 1.96875,4.87988449 1.96875,8.76018579 C1.96875,12.6404871 5.11661713,15.7863022 9,15.7863022 C12.8833829,15.7863022 16.03125,12.6404871 16.03125,8.76018579 Z M17.71875,8.76018579 C17.71875,13.572714 13.8151171,17.4738022 9,17.4738022 C4.18488287,17.4738022 0.28125,13.572714 0.28125,8.76018579 C0.28125,3.94765755 4.18488287,0.0465694263 9,0.0465694263 C13.8151171,0.0465694263 17.71875,3.94765755 17.71875,8.76018579 Z M6.22142679,8.16336994 C5.8918145,7.83397253 5.35758157,7.83414671 5.02818416,8.163759 C4.69878674,8.49337129 4.69896093,9.02760421 5.02857321,9.35700163 L7.27857321,11.6055349 C7.57543401,11.9022022 8.04520972,11.935585 8.38103871,11.6838774 L12.8810387,8.31107758 C13.2539184,8.03160012 13.3296359,7.50276015 13.0501584,7.12988045 C12.7706809,6.75700076 12.241841,6.68128329 11.8689613,6.96076075 L7.95414519,9.8949588 L6.22142679,8.16336994 Z" id="Combined-Shape" fill="#FFFFFF" fill-rule="nonzero"></path>
                    </g>
                </g>
            </g>
        </g>
    </g>
</svg>