<?xml version="1.0" encoding="UTF-8"?>
<svg width="10px" height="7px" viewBox="0 0 10 7" version="1.1" xmlns="http://www.w3.org/2000/svg" xmlns:xlink="http://www.w3.org/1999/xlink">
    <!-- Generator: Sketch 49.1 (51147) - http://www.bohemiancoding.com/sketch -->
    <title>Chevron</title>
    <desc>Created with Sketch.</desc>
    <defs></defs>
    <g id="hover" stroke="none" stroke-width="1" fill="none" fill-rule="evenodd">
        <g id="Mobile-Nav" transform="translate(-202.000000, -98.000000)" fill="#937154">
            <path d="M207,104.666667 C206.715019,104.666667 206.446755,104.544214 206.245358,104.322925 L202.31135,100.002099 C201.895819,99.5437768 201.896615,98.7994402 202.31135,98.3437418 C202.512747,98.1224525 202.781011,98 203.066787,98 C203.350972,98 203.619236,98.1224525 203.820633,98.3437418 L207,101.836263 L210.17857,98.3437418 C210.379967,98.1224525 210.648231,98 210.933212,98 C211.218193,98 211.485661,98.1224525 211.687854,98.3428671 C212.103384,98.7994402 212.104181,99.5437768 211.689446,100.001225 L207.753846,104.322925 C207.552448,104.544214 207.284184,104.666667 207,104.666667" id="Chevron"></path>
        </g>
    </g>
</svg>