<?xml version="1.0" encoding="UTF-8"?>
<svg width="210px" height="81px" viewBox="0 0 210 81" version="1.1" xmlns="http://www.w3.org/2000/svg" xmlns:xlink="http://www.w3.org/1999/xlink">
    <!-- Generator: Sketch 49.1 (51147) - http://www.bohemiancoding.com/sketch -->
    <title>Group 3</title>
    <desc>Created with Sketch.</desc>
    <defs></defs>
    <g id="Symbols" stroke="none" stroke-width="1" fill="none" fill-rule="evenodd" opacity="0.324388587">
        <g id="Footer" transform="translate(-850.000000, -30.000000)" fill="#000000">
            <g id="Group-3" transform="translate(850.000000, 30.000000)">
                <g id="united-states-of-america-copy-2" transform="translate(93.000000, 0.000000)" fill-rule="nonzero">
                    <path d="M37.0732811,0 L20.7610706,0 L4.44876788,0 L0.926811254,0 C0.414890903,0 0,0.41271875 0,0.921548828 L0,46.0784512 C0,46.587373 0.414983224,47 0.926811254,47 L4.44876788,47 C4.96068823,47 5.37557913,46.5872813 5.37557913,46.0784512 L5.37557913,21.0117539 L37.0731887,21.0117539 C37.5851091,21.0117539 38,20.5990352 38,20.0902051 L38,0.921548828 C38.0000923,0.41271875 37.5851091,0 37.0732811,0 Z M3.52195662,12.4227793 L3.52195662,20.0902051 L3.52195662,45.1569023 L1.85371483,45.1569023 L1.85371483,1.84309766 L3.52204894,1.84309766 L3.52204894,12.4227793 L3.52195662,12.4227793 Z M5.37567145,1.84309766 L19.8342594,1.84309766 L19.8342594,11.5011387 L5.37567145,11.5011387 L5.37567145,1.84309766 Z M36.1464698,19.1686562 L5.37567145,19.1686562 L5.37567145,17.178041 L31.4196308,17.178041 C31.9315512,17.178041 32.3464421,16.7653223 32.3464421,16.2564922 C32.3464421,15.7475703 31.9314589,15.3349434 31.4196308,15.3349434 L5.37567145,15.3349434 L5.37567145,13.3443281 L20.7610706,13.3443281 L36.1464698,13.3443281 L36.1464698,19.1686562 Z M36.1464698,11.5011387 L21.6878819,11.5011387 L21.6878819,9.51052344 L36.1464698,9.51052344 L36.1464698,11.5011387 Z M36.1464698,7.66742578 L21.6878819,7.66742578 L21.6878819,5.67690234 L36.1464698,5.67690234 L36.1464698,7.66742578 Z M36.1464698,3.83371289 L21.6878819,3.83371289 L21.6878819,1.84309766 L36.1464698,1.84309766 L36.1464698,3.83371289 Z" id="Shape"></path>
                    <path d="M7.50001933,3 C6.83386837,3 6.83278562,4 7.50001933,4 C8.16611874,4 8.16720149,3 7.50001933,3 Z" id="Shape"></path>
                    <path d="M10.4999903,3 C9.83390382,3 9.83276953,4 10.4999903,4 C11.1661284,4 11.1672111,3 10.4999903,3 Z" id="Shape"></path>
                    <path d="M13.4999903,3 C12.8339038,3 12.8327695,4 13.4999903,4 C14.1661284,4 14.1672111,3 13.4999903,3 Z" id="Shape"></path>
                    <path d="M16.5,3 C15.8339264,3 15.8327405,4 16.5,4 C17.1661252,4 17.1672079,3 16.5,3 Z" id="Shape"></path>
                    <path d="M7.50001933,5 C6.83386837,5 6.83278562,6 7.50001933,6 C8.16611874,6 8.16720149,5 7.50001933,5 Z" id="Shape"></path>
                    <path d="M10.4999903,5 C9.83390382,5 9.83276953,6 10.4999903,6 C11.1661284,6 11.1672111,5 10.4999903,5 Z" id="Shape"></path>
                    <path d="M13.4999903,5 C12.8339038,5 12.8327695,6 13.4999903,6 C14.1661284,6 14.1672111,5 13.4999903,5 Z" id="Shape"></path>
                    <path d="M16.5,5 C15.8339264,5 15.8327405,6 16.5,6 C17.1661252,6 17.1672079,5 16.5,5 Z" id="Shape"></path>
                    <path d="M7.50001933,9 C6.83386837,9 6.83278562,10 7.50001933,10 C8.16611874,10 8.16720149,9 7.50001933,9 Z" id="Shape"></path>
                    <path d="M10.4999903,9 C9.83390382,9 9.83276953,10 10.4999903,10 C11.1661284,10 11.1672111,9 10.4999903,9 Z" id="Shape"></path>
                    <path d="M13.4999903,9 C12.8339038,9 12.8327695,10 13.4999903,10 C14.1661284,10 14.1672111,9 13.4999903,9 Z" id="Shape"></path>
                    <path d="M16.5,9 C15.8339264,9 15.8327405,10 16.5,10 C17.1661252,10 17.1672079,9 16.5,9 Z" id="Shape"></path>
                    <path d="M33.4999903,15 C32.8339038,15 32.8327695,16 33.4999903,16 C34.1661284,16 34.1672111,15 33.4999903,15 Z" id="Shape"></path>
                </g>
                <text id="VETERAN-OWNED-BUSINE" font-family="Quicksand-Bold, Quicksand" font-size="14" font-weight="bold" letter-spacing="1.01">
                    <tspan x="0" y="80">VETERAN OWNED BUSINESS</tspan>
                </text>
            </g>
        </g>
    </g>
</svg>