<?xml version="1.0" encoding="UTF-8"?>
<svg width="210px" height="81px" viewBox="0 0 210 81" version="1.1" xmlns="http://www.w3.org/2000/svg" xmlns:xlink="http://www.w3.org/1999/xlink">
    <!-- Generator: Sketch 49.1 (51147) - http://www.bohemiancoding.com/sketch -->
    <title>Group 11</title>
    <desc>Created with Sketch.</desc>
    <defs></defs>
    <g id="Symbols" stroke="none" stroke-width="1" fill="none" fill-rule="evenodd" opacity="0.324388587">
        <g id="Group-11" fill="#000000">
            <g id="united-states-of-america-copy-2" transform="translate(93.000000, 0.000000)" fill-rule="nonzero">
                <path d="M37.0732811,0 L20.7610706,0 L4.44876788,0 L0.926811254,0 C0.414890903,0 0,0.41271875 0,0.921548828 L0,46.0784512 C0,46.587373 0.414983224,47 0.926811254,47 L4.44876788,47 C4.96068823,47 5.37557913,46.5872813 5.37557913,46.0784512 L5.37557913,21.0117539 L37.0731887,21.0117539 C37.5851091,21.0117539 38,20.5990352 38,20.0902051 L38,0.921548828 C38.0000923,0.41271875 37.5851091,0 37.0732811,0 Z M3.52195662,12.4227793 L3.52195662,20.0902051 L3.52195662,45.1569023 L1.85371483,45.1569023 L1.85371483,1.84309766 L3.52204894,1.84309766 L3.52204894,12.4227793 L3.52195662,12.4227793 Z M5.37567145,1.84309766 L19.8342594,1.84309766 L19.8342594,11.5011387 L5.37567145,11.5011387 L5.37567145,1.84309766 Z M36.1464698,19.1686562 L5.37567145,19.1686562 L5.37567145,17.178041 L31.4196308,17.178041 C31.9315512,17.178041 32.3464421,16.7653223 32.3464421,16.2564922 C32.3464421,15.7475703 31.9314589,15.3349434 31.4196308,15.3349434 L5.37567145,15.3349434 L5.37567145,13.3443281 L20.7610706,13.3443281 L36.1464698,13.3443281 L36.1464698,19.1686562 Z M36.1464698,11.5011387 L21.6878819,11.5011387 L21.6878819,9.51052344 L36.1464698,9.51052344 L36.1464698,11.5011387 Z M36.1464698,7.66742578 L21.6878819,7.66742578 L21.6878819,5.67690234 L36.1464698,5.67690234 L36.1464698,7.66742578 Z M36.1464698,3.83371289 L21.6878819,3.83371289 L21.6878819,1.84309766 L36.1464698,1.84309766 L36.1464698,3.83371289 Z" id="Shape"></path>
                <path d="M7.50001933,3 C6.83386837,3 6.83278562,4 7.50001933,4 C8.16611874,4 8.16720149,3 7.50001933,3 Z" id="Shape"></path>
                <path d="M10.4999903,3 C9.83390382,3 9.83276953,4 10.4999903,4 C11.1661284,4 11.1672111,3 10.4999903,3 Z" id="Shape"></path>
                <path d="M13.4999903,3 C12.8339038,3 12.8327695,4 13.4999903,4 C14.1661284,4 14.1672111,3 13.4999903,3 Z" id="Shape"></path>
                <path d="M16.5,3 C15.8339264,3 15.8327405,4 16.5,4 C17.1661252,4 17.1672079,3 16.5,3 Z" id="Shape"></path>
                <path d="M7.50001933,5 C6.83386837,5 6.83278562,6 7.50001933,6 C8.16611874,6 8.16720149,5 7.50001933,5 Z" id="Shape"></path>
                <path d="M10.4999903,5 C9.83390382,5 9.83276953,6 10.4999903,6 C11.1661284,6 11.1672111,5 10.4999903,5 Z" id="Shape"></path>
                <path d="M13.4999903,5 C12.8339038,5 12.8327695,6 13.4999903,6 C14.1661284,6 14.1672111,5 13.4999903,5 Z" id="Shape"></path>
                <path d="M16.5,5 C15.8339264,5 15.8327405,6 16.5,6 C17.1661252,6 17.1672079,5 16.5,5 Z" id="Shape"></path>
                <path d="M7.50001933,9 C6.83386837,9 6.83278562,10 7.50001933,10 C8.16611874,10 8.16720149,9 7.50001933,9 Z" id="Shape"></path>
                <path d="M10.4999903,9 C9.83390382,9 9.83276953,10 10.4999903,10 C11.1661284,10 11.1672111,9 10.4999903,9 Z" id="Shape"></path>
                <path d="M13.4999903,9 C12.8339038,9 12.8327695,10 13.4999903,10 C14.1661284,10 14.1672111,9 13.4999903,9 Z" id="Shape"></path>
                <path d="M16.5,9 C15.8339264,9 15.8327405,10 16.5,10 C17.1661252,10 17.1672079,9 16.5,9 Z" id="Shape"></path>
                <path d="M33.4999903,15 C32.8339038,15 32.8327695,16 33.4999903,16 C34.1661284,16 34.1672111,15 33.4999903,15 Z" id="Shape"></path>
            </g>
            <path d="M8.204,70.172 C8.4373345,70.172 8.64033247,70.2513325 8.813,70.41 C8.98566753,70.5686675 9.072,70.7599989 9.072,70.984 C9.072,71.1053339 9.04400028,71.2313327 8.988,71.362 L5.53,79.454 C5.44599958,79.6313342 5.32933408,79.7666662 5.18,79.86 C5.03066592,79.9533338 4.87200084,80 4.704,80 C4.54533254,79.9906666 4.39833401,79.9416671 4.263,79.853 C4.12766599,79.7643329 4.02266704,79.6360008 3.948,79.468 L0.49,71.348 C0.4433331,71.2546662 0.42,71.1380007 0.42,70.998 C0.42,70.7459987 0.5133324,70.5430008 0.7,70.389 C0.8866676,70.2349992 1.07799902,70.158 1.274,70.158 C1.43266746,70.158 1.5819993,70.2046662 1.722,70.298 C1.8620007,70.3913338 1.96933296,70.5266658 2.044,70.704 L4.858,77.326 L7.434,70.704 C7.50866704,70.5359992 7.6159993,70.4053338 7.756,70.312 C7.8960007,70.2186662 8.04533254,70.172 8.204,70.172 Z M17.096,78.39 C17.3386679,78.39 17.5416658,78.4716659 17.705,78.635 C17.8683342,78.7983342 17.95,78.9873323 17.95,79.202 C17.95,79.4353345 17.8683342,79.6266659 17.705,79.776 C17.5416658,79.9253341 17.3386679,80 17.096,80 L12.406,80 C12.1633321,80 11.9603342,79.9183342 11.797,79.755 C11.6336658,79.5916659 11.552,79.3886679 11.552,79.146 L11.552,71.054 C11.552,70.8113321 11.6336658,70.6083342 11.797,70.445 C11.9603342,70.2816659 12.1633321,70.2 12.406,70.2 L17.096,70.2 C17.3386679,70.2 17.5416658,70.2769992 17.705,70.431 C17.8683342,70.5850008 17.95,70.7833321 17.95,71.026 C17.95,71.2593345 17.8706675,71.4483326 17.712,71.593 C17.5533325,71.7376674 17.3480013,71.81 17.096,71.81 L13.302,71.81 L13.302,74.19 L16.466,74.19 C16.7086679,74.19 16.9116659,74.2669992 17.075,74.421 C17.2383341,74.5750008 17.32,74.7733321 17.32,75.016 C17.32,75.2493345 17.2406675,75.4383326 17.082,75.583 C16.9233325,75.7276674 16.7180013,75.8 16.466,75.8 L13.302,75.8 L13.302,78.39 L17.096,78.39 Z M27.01,70.2 C27.2620013,70.2 27.4673325,70.2746659 27.626,70.424 C27.7846675,70.5733341 27.864,70.7693321 27.864,71.012 C27.864,71.2546679 27.7846675,71.4483326 27.626,71.593 C27.4673325,71.7376674 27.2620013,71.81 27.01,71.81 L24.812,71.81 L24.812,79.146 C24.812,79.3886679 24.7233342,79.5916659 24.546,79.755 C24.3686658,79.9183342 24.1493346,80 23.888,80 C23.6266654,80 23.4120008,79.9183342 23.244,79.755 C23.0759992,79.5916659 22.992,79.3886679 22.992,79.146 L22.992,71.81 L20.794,71.81 C20.5419987,71.81 20.3366675,71.7353341 20.178,71.586 C20.0193325,71.4366659 19.94,71.2406679 19.94,70.998 C19.94,70.7646655 20.0216658,70.5733341 20.185,70.424 C20.3483342,70.2746659 20.5513321,70.2 20.794,70.2 L27.01,70.2 Z M35.888,78.39 C36.1306679,78.39 36.3336659,78.4716659 36.497,78.635 C36.6603341,78.7983342 36.742,78.9873323 36.742,79.202 C36.742,79.4353345 36.6603341,79.6266659 36.497,79.776 C36.3336659,79.9253341 36.1306679,80 35.888,80 L31.198,80 C30.9553321,80 30.7523342,79.9183342 30.589,79.755 C30.4256658,79.5916659 30.344,79.3886679 30.344,79.146 L30.344,71.054 C30.344,70.8113321 30.4256658,70.6083342 30.589,70.445 C30.7523342,70.2816659 30.9553321,70.2 31.198,70.2 L35.888,70.2 C36.1306679,70.2 36.3336659,70.2769992 36.497,70.431 C36.6603341,70.5850008 36.742,70.7833321 36.742,71.026 C36.742,71.2593345 36.6626675,71.4483326 36.504,71.593 C36.3453325,71.7376674 36.1400013,71.81 35.888,71.81 L32.094,71.81 L32.094,74.19 L35.258,74.19 C35.5006679,74.19 35.7036659,74.2669992 35.867,74.421 C36.0303341,74.5750008 36.112,74.7733321 36.112,75.016 C36.112,75.2493345 36.0326675,75.4383326 35.874,75.583 C35.7153325,75.7276674 35.5100013,75.8 35.258,75.8 L32.094,75.8 L32.094,78.39 L35.888,78.39 Z M47.048,78.628 C47.1693339,78.702667 47.2649996,78.8006661 47.335,78.922 C47.4050004,79.0433339 47.44,79.1693327 47.44,79.3 C47.44,79.4680008 47.3840006,79.6219993 47.272,79.762 C47.1319993,79.9300008 46.9173348,80.014 46.628,80.014 C46.4039989,80.014 46.1986676,79.9626672 46.012,79.86 C45.3399966,79.4773314 45.004,78.6980059 45.004,77.522 C45.004,77.1859983 44.8943344,76.920001 44.675,76.724 C44.4556656,76.527999 44.1406687,76.43 43.73,76.43 L41.112,76.43 L41.112,79.146 C41.112,79.3980013 41.044334,79.6033325 40.909,79.762 C40.773666,79.9206675 40.5940011,80 40.37,80 C40.099332,80 39.8636677,79.9183342 39.663,79.755 C39.4623323,79.5916659 39.362,79.3886679 39.362,79.146 L39.362,71.054 C39.362,70.8113321 39.4436658,70.6083342 39.607,70.445 C39.7703342,70.2816659 39.9733321,70.2 40.216,70.2 L44.248,70.2 C44.7333358,70.2 45.1906645,70.3306654 45.62,70.592 C46.0493355,70.8533346 46.392332,71.2126644 46.649,71.67 C46.9056679,72.1273356 47.034,72.6406638 47.034,73.21 C47.034,73.676669 46.9080013,74.1316645 46.656,74.575 C46.4039987,75.0183356 46.0773353,75.3706654 45.676,75.632 C46.2640029,76.0426687 46.5859997,76.5933299 46.642,77.284 C46.6700001,77.4333341 46.684,77.5779993 46.684,77.718 C46.7213335,78.0073348 46.7586665,78.2149994 46.796,78.341 C46.8333335,78.4670006 46.9173327,78.5626663 47.048,78.628 Z M44.178,74.988 C44.3460008,74.988 44.5093325,74.9086675 44.668,74.75 C44.8266675,74.5913325 44.9573328,74.3790013 45.06,74.113 C45.1626672,73.8469987 45.214,73.5600015 45.214,73.252 C45.214,72.9906654 45.1626672,72.7503344 45.06,72.531 C44.9573328,72.3116656 44.8266675,72.1366673 44.668,72.006 C44.5093325,71.8753327 44.3460008,71.81 44.178,71.81 L41.112,71.81 L41.112,74.988 L44.178,74.988 Z M57.676,78.908 C57.7226669,79.0293339 57.746,79.1413328 57.746,79.244 C57.746,79.4866679 57.6666675,79.6849992 57.508,79.839 C57.3493325,79.9930008 57.1673344,80.07 56.962,80.07 C56.7939992,80.07 56.642334,80.0186672 56.507,79.916 C56.371666,79.8133328 56.266667,79.6733342 56.192,79.496 L55.464,77.802 L51.292,77.802 L50.564,79.51 C50.4986663,79.6873342 50.398334,79.8249995 50.263,79.923 C50.127666,80.0210005 49.9806675,80.07 49.822,80.07 C49.5793321,80.07 49.3950006,80.0046673 49.269,79.874 C49.1429994,79.7433327 49.08,79.5660011 49.08,79.342 C49.08,79.2579996 49.0939999,79.1693338 49.122,79.076 L52.608,70.704 C52.682667,70.5173324 52.7946659,70.3726672 52.944,70.27 C53.0933341,70.1673328 53.2613324,70.1253332 53.448,70.144 C53.6160008,70.144 53.7723326,70.1929995 53.917,70.291 C54.0616674,70.3890005 54.1666663,70.5266658 54.232,70.704 L57.676,78.908 Z M51.978,76.192 L54.778,76.192 L53.364,72.916 L51.978,76.192 Z M67.38,70.2 C67.6040011,70.2 67.7859993,70.2746659 67.926,70.424 C68.0660007,70.5733341 68.136,70.7599989 68.136,70.984 L68.136,79.146 C68.136,79.3886679 68.0543342,79.5916659 67.891,79.755 C67.7276658,79.9183342 67.5246679,80 67.282,80 C67.1513327,80 67.0230006,79.9790002 66.897,79.937 C66.7709994,79.8949998 66.6800003,79.836667 66.624,79.762 L61.486,73.238 L61.486,79.216 C61.486,79.4400011 61.4136674,79.6266659 61.269,79.776 C61.1243326,79.9253341 60.9353345,80 60.702,80 C60.4779989,80 60.2960007,79.9253341 60.156,79.776 C60.0159993,79.6266659 59.946,79.4400011 59.946,79.216 L59.946,71.054 C59.946,70.8113321 60.0276659,70.6083342 60.191,70.445 C60.3543341,70.2816659 60.5573321,70.2 60.8,70.2 C60.9400007,70.2 61.077666,70.2279997 61.213,70.284 C61.348334,70.3400003 61.4486663,70.4146662 61.514,70.508 L66.61,77.004 L66.61,70.984 C66.61,70.7599989 66.6823326,70.5733341 66.827,70.424 C66.9716674,70.2746659 67.1559989,70.2 67.38,70.2 Z M85.192,75.1 C85.192,76.0240046 84.9866687,76.8709961 84.576,77.641 C84.1653313,78.4110038 83.5983369,79.0199978 82.875,79.468 C82.1516631,79.9160022 81.3373379,80.14 80.432,80.14 C79.5266621,80.14 78.712337,79.9160022 77.989,79.468 C77.2656631,79.0199978 76.701002,78.4110038 76.295,77.641 C75.888998,76.8709961 75.686,76.0240046 75.686,75.1 C75.686,74.1759954 75.888998,73.3290038 76.295,72.559 C76.701002,71.7889962 77.2656631,71.1800022 77.989,70.732 C78.712337,70.2839978 79.5266621,70.06 80.432,70.06 C81.3373379,70.06 82.1516631,70.2839978 82.875,70.732 C83.5983369,71.1800022 84.1653313,71.7889962 84.576,72.559 C84.9866687,73.3290038 85.192,74.1759954 85.192,75.1 Z M83.372,75.1 C83.372,74.4746635 83.2460013,73.9076692 82.994,73.399 C82.7419987,72.8903308 82.3920022,72.4866682 81.944,72.188 C81.4959978,71.8893318 80.9920028,71.74 80.432,71.74 C79.8626638,71.74 79.3563356,71.8869985 78.913,72.181 C78.4696644,72.4750015 78.1243346,72.8786641 77.877,73.392 C77.6296654,73.9053359 77.506,74.4746635 77.506,75.1 C77.506,75.7253365 77.6296654,76.2946641 77.877,76.808 C78.1243346,77.3213359 78.4696644,77.7249985 78.913,78.019 C79.3563356,78.3130015 79.8626638,78.46 80.432,78.46 C80.9920028,78.46 81.4959978,78.3106682 81.944,78.012 C82.3920022,77.7133318 82.7419987,77.3096692 82.994,76.801 C83.2460013,76.2923308 83.372,75.7253365 83.372,75.1 Z M98.76,70.158 C98.9840011,70.158 99.1916657,70.2443325 99.383,70.417 C99.5743343,70.5896675 99.67,70.8066654 99.67,71.068 C99.67,71.1520004 99.6560001,71.2453328 99.628,71.348 L96.87,79.468 C96.8139997,79.6266675 96.7160007,79.7526662 96.576,79.846 C96.4359993,79.9393338 96.2820008,79.9906666 96.114,80 C95.9459992,80 95.7873341,79.9533338 95.638,79.86 C95.4886659,79.7666662 95.3720004,79.6313342 95.288,79.454 L93.3,74.932 L91.298,79.454 C91.2139996,79.6313342 91.0973341,79.7666662 90.948,79.86 C90.7986659,79.9533338 90.6400008,80 90.472,80 C90.3039992,79.9906666 90.1500007,79.9393338 90.01,79.846 C89.8699993,79.7526662 89.7720003,79.6266675 89.716,79.468 L86.958,71.348 C86.9299999,71.2453328 86.916,71.1520004 86.916,71.068 C86.916,70.8066654 87.0116657,70.5896675 87.203,70.417 C87.3943343,70.2443325 87.6066655,70.158 87.84,70.158 C88.0266676,70.158 88.1946659,70.2069995 88.344,70.305 C88.4933341,70.4030005 88.5959997,70.5359992 88.652,70.704 L90.738,77.032 L92.558,72.664 C92.632667,72.4959992 92.7399993,72.3630005 92.88,72.265 C93.0200007,72.1669995 93.1786658,72.1226666 93.356,72.132 C93.5333342,72.1226666 93.689666,72.1669995 93.825,72.265 C93.960334,72.3630005 94.065333,72.4959992 94.14,72.664 L95.862,76.99 L97.934,70.704 C97.9900003,70.5359992 98.0949992,70.4030005 98.249,70.305 C98.4030008,70.2069995 98.5733324,70.158 98.76,70.158 Z M109.388,70.2 C109.612001,70.2 109.793999,70.2746659 109.934,70.424 C110.074001,70.5733341 110.144,70.7599989 110.144,70.984 L110.144,79.146 C110.144,79.3886679 110.062334,79.5916659 109.899,79.755 C109.735666,79.9183342 109.532668,80 109.29,80 C109.159333,80 109.031001,79.9790002 108.905,79.937 C108.778999,79.8949998 108.688,79.836667 108.632,79.762 L103.494,73.238 L103.494,79.216 C103.494,79.4400011 103.421667,79.6266659 103.277,79.776 C103.132333,79.9253341 102.943335,80 102.71,80 C102.485999,80 102.304001,79.9253341 102.164,79.776 C102.023999,79.6266659 101.954,79.4400011 101.954,79.216 L101.954,71.054 C101.954,70.8113321 102.035666,70.6083342 102.199,70.445 C102.362334,70.2816659 102.565332,70.2 102.808,70.2 C102.948001,70.2 103.085666,70.2279997 103.221,70.284 C103.356334,70.3400003 103.456666,70.4146662 103.522,70.508 L108.618,77.004 L108.618,70.984 C108.618,70.7599989 108.690333,70.5733341 108.835,70.424 C108.979667,70.2746659 109.163999,70.2 109.388,70.2 Z M118.798,78.39 C119.040668,78.39 119.243666,78.4716659 119.407,78.635 C119.570334,78.7983342 119.652,78.9873323 119.652,79.202 C119.652,79.4353345 119.570334,79.6266659 119.407,79.776 C119.243666,79.9253341 119.040668,80 118.798,80 L114.108,80 C113.865332,80 113.662334,79.9183342 113.499,79.755 C113.335666,79.5916659 113.254,79.3886679 113.254,79.146 L113.254,71.054 C113.254,70.8113321 113.335666,70.6083342 113.499,70.445 C113.662334,70.2816659 113.865332,70.2 114.108,70.2 L118.798,70.2 C119.040668,70.2 119.243666,70.2769992 119.407,70.431 C119.570334,70.5850008 119.652,70.7833321 119.652,71.026 C119.652,71.2593345 119.572667,71.4483326 119.414,71.593 C119.255333,71.7376674 119.050001,71.81 118.798,71.81 L115.004,71.81 L115.004,74.19 L118.168,74.19 C118.410668,74.19 118.613666,74.2669992 118.777,74.421 C118.940334,74.5750008 119.022,74.7733321 119.022,75.016 C119.022,75.2493345 118.942667,75.4383326 118.784,75.583 C118.625333,75.7276674 118.420001,75.8 118.168,75.8 L115.004,75.8 L115.004,78.39 L118.798,78.39 Z M126.472,70.2 C127.349338,70.2 128.102997,70.4169978 128.733,70.851 C129.363003,71.2850022 129.843665,71.8729963 130.175,72.615 C130.506335,73.3570037 130.672,74.1853288 130.672,75.1 C130.672,76.0146712 130.506335,76.8429963 130.175,77.585 C129.843665,78.3270037 129.363003,78.9149978 128.733,79.349 C128.102997,79.7830022 127.349338,80 126.472,80 L123.126,80 C122.883332,80 122.680334,79.9183342 122.517,79.755 C122.353666,79.5916659 122.272,79.3886679 122.272,79.146 L122.272,71.054 C122.272,70.8113321 122.353666,70.6083342 122.517,70.445 C122.680334,70.2816659 122.883332,70.2 123.126,70.2 L126.472,70.2 Z M126.332,78.39 C127.172004,78.39 127.801998,78.0796698 128.222,77.459 C128.642002,76.8383302 128.852,76.0520048 128.852,75.1 C128.852,74.1479952 128.639669,73.3616698 128.215,72.741 C127.790331,72.1203302 127.162671,71.81 126.332,71.81 L124.022,71.81 L124.022,78.39 L126.332,78.39 Z M144.102,74.568 C144.596669,74.764001 145.000332,75.0626647 145.313,75.464 C145.625668,75.8653353 145.782,76.3833302 145.782,77.018 C145.782,78.1286722 145.46467,78.9033311 144.83,79.342 C144.19533,79.7806689 143.439338,80 142.562,80 L139.076,80 C138.833332,80 138.630334,79.9183342 138.467,79.755 C138.303666,79.5916659 138.222,79.3886679 138.222,79.146 L138.222,71.054 C138.222,70.8113321 138.303666,70.6083342 138.467,70.445 C138.630334,70.2816659 138.833332,70.2 139.076,70.2 L142.604,70.2 C144.377342,70.2 145.264,71.0306584 145.264,72.692 C145.264,73.1120021 145.163668,73.4829984 144.963,73.805 C144.762332,74.1270016 144.475335,74.3813324 144.102,74.568 Z M143.444,73 C143.444,72.6173314 143.348334,72.3303343 143.157,72.139 C142.965666,71.9476657 142.697335,71.852 142.352,71.852 L140.042,71.852 L140.042,74.036 L142.394,74.036 C142.674001,74.036 142.918999,73.9426676 143.129,73.756 C143.339001,73.5693324 143.444,73.3173349 143.444,73 Z M142.562,78.39 C143.000669,78.39 143.343665,78.2733345 143.591,78.04 C143.838335,77.8066655 143.962,77.4660022 143.962,77.018 C143.962,76.4673306 143.817335,76.1080008 143.528,75.94 C143.238665,75.7719992 142.884002,75.688 142.464,75.688 L140.042,75.688 L140.042,78.39 L142.562,78.39 Z M155.36,70.186 C155.602668,70.186 155.798666,70.2653325 155.948,70.424 C156.097334,70.5826675 156.172,70.7879987 156.172,71.04 L156.172,76.108 C156.172,76.8826705 156.008668,77.5686637 155.682,78.166 C155.355332,78.7633363 154.898003,79.2299983 154.31,79.566 C153.721997,79.9020017 153.050004,80.07 152.294,80.07 C151.537996,80.07 150.86367,79.9020017 150.271,79.566 C149.67833,79.2299983 149.218668,78.7633363 148.892,78.166 C148.565332,77.5686637 148.402,76.8826705 148.402,76.108 L148.402,71.04 C148.402,70.7973321 148.485999,70.5943342 148.654,70.431 C148.822001,70.2676659 149.036665,70.186 149.298,70.186 C149.522001,70.186 149.717999,70.2676659 149.886,70.431 C150.054001,70.5943342 150.138,70.7973321 150.138,71.04 L150.138,76.108 C150.138,76.5560022 150.235999,76.9549983 150.432,77.305 C150.628001,77.6550017 150.891665,77.9233324 151.223,78.11 C151.554335,78.2966676 151.911331,78.39 152.294,78.39 C152.695335,78.39 153.070998,78.2966676 153.421,78.11 C153.771002,77.9233324 154.050999,77.6550017 154.261,77.305 C154.471001,76.9549983 154.576,76.5560022 154.576,76.108 L154.576,71.04 C154.576,70.7879987 154.645999,70.5826675 154.786,70.424 C154.926001,70.2653325 155.117332,70.186 155.36,70.186 Z M162.292,80.14 C161.619997,80.14 161.022669,80.0560008 160.5,79.888 C159.977331,79.7199992 159.487336,79.4353353 159.03,79.034 C158.777999,78.8099989 158.652,78.562668 158.652,78.292 C158.652,78.0773323 158.731333,77.8883341 158.89,77.725 C159.048667,77.5616658 159.239999,77.48 159.464,77.48 C159.641334,77.48 159.799999,77.5359994 159.94,77.648 C160.313335,77.9560015 160.677332,78.1799993 161.032,78.32 C161.386668,78.4600007 161.806664,78.53 162.292,78.53 C162.814669,78.53 163.264998,78.4133345 163.643,78.18 C164.021002,77.9466655 164.21,77.6573351 164.21,77.312 C164.21,76.8919979 164.023335,76.5630012 163.65,76.325 C163.276665,76.0869988 162.684004,75.9073339 161.872,75.786 C159.82799,75.4873318 158.806,74.5353414 158.806,72.93 C158.806,72.3419971 158.959998,71.8310022 159.268,71.397 C159.576002,70.9629978 159.995997,70.6316678 160.528,70.403 C161.060003,70.1743322 161.652663,70.06 162.306,70.06 C162.894003,70.06 163.446997,70.1486658 163.965,70.326 C164.483003,70.5033342 164.914665,70.7366652 165.26,71.026 C165.530668,71.2406677 165.666,71.4879986 165.666,71.768 C165.666,71.9826677 165.586667,72.1716659 165.428,72.335 C165.269333,72.4983342 165.082668,72.58 164.868,72.58 C164.727999,72.58 164.602001,72.5380004 164.49,72.454 C164.247332,72.257999 163.909002,72.0783341 163.475,71.915 C163.040998,71.7516658 162.651335,71.67 162.306,71.67 C161.717997,71.67 161.263002,71.7796656 160.941,71.999 C160.618998,72.2183344 160.458,72.5053316 160.458,72.86 C160.458,73.2613353 160.623665,73.5646656 160.955,73.77 C161.286335,73.9753344 161.806663,74.1433327 162.516,74.274 C163.318671,74.4140007 163.960331,74.5936656 164.441,74.813 C164.921669,75.0323344 165.283332,75.3309981 165.526,75.709 C165.768668,76.0870019 165.89,76.5886635 165.89,77.214 C165.89,77.8020029 165.724335,78.3176644 165.393,78.761 C165.061665,79.2043355 164.620669,79.5449988 164.07,79.783 C163.519331,80.0210012 162.92667,80.14 162.292,80.14 Z M170.26,79.146 C170.26,79.3886679 170.171334,79.5916659 169.994,79.755 C169.816666,79.9183342 169.611334,80 169.378,80 C169.125999,80 168.918334,79.9183342 168.755,79.755 C168.591666,79.5916659 168.51,79.3886679 168.51,79.146 L168.51,71.054 C168.51,70.8113321 168.593999,70.6083342 168.762,70.445 C168.930001,70.2816659 169.144665,70.2 169.406,70.2 C169.639335,70.2 169.839999,70.2816659 170.008,70.445 C170.176001,70.6083342 170.26,70.8113321 170.26,71.054 L170.26,79.146 Z M180.804,70.2 C181.028001,70.2 181.209999,70.2746659 181.35,70.424 C181.490001,70.5733341 181.56,70.7599989 181.56,70.984 L181.56,79.146 C181.56,79.3886679 181.478334,79.5916659 181.315,79.755 C181.151666,79.9183342 180.948668,80 180.706,80 C180.575333,80 180.447001,79.9790002 180.321,79.937 C180.194999,79.8949998 180.104,79.836667 180.048,79.762 L174.91,73.238 L174.91,79.216 C174.91,79.4400011 174.837667,79.6266659 174.693,79.776 C174.548333,79.9253341 174.359334,80 174.126,80 C173.901999,80 173.720001,79.9253341 173.58,79.776 C173.439999,79.6266659 173.37,79.4400011 173.37,79.216 L173.37,71.054 C173.37,70.8113321 173.451666,70.6083342 173.615,70.445 C173.778334,70.2816659 173.981332,70.2 174.224,70.2 C174.364001,70.2 174.501666,70.2279997 174.637,70.284 C174.772334,70.3400003 174.872666,70.4146662 174.938,70.508 L180.034,77.004 L180.034,70.984 C180.034,70.7599989 180.106333,70.5733341 180.251,70.424 C180.395667,70.2746659 180.579999,70.2 180.804,70.2 Z M190.214,78.39 C190.456668,78.39 190.659666,78.4716659 190.823,78.635 C190.986334,78.7983342 191.068,78.9873323 191.068,79.202 C191.068,79.4353345 190.986334,79.6266659 190.823,79.776 C190.659666,79.9253341 190.456668,80 190.214,80 L185.524,80 C185.281332,80 185.078334,79.9183342 184.915,79.755 C184.751666,79.5916659 184.67,79.3886679 184.67,79.146 L184.67,71.054 C184.67,70.8113321 184.751666,70.6083342 184.915,70.445 C185.078334,70.2816659 185.281332,70.2 185.524,70.2 L190.214,70.2 C190.456668,70.2 190.659666,70.2769992 190.823,70.431 C190.986334,70.5850008 191.068,70.7833321 191.068,71.026 C191.068,71.2593345 190.988667,71.4483326 190.83,71.593 C190.671333,71.7376674 190.466001,71.81 190.214,71.81 L186.42,71.81 L186.42,74.19 L189.584,74.19 C189.826668,74.19 190.029666,74.2669992 190.193,74.421 C190.356334,74.5750008 190.438,74.7733321 190.438,75.016 C190.438,75.2493345 190.358667,75.4383326 190.2,75.583 C190.041333,75.7276674 189.836001,75.8 189.584,75.8 L186.42,75.8 L186.42,78.39 L190.214,78.39 Z M196.838,80.14 C196.165997,80.14 195.568669,80.0560008 195.046,79.888 C194.523331,79.7199992 194.033336,79.4353353 193.576,79.034 C193.323999,78.8099989 193.198,78.562668 193.198,78.292 C193.198,78.0773323 193.277333,77.8883341 193.436,77.725 C193.594667,77.5616658 193.785999,77.48 194.01,77.48 C194.187334,77.48 194.345999,77.5359994 194.486,77.648 C194.859335,77.9560015 195.223332,78.1799993 195.578,78.32 C195.932668,78.4600007 196.352664,78.53 196.838,78.53 C197.360669,78.53 197.810998,78.4133345 198.189,78.18 C198.567002,77.9466655 198.756,77.6573351 198.756,77.312 C198.756,76.8919979 198.569335,76.5630012 198.196,76.325 C197.822665,76.0869988 197.230004,75.9073339 196.418,75.786 C194.37399,75.4873318 193.352,74.5353414 193.352,72.93 C193.352,72.3419971 193.505998,71.8310022 193.814,71.397 C194.122002,70.9629978 194.541997,70.6316678 195.074,70.403 C195.606003,70.1743322 196.198663,70.06 196.852,70.06 C197.440003,70.06 197.992997,70.1486658 198.511,70.326 C199.029003,70.5033342 199.460665,70.7366652 199.806,71.026 C200.076668,71.2406677 200.212,71.4879986 200.212,71.768 C200.212,71.9826677 200.132667,72.1716659 199.974,72.335 C199.815333,72.4983342 199.628668,72.58 199.414,72.58 C199.273999,72.58 199.148001,72.5380004 199.036,72.454 C198.793332,72.257999 198.455002,72.0783341 198.021,71.915 C197.586998,71.7516658 197.197335,71.67 196.852,71.67 C196.263997,71.67 195.809002,71.7796656 195.487,71.999 C195.164998,72.2183344 195.004,72.5053316 195.004,72.86 C195.004,73.2613353 195.169665,73.5646656 195.501,73.77 C195.832335,73.9753344 196.352663,74.1433327 197.062,74.274 C197.864671,74.4140007 198.506331,74.5936656 198.987,74.813 C199.467669,75.0323344 199.829332,75.3309981 200.072,75.709 C200.314668,76.0870019 200.436,76.5886635 200.436,77.214 C200.436,77.8020029 200.270335,78.3176644 199.939,78.761 C199.607665,79.2043355 199.166669,79.5449988 198.616,79.783 C198.065331,80.0210012 197.47267,80.14 196.838,80.14 Z M206.206,80.14 C205.533997,80.14 204.936669,80.0560008 204.414,79.888 C203.891331,79.7199992 203.401336,79.4353353 202.944,79.034 C202.691999,78.8099989 202.566,78.562668 202.566,78.292 C202.566,78.0773323 202.645333,77.8883341 202.804,77.725 C202.962667,77.5616658 203.153999,77.48 203.378,77.48 C203.555334,77.48 203.713999,77.5359994 203.854,77.648 C204.227335,77.9560015 204.591332,78.1799993 204.946,78.32 C205.300668,78.4600007 205.720664,78.53 206.206,78.53 C206.728669,78.53 207.178998,78.4133345 207.557,78.18 C207.935002,77.9466655 208.124,77.6573351 208.124,77.312 C208.124,76.8919979 207.937335,76.5630012 207.564,76.325 C207.190665,76.0869988 206.598004,75.9073339 205.786,75.786 C203.74199,75.4873318 202.72,74.5353414 202.72,72.93 C202.72,72.3419971 202.873998,71.8310022 203.182,71.397 C203.490002,70.9629978 203.909997,70.6316678 204.442,70.403 C204.974003,70.1743322 205.566663,70.06 206.22,70.06 C206.808003,70.06 207.360997,70.1486658 207.879,70.326 C208.397003,70.5033342 208.828665,70.7366652 209.174,71.026 C209.444668,71.2406677 209.58,71.4879986 209.58,71.768 C209.58,71.9826677 209.500667,72.1716659 209.342,72.335 C209.183333,72.4983342 208.996668,72.58 208.782,72.58 C208.641999,72.58 208.516001,72.5380004 208.404,72.454 C208.161332,72.257999 207.823002,72.0783341 207.389,71.915 C206.954998,71.7516658 206.565335,71.67 206.22,71.67 C205.631997,71.67 205.177002,71.7796656 204.855,71.999 C204.532998,72.2183344 204.372,72.5053316 204.372,72.86 C204.372,73.2613353 204.537665,73.5646656 204.869,73.77 C205.200335,73.9753344 205.720663,74.1433327 206.43,74.274 C207.232671,74.4140007 207.874331,74.5936656 208.355,74.813 C208.835669,75.0323344 209.197332,75.3309981 209.44,75.709 C209.682668,76.0870019 209.804,76.5886635 209.804,77.214 C209.804,77.8020029 209.638335,78.3176644 209.307,78.761 C208.975665,79.2043355 208.534669,79.5449988 207.984,79.783 C207.433331,80.0210012 206.84067,80.14 206.206,80.14 Z" id="VETERAN-OWNED-BUSINE"></path>
        </g>
    </g>
</svg>