<?xml version="1.0" encoding="UTF-8"?>
<svg width="15px" height="14px" viewBox="0 0 15 14" version="1.1" xmlns="http://www.w3.org/2000/svg" xmlns:xlink="http://www.w3.org/1999/xlink">
    <!-- Generator: Sketch 49.1 (51147) - http://www.bohemiancoding.com/sketch -->
    <title>001-heart copy 2</title>
    <desc>Created with Sketch.</desc>
    <defs></defs>
    <g id="Symbols" stroke="none" stroke-width="1" fill="none" fill-rule="evenodd">
        <g id="Save-for-later" transform="translate(-19.000000, -8.000000)" fill-rule="nonzero">
            <g id="Group-2">
                <g id="Group">
                    <g id="001-heart-copy-2" transform="translate(19.000000, 8.000000)">
                        <rect id="Rectangle-path" fill="#C27764" transform="translate(7.500000, 7.500000) rotate(135.000000) translate(-7.500000, -7.500000) " x="3" y="3" width="9" height="9"></rect>
                        <path d="M9,4.49984996 C9,6.98544278 6.98549966,9 4.49975994,9 C2.01459036,9 0,6.98529274 0,4.49984996 C0,2.01494732 2.01459036,0 4.50009002,0 C6.9852596,0 9,2.01494732 9,4.49984996 Z" id="SVGCleanerId_0" fill="#C27764"></path>
                        <path d="M9,4.49984996 C9,6.98544278 6.98549966,9 4.49975994,9 C2.01459036,9 0,6.98529274 0,4.49984996 C0,2.01494732 2.01459036,0 4.50009002,0 C6.9852596,0 9,2.01494732 9,4.49984996 Z" id="SVGCleanerId_0_1_" fill="#C27764"></path>
                        <path d="M6,4.49987997 C6,6.98545622 8.0151211,9 10.5002701,9 C12.985179,9 15,6.98530618 15,4.49987997 C15,2.0149939 12.985089,0 10.49997,0 C8.01515111,6.00156041e-05 6,2.0149939 6,4.49987997 Z" id="Shape" fill="#C27764"></path>
                        <path d="M1.50158581,5 C1.22457213,5 1,4.77544115 1,4.49837622 C1,2.56942899 2.56937075,1 4.49841419,1 C4.77536731,1 5,1.22455885 5,1.50162378 C5,1.77868871 4.77545814,2.00324756 4.49841419,2.00324756 C3.12248976,2.00324756 2.00314135,3.12268072 2.00314135,4.49846706 C2.00314135,4.77535031 1.77850866,5 1.50158581,5 Z" id="Shape" fill="#FFFFFF"></path>
                        <path d="M9.8994531,0 C8.76737763,0 7.74211102,0.466330973 7,1.2198314 L7,13 L12.7992343,7.10980461 C13.5412633,6.35633196 14,5.31516217 14,4.16465137 C14,1.86485176 12.1639595,0 9.8994531,0 Z" id="Shape" fill="#C27764"></path>
                    </g>
                </g>
            </g>
        </g>
    </g>
</svg>