<?xml version="1.0" encoding="UTF-8"?>
<svg width="26px" height="25px" viewBox="0 0 26 25" version="1.1" xmlns="http://www.w3.org/2000/svg" xmlns:xlink="http://www.w3.org/1999/xlink">
    <!-- Generator: Sketch 49.1 (51147) - http://www.bohemiancoding.com/sketch -->
    <title>Shape</title>
    <desc>Created with Sketch.</desc>
    <defs></defs>
    <g id="Symbols" stroke="none" stroke-width="1" fill="none" fill-rule="evenodd">
        <g id="RVDash" transform="translate(-33.000000, -458.000000)" fill="#50CEBE" fill-rule="nonzero">
            <path d="M51.6646857,458 C49.4513714,458 47.3794857,459.009477 46,460.700842 C44.6205143,459.00942 42.5486857,458 40.3353143,458 C36.2906286,458 33,461.314748 33,465.389209 C33,468.579679 34.8885714,472.269967 38.6131429,476.357552 C41.4794857,479.503181 44.5976,481.938774 45.4849714,482.610358 L45.9998286,483 L46.5146857,482.610416 C47.4020571,481.938832 50.5202857,479.503296 53.3866857,476.357667 C57.1113714,472.270082 59,468.579737 59,465.389209 C59,461.314748 55.7093714,458 51.6646857,458 Z M52.1237714,475.189835 C49.7661143,477.777163 47.2296,479.868704 45.9998286,480.832649 C44.7701143,479.868704 42.2337143,477.777106 39.8760571,475.189777 C36.4992,471.483833 34.7142857,468.094829 34.7142857,465.389209 C34.7142857,462.267008 37.2358857,459.726881 40.3353143,459.726881 C42.3749714,459.726881 44.2582857,460.846706 45.2503429,462.649397 L46,464.011676 L46.7496571,462.649397 C47.7416571,460.846763 49.6249714,459.726881 51.6646857,459.726881 C54.7641143,459.726881 57.2857143,462.26695 57.2857143,465.389209 C57.2857143,468.094944 55.5007429,471.483948 52.1237714,475.189835 Z" id="Shape"></path>
        </g>
    </g>
</svg>