<?xml version="1.0" encoding="UTF-8"?>
<svg width="30px" height="30px" viewBox="0 0 30 30" version="1.1" xmlns="http://www.w3.org/2000/svg" xmlns:xlink="http://www.w3.org/1999/xlink">
    <!-- Generator: Sketch 49.1 (51147) - http://www.bohemiancoding.com/sketch -->
    <title>Group 6</title>
    <desc>Created with Sketch.</desc>
    <defs></defs>
    <g id="Symbols" stroke="none" stroke-width="1" fill="none" fill-rule="evenodd">
        <g id="RVDash" transform="translate(-31.000000, -352.000000)" fill="#50CEBE" fill-rule="nonzero">
            <g id="Group-6" transform="translate(31.000000, 352.000000)">
                <path d="M27.3632812,3.515625 L26.484375,3.515625 L26.484375,2.63671875 C26.484375,1.18283203 25.301543,0 23.8476562,0 C22.3937695,0 21.2109375,1.18283203 21.2109375,2.63671875 L21.2109375,3.515625 L17.6953125,3.515625 L17.6953125,2.63671875 C17.6953125,1.18283203 16.5124805,0 15.0585938,0 C13.604707,0 12.421875,1.18283203 12.421875,2.63671875 L12.421875,3.515625 L8.7890625,3.515625 L8.7890625,2.63671875 C8.7890625,1.18283203 7.60623047,0 6.15234375,0 C4.69845703,0 3.515625,1.18283203 3.515625,2.63671875 L3.515625,3.515625 L2.63671875,3.515625 C1.18283203,3.515625 0,4.69845703 0,6.15234375 C0,6.27984375 0,27.02625 0,27.3632812 C0,28.817168 1.18283203,30 2.63671875,30 L27.3632812,30 C28.817168,30 30,28.817168 30,27.3632812 C30,27.2013867 30,6.43792969 30,6.15234375 C30,4.69845703 28.817168,3.515625 27.3632812,3.515625 Z M22.96875,2.63671875 C22.96875,2.15208984 23.3630273,1.7578125 23.8476562,1.7578125 C24.3322852,1.7578125 24.7265625,2.15208984 24.7265625,2.63671875 L24.7265625,6.15234375 C24.7265625,6.63697266 24.3322852,7.03125 23.8476562,7.03125 C23.3630273,7.03125 22.96875,6.63697266 22.96875,6.15234375 L22.96875,2.63671875 Z M14.1796875,2.63671875 C14.1796875,2.15208984 14.5739648,1.7578125 15.0585938,1.7578125 C15.5432227,1.7578125 15.9375,2.15208984 15.9375,2.63671875 L15.9375,6.15234375 C15.9375,6.63697266 15.5432227,7.03125 15.0585938,7.03125 C14.5739648,7.03125 14.1796875,6.63697266 14.1796875,6.15234375 L14.1796875,2.63671875 Z M5.2734375,2.63671875 C5.2734375,2.15208984 5.66771484,1.7578125 6.15234375,1.7578125 C6.63697266,1.7578125 7.03125,2.15208984 7.03125,2.63671875 L7.03125,6.15234375 C7.03125,6.63697266 6.63697266,7.03125 6.15234375,7.03125 C5.66771484,7.03125 5.2734375,6.63697266 5.2734375,6.15234375 L5.2734375,2.63671875 Z M28.2421875,27.3632812 C28.2421875,27.8479102 27.8479102,28.2421875 27.3632812,28.2421875 L2.63671875,28.2421875 C2.15208984,28.2421875 1.7578125,27.8479102 1.7578125,27.3632812 L1.7578125,12.421875 L28.2421875,12.421875 L28.2421875,27.3632812 Z M28.2421875,10.6640625 L1.7578125,10.6640625 L1.7578125,6.15234375 C1.7578125,5.66771484 2.15208984,5.2734375 2.63671875,5.2734375 L3.515625,5.2734375 L3.515625,6.15234375 C3.515625,7.60623047 4.69845703,8.7890625 6.15234375,8.7890625 C7.60623047,8.7890625 8.7890625,7.60623047 8.7890625,6.15234375 L8.7890625,5.2734375 L12.421875,5.2734375 L12.421875,6.15234375 C12.421875,7.60623047 13.604707,8.7890625 15.0585937,8.7890625 C16.5124805,8.7890625 17.6953125,7.60623047 17.6953125,6.15234375 L17.6953125,5.2734375 L21.2109375,5.2734375 L21.2109375,6.15234375 C21.2109375,7.60623047 22.3937695,8.7890625 23.8476562,8.7890625 C25.301543,8.7890625 26.484375,7.60623047 26.484375,6.15234375 L26.484375,5.2734375 L27.3632812,5.2734375 C27.8479102,5.2734375 28.2421875,5.66771484 28.2421875,6.15234375 L28.2421875,10.6640625 Z" id="Shape"></path>
                <path d="M25.6054688,14.1796875 L4.39453125,14.1796875 C3.90914062,14.1796875 3.515625,14.5732031 3.515625,15.0585938 L3.515625,25.6054688 C3.515625,26.0908594 3.90914062,26.484375 4.39453125,26.484375 L25.6054688,26.484375 C26.0908594,26.484375 26.484375,26.0908594 26.484375,25.6054688 L26.484375,15.0585938 C26.484375,14.5732031 26.0908594,14.1796875 25.6054688,14.1796875 Z M8.7890625,24.7265625 L5.2734375,24.7265625 L5.2734375,21.2109375 L8.7890625,21.2109375 L8.7890625,24.7265625 Z M8.7890625,19.453125 L5.2734375,19.453125 L5.2734375,15.9375 L8.7890625,15.9375 L8.7890625,19.453125 Z M14.1796875,24.7265625 L10.546875,24.7265625 L10.546875,21.2109375 L14.1796875,21.2109375 L14.1796875,24.7265625 Z M14.1796875,19.453125 L10.546875,19.453125 L10.546875,15.9375 L14.1796875,15.9375 L14.1796875,19.453125 Z M19.453125,24.7265625 L15.9375,24.7265625 L15.9375,21.2109375 L19.453125,21.2109375 L19.453125,24.7265625 Z M19.453125,19.453125 L15.9375,19.453125 L15.9375,15.9375 L19.453125,15.9375 L19.453125,19.453125 Z M24.7265625,24.7265625 L21.2109375,24.7265625 L21.2109375,21.2109375 L24.7265625,21.2109375 L24.7265625,24.7265625 Z M24.7265625,19.453125 L21.2109375,19.453125 L21.2109375,15.9375 L24.7265625,15.9375 L24.7265625,19.453125 Z" id="Shape"></path>
            </g>
        </g>
    </g>
</svg>