<?xml version="1.0" encoding="UTF-8"?>
<svg width="31px" height="31px" viewBox="0 0 31 31" version="1.1" xmlns="http://www.w3.org/2000/svg" xmlns:xlink="http://www.w3.org/1999/xlink">
    <!-- Generator: Sketch 49.1 (51147) - http://www.bohemiancoding.com/sketch -->
    <title>Group 2</title>
    <desc>Created with Sketch.</desc>
    <defs></defs>
    <g id="Symbols" stroke="none" stroke-width="1" fill="none" fill-rule="evenodd">
        <g id="RVDash" transform="translate(-31.000000, -663.000000)" fill="#50CEBE" fill-rule="nonzero">
            <g id="Group-2" transform="translate(31.000000, 663.000000)">
                <path d="M16.9042137,11.8404687 C15.4252136,11.8404687 14.22193,13.0405469 14.22193,14.5157031 C14.22193,15.9908594 15.4252136,17.1909375 16.9042137,17.1909375 C18.3832138,17.1909375 19.586419,15.9908594 19.586419,14.5157031 C19.586419,13.0405469 18.3832138,11.8404687 16.9042137,11.8404687 Z M16.9042137,15.7846094 C16.2026246,15.7846094 15.6318443,15.2153125 15.6318443,14.515625 C15.6318443,13.8159375 16.2026246,13.2466406 16.9042137,13.2466406 C17.6058027,13.2466406 18.1765047,13.8159375 18.1765047,14.515625 C18.1765047,15.2153906 17.6058027,15.7846094 16.9042137,15.7846094 Z M23.8212533,15.920625 L22.9103703,15.2624219 C22.9409968,15.0152344 22.9563492,14.765625 22.9563492,14.51625 C22.9563492,14.2704687 22.9414667,14.0247656 22.9118585,13.7816406 L23.8229765,13.1232031 C24.0558473,12.971875 24.3734697,12.6153125 24.2213556,11.8290625 C24.1484317,11.4527344 23.973994,11.0132812 23.7300788,10.5919531 C23.0541032,9.42390625 22.2350213,8.9128125 21.5808994,9.2446875 L20.5555001,9.70171875 C20.1561027,9.39945312 19.7241206,9.14992187 19.2640969,8.9559375 L19.1488756,7.84875 C19.1140194,7.11492187 18.2607079,6.66132812 16.904292,6.66132812 C15.5517925,6.66132812 14.6982461,7.11367188 14.6598651,7.84507812 L14.5442521,8.95601562 C14.0841501,9.15007812 13.6520897,9.3996875 13.2529273,9.701875 L12.2297211,9.2459375 C11.9818895,9.12054687 11.5134063,9.02453125 10.9069865,9.54898437 C10.6166225,9.80007812 10.322342,10.1705469 10.0785052,10.5919531 C9.40252961,11.7595312 9.36798671,12.7225 9.982866,13.1217969 L10.8966471,13.7820312 C10.8669606,14.0254687 10.8520782,14.2710937 10.8520782,14.5163281 C10.8520782,14.765625 10.8674306,15.0151562 10.898057,15.2622656 L9.98388427,15.9228906 C9.36806504,16.3217187 9.40213797,17.2851562 10.0784269,18.4532812 C10.322342,18.8747656 10.6166225,19.2451562 10.9069865,19.49625 C11.513563,20.0207813 11.9820462,19.9246875 12.2297211,19.7992187 L13.263345,19.3386719 C13.6594525,19.6371094 14.0874399,19.8838281 14.5429988,20.0760937 L14.6597868,21.2 C14.6979328,21.9316406 15.5516359,22.3839844 16.9042137,22.3839844 C18.2606296,22.3839844 19.113941,21.9303906 19.1487973,21.1964844 L19.2653502,20.0760937 C19.7208308,19.8838281 20.1488965,19.6371094 20.5449257,19.33875 L21.5808211,19.8004687 C22.2350213,20.1325781 23.0540249,19.6211719 23.7299222,18.4533594 C24.4082476,17.2816406 24.4411456,16.3177344 23.8212533,15.920625 Z M21.4562787,13.6036719 C21.5161217,13.9016406 21.5463565,14.2086719 21.5463565,14.51625 C21.5463565,14.8264844 21.5153384,15.1369531 21.4543205,15.4389063 C21.3997254,15.7089063 21.5082105,15.9857813 21.7317603,16.1473438 L22.837838,16.9465625 C22.8055667,17.1111719 22.7114941,17.4000781 22.508858,17.7501563 C22.3061437,18.1002344 22.1024111,18.3259375 21.9755188,18.4360938 L20.7238282,17.878125 C20.4719235,17.7657813 20.1773297,17.8104688 19.9703073,17.9924219 C19.5035474,18.4024219 18.9699731,18.7099219 18.3843104,18.90625 C18.1225363,18.9940625 17.9362709,19.2261719 17.9077593,19.5001563 L17.7662196,20.8600781 C17.6071343,20.9144531 17.3093291,20.9776563 16.9041353,20.9776563 C16.4987067,20.9776563 16.2008231,20.9144531 16.0418161,20.86 L15.900433,19.5002344 C15.8719214,19.22625 15.6856561,18.9940625 15.423882,18.90625 C14.8382976,18.7099219 14.3047233,18.4024219 13.8377284,17.9923438 C13.630706,17.8104688 13.3365038,17.7657813 13.0843642,17.8780469 L11.8324386,18.4358594 C11.705703,18.3257031 11.501892,18.1 11.2993343,17.75 C11.09662,17.3998438 11.0025474,17.1109375 10.9703543,16.9463281 L12.0763538,16.1470313 C12.2999035,15.9854687 12.4083103,15.7086719 12.3537936,15.43875 C12.2928539,15.1367188 12.2618358,14.8263281 12.2618358,14.5161719 C12.2618358,14.2096094 12.2922273,13.9025 12.351992,13.6033594 C12.4058821,13.3338281 12.297397,13.0576563 12.0742389,12.8964063 L10.970276,12.0988281 C11.002469,11.9342187 11.0965416,11.6452344 11.2993343,11.295 C11.5018137,10.9450781 11.7056246,10.719375 11.8323603,10.6092188 L13.0748081,11.1628906 C13.3274961,11.2753906 13.6224815,11.2302344 13.8295039,11.0475 C14.298457,10.6335937 14.8352428,10.3235156 15.4249002,10.1260156 C15.6867527,10.0382813 15.8730963,9.80609375 15.9016079,9.53203125 L16.0417378,8.18523438 C16.2007448,8.13078125 16.4986283,8.06757813 16.904057,8.06757813 C17.3092507,8.06757813 17.607056,8.13070313 17.7661413,8.18515625 L17.9062711,9.53203125 C17.9347827,9.80609375 18.1212047,10.0382812 18.3831355,10.1260156 C18.972558,10.3233594 19.5093437,10.6333594 19.9786102,11.0474219 C20.1857109,11.2301563 20.4806963,11.2753125 20.7333059,11.1627344 L21.9755188,10.6090625 C22.1022544,10.7192188 22.3061437,10.9449219 22.5087797,11.2950781 C22.7114157,11.645 22.8054883,11.9338281 22.8377597,12.0985156 L21.7337968,12.8963281 C21.510717,13.0577344 21.402232,13.3340625 21.4562787,13.6036719 Z M25.2117421,3.59375 L8.59668525,3.59375 C5.91620317,3.59375 3.75402125,5.76203125 3.75402125,8.435625 L3.75402125,22.1396094 L1.48249264,24.1553125 L1.48249264,8.26648438 C1.48241431,4.46835938 4.619082,1.40625 8.42718222,1.40625 L21.5870874,1.40625 C22.3269008,1.40625 23.0335811,1.6253125 23.6306799,2.06609375 C23.9436025,2.29710938 24.3850623,2.224375 24.6167583,1.91226563 C24.8483758,1.60015625 24.7824232,1.1703125 24.4695005,0.939296875 C23.6277817,0.31796875 22.6310506,0 21.5870091,0 L8.42718222,0 C3.84174925,0 0.0725,3.69296875 0.0725,8.26648438 L0.0725,25.7489844 C0.0725,26.0275 0.256650474,26.2798438 0.512236607,26.3922656 C0.767744411,26.5046094 1.08466182,26.4560938 1.29097928,26.2682813 L3.75402125,24.0434375 L3.75402125,29.3638281 C3.75402125,29.6423437 3.90958179,29.8946875 4.16516792,30.0071094 C4.25657737,30.0473437 4.3487701,30.0669531 4.44495759,30.0669531 C4.61751543,30.0669531 4.78553022,30.00375 4.91806216,29.8832031 L9.01441153,26.1533594 C9.14185212,26.0373437 9.25010221,25.9360156 9.34511476,25.8476562 C9.54117118,25.6651562 9.72610494,25.4928125 9.78743621,25.4688281 C9.84500772,25.44625 10.0880613,25.4554688 10.3452923,25.4588281 C10.4844822,25.4607031 10.6459174,25.46875 10.8360991,25.46875 L25.2118204,25.46875 C27.8923025,25.46875 30.0725,23.2817969 30.0725,20.6082031 L30.0725,8.435625 C30.0723433,5.76203125 27.8921459,3.59375 25.2117421,3.59375 Z M28.662429,20.6082031 C28.662429,22.5064063 27.1147348,24.0625 25.2116638,24.0625 L10.8360208,24.0625 C10.6532019,24.0625 10.4978764,24.0544531 10.3640128,24.0527344 C9.32490599,24.0388281 9.15806613,24.1009375 8.38261326,24.8224219 C8.2908905,24.9078125 8.194938,25.0042187 8.07188382,25.11625 L5.16393555,27.7701562 L5.16393555,22.4505469 C5.16393555,22.4499219 5.16393555,22.449375 5.16393555,22.44875 L5.16393555,8.435625 C5.16385723,6.53742188 6.69361425,5 8.59668525,5 L25.2117421,5 C27.1148131,5 28.6625074,6.53742188 28.6625074,8.435625 L28.6625074,20.6082031 L28.662429,20.6082031 Z" id="Shape"></path>
            </g>
        </g>
    </g>
</svg>