<?xml version="1.0" encoding="UTF-8"?>
<svg width="27px" height="27px" viewBox="0 0 27 27" version="1.1" xmlns="http://www.w3.org/2000/svg" xmlns:xlink="http://www.w3.org/1999/xlink">
    <!-- Generator: Sketch 49.1 (51147) - http://www.bohemiancoding.com/sketch -->
    <title>Group 5</title>
    <desc>Created with Sketch.</desc>
    <defs></defs>
    <g id="Symbols" stroke="none" stroke-width="1" fill="none" fill-rule="evenodd">
        <g id="Admin-Management" transform="translate(-34.000000, -524.000000)" fill="#50CEBE" fill-rule="nonzero">
            <g id="Group-5" transform="translate(34.000000, 524.000000)">
                <path d="M23.0464276,3.95728643 C20.4955532,1.40766332 17.1075848,0 13.4990309,0 C9.89047693,0 6.50250856,1.40766332 3.95163422,3.95728643 C-0.969121179,8.87562814 -1.32545174,16.7336683 3.05797979,22.0590452 C2.45278343,23.2971106 1.74012231,24.1224874 0.931308491,24.5182161 C0.439232951,24.7613065 0.162086958,25.2927136 0.241271527,25.8354271 C0.326112138,26.383794 0.744659148,26.8077889 1.29329509,26.8925879 C1.59306525,26.9378141 1.91545957,26.9660804 2.24916597,26.9660804 C3.90638589,26.9660804 5.64844642,26.3951005 7.10204888,25.3944724 C9.05903895,26.4459799 11.2592388,27 13.4990309,27 C17.1075848,27 20.4955532,25.5979899 23.0464276,23.0483668 C25.5973019,20.4987437 27,17.1067839 27,13.5056533 C27,9.90452261 25.5973019,6.50690955 23.0464276,3.95728643 Z M21.9661238,21.9629397 C19.7037075,24.2242462 16.6946939,25.4679648 13.4990309,25.4679648 C11.3610475,25.4679648 9.26265642,24.8969849 7.43575528,23.8228643 C7.31697842,23.7550251 7.18123345,23.7154523 7.05114451,23.7154523 C6.88711933,23.7154523 6.71743811,23.7719849 6.58169313,23.8737437 C4.85094468,25.2135678 3.10888415,25.4114322 2.34531866,25.428392 C3.25594121,24.75 4.0195067,23.6984925 4.6586393,22.2342965 C4.77741616,21.9629397 4.72651179,21.6463568 4.52855037,21.4202261 C0.34308026,16.6940955 0.563665846,9.49183417 5.03193799,5.02575377 C7.29435426,2.76444724 10.3033679,1.52072864 13.4990309,1.52072864 C16.6946939,1.52072864 19.7037075,2.76444724 21.9661238,5.02575377 C26.6380134,9.70100503 26.6380134,17.298995 21.9661238,21.9629397 Z" id="Shape"></path>
                <path d="M19.2268722,9 L7.77312775,9 C7.34361233,9 7,9.44444444 7,10 C7,10.5555556 7.34361233,11 7.77312775,11 L19.2268722,11 C19.6563877,11 20,10.5555556 20,10 C20,9.44444444 19.6506608,9 19.2268722,9 Z" id="Shape"></path>
                <path d="M19.2268722,13 L7.77312775,13 C7.34361233,13 7,13.4444444 7,14 C7,14.5555556 7.34361233,15 7.77312775,15 L19.2268722,15 C19.6563877,15 20,14.5555556 20,14 C20,13.4444444 19.6506608,13 19.2268722,13 Z" id="Shape"></path>
                <path d="M19.2268722,16 L7.77312775,16 C7.34361233,16 7,16.4444444 7,17 C7,17.5555556 7.34361233,18 7.77312775,18 L19.2268722,18 C19.6563877,18 20,17.5555556 20,17 C20,16.4444444 19.6506608,16 19.2268722,16 Z" id="Shape"></path>
            </g>
        </g>
    </g>
</svg>