<?xml version="1.0" encoding="UTF-8"?>
<svg width="19px" height="31px" viewBox="0 0 19 31" version="1.1" xmlns="http://www.w3.org/2000/svg" xmlns:xlink="http://www.w3.org/1999/xlink">
    <!-- Generator: Sketch 49.1 (51147) - http://www.bohemiancoding.com/sketch -->
    <title>Group 6</title>
    <desc>Created with Sketch.</desc>
    <defs></defs>
    <g id="Symbols" stroke="none" stroke-width="1" fill="none" fill-rule="evenodd">
        <g id="Admin-Management" transform="translate(-38.000000, -416.000000)" fill="#50CEBE" fill-rule="nonzero">
            <g id="Group-6" transform="translate(38.000000, 416.000000)">
                <path d="M15.5607013,0 L3.43923899,0 C1.5428239,0 0,1.5428239 0,3.43923899 L0,27.151956 C0,29.0483711 1.5428239,30.591195 3.43923899,30.591195 L15.560761,30.591195 C17.4571761,30.591195 19,29.0483711 19,27.151956 L19,3.43923899 C18.9999403,1.5428239 17.4571164,0 15.5607013,0 Z M17.1898616,27.151956 C17.1898019,28.0502736 16.4590189,28.7810566 15.5607013,28.7810566 L3.43923899,28.7810566 C2.54092138,28.7810566 1.81013836,28.0502736 1.81013836,27.151956 L1.81013836,25.2380943 L17.1899214,25.2380943 L17.1899214,27.151956 L17.1898616,27.151956 Z M17.1899214,23.427956 L1.81013836,23.427956 L1.81013836,5.97221384 L17.1899214,5.97221384 L17.1899214,23.427956 Z M17.1898616,4.16207547 L1.81013836,4.16207547 L1.81013836,3.43923899 C1.81013836,2.54092138 2.54092138,1.81013836 3.43923899,1.81013836 L15.560761,1.81013836 C16.4590786,1.81013836 17.1898616,2.54092138 17.1898616,3.43923899 L17.1898616,4.16207547 Z" id="Shape"></path>
                <path d="M10.8300597,26.1812233 L8.1698805,26.1812233 C7.67002516,26.1812233 7.26481132,26.5864371 7.26481132,27.0862925 C7.26481132,27.5861478 7.67002516,27.9913616 8.1698805,27.9913616 L10.8300597,27.9913616 C11.3299151,27.9913616 11.7351289,27.5861478 11.7351289,27.0862925 C11.7351289,26.5864371 11.3299151,26.1812233 10.8300597,26.1812233 Z" id="Shape"></path>
                <path d="M9.49994025,13.7950157 C8.81671698,13.7950157 8.26081761,13.2391761 8.26081761,12.5558931 C8.26081761,11.8726101 8.81665723,11.3168302 9.49994025,11.3168302 L11.6440723,11.3168302 C12.1439277,11.3168302 12.5491415,10.9116164 12.5491415,10.411761 C12.5491415,9.91190566 12.1439277,9.50669182 11.6440723,9.50669182 L10.4049497,9.50669182 L10.4049497,8.56678931 C10.4049497,8.06693396 9.99973585,7.66172013 9.4998805,7.66172013 C9.00002516,7.66172013 8.59481132,8.06693396 8.59481132,8.56678931 L8.59481132,9.64381447 C7.35401572,10.0302673 6.45067925,11.189566 6.45067925,12.5558931 C6.45067925,14.2372138 7.81855975,15.6050943 9.4998805,15.6050943 C10.1831038,15.6050943 10.7390031,16.160934 10.7390031,16.844217 C10.7390031,17.5275 10.1831038,18.0833396 9.4998805,18.0833396 L7.35574843,18.0833396 C6.85589308,18.0833396 6.45067925,18.4885535 6.45067925,18.9884088 C6.45067925,19.4882642 6.85589308,19.893478 7.35574843,19.893478 L8.59487107,19.893478 L8.59487107,20.8333805 C8.59487107,21.3332358 9.00008491,21.7384497 9.49994025,21.7384497 C9.9997956,21.7384497 10.4050094,21.3332358 10.4050094,20.8333805 L10.4050094,19.7563553 C11.645805,19.3699025 12.5491415,18.2106038 12.5491415,16.8442767 C12.5492013,15.1628962 11.1813208,13.7950157 9.49994025,13.7950157 Z" id="Shape"></path>
            </g>
        </g>
    </g>
</svg>