<?xml version="1.0" encoding="UTF-8"?>
<svg width="30px" height="30px" viewBox="0 0 30 30" version="1.1" xmlns="http://www.w3.org/2000/svg" xmlns:xlink="http://www.w3.org/1999/xlink">
    <!-- Generator: Sketch 49.1 (51147) - http://www.bohemiancoding.com/sketch -->
    <title>Group 7</title>
    <desc>Created with Sketch.</desc>
    <defs></defs>
    <g id="Symbols" stroke="none" stroke-width="1" fill="none" fill-rule="evenodd">
        <g id="RVDash" transform="translate(-31.000000, -246.000000)" fill="#50CEBE" fill-rule="nonzero">
            <g id="Group-7" transform="translate(31.000000, 246.000000)">
                <path d="M17.5203593,19.6666168 L17.7984431,20.1426647 C19.1047904,22.386018 19.5741916,24.1290719 19.8138323,25.245 L19.9355389,25.8123952 L25.6123653,25.8816467 L25.6123653,17.0553593 L25.581018,16.2046707 L24.8534731,16.2046707 C24.6857784,16.2046707 20.7259581,16.2994311 17.9043413,19.2085329 L17.5203593,19.6666168 Z M24.1573653,17.8368862 L24.1573653,24.408503 L21.105988,24.371497 C20.8341018,23.2664371 20.350509,21.7550299 19.3382335,19.9105689 C21.0264072,18.411018 23.0963174,17.9675749 24.1573653,17.8368862 Z" id="Shape"></path>
                <path d="M18.9521856,25.9440719 L18.7782934,25.0839521 C18.7727246,25.0555689 17.939012,21.9037725 16.2764371,19.9182036 C16.2508383,19.8850599 16.2252395,19.8519162 16.1807784,19.8006287 C16.1286826,19.74 16.0746108,19.6784731 16.0211677,19.6188323 C13.555509,16.8943114 10.0326647,15.5131437 5.55062874,15.5131437 C5.26149701,15.5131437 4.96616766,15.5187126 4.66446108,15.5305689 L3.96107784,15.5585928 L4.03329341,26.1350299 L18.9521856,25.9440719 Z M14.9422455,20.5945509 L15.0791317,20.7508383 L15.6479641,20.2965269 L15.1221557,20.8038323 L15.1855689,20.8843114 C16.0879042,21.9613473 16.7344311,23.5433533 17.075479,24.5126048 L5.47814371,24.6612575 L5.42577844,16.9680539 C9.53748503,16.9331138 12.7420958,18.1637425 14.9422455,20.5945509 Z" id="Shape"></path>
                <path d="M19.8531737,12.4051796 C21.9481437,12.4051796 23.6523952,10.7006587 23.6523952,8.60595808 C23.6523952,6.51125749 21.9486826,4.8061976 19.8531737,4.8061976 C17.7582036,4.8061976 16.0539521,6.51071856 16.0539521,8.60550898 C16.0539521,10.7002096 17.7585629,12.4051796 19.8531737,12.4051796 Z M19.8531737,6.26128743 C21.1458683,6.26128743 22.1973952,7.31281437 22.1973952,8.60550898 C22.1973952,9.89811377 21.1458683,10.9496407 19.8531737,10.9496407 C18.560479,10.9496407 17.5089521,9.89811377 17.5089521,8.60550898 C17.5089521,7.31281437 18.560479,6.26128743 19.8531737,6.26128743 Z" id="Shape"></path>
                <path d="M1.36086826,6.10167665 C1.36086826,7.06203593 1.16452096,7.51275449 0.936467066,8.0351497 C0.680928144,8.62149701 0.390808383,9.2858982 0.390808383,10.5498503 C0.390808383,11.8129042 0.680928144,12.4773952 0.936467066,13.0632934 C1.16452096,13.5847904 1.36086826,14.0352395 1.36086826,14.9946108 C1.36086826,15.954521 1.16452096,16.4054192 0.936467066,16.9264671 C0.680928144,17.5138024 0.390808383,18.1779341 0.390808383,19.4416168 C0.390808383,20.704491 0.680928144,21.368982 0.936467066,21.9548802 C1.16452096,22.4763772 1.36086826,22.9267365 1.36086826,23.8864671 C1.36086826,24.6211078 1.00634731,25.2202994 0.663413174,25.800988 C0.145419162,26.6772754 -0.564790419,27.8784431 0.746317365,29.1876647 C1.2494012,29.6902096 1.77278443,29.934521 2.34592814,29.934521 C3.01041916,29.934521 3.58194611,29.5963473 4.13497006,29.2700299 C4.71494012,28.9271856 5.3152994,28.5727545 6.05110778,28.5727545 C7.01146707,28.5727545 7.46209581,28.7689222 7.98431138,28.9972455 C8.57092814,29.252515 9.23568862,29.5429042 10.4992814,29.5429042 C11.7623353,29.5429042 12.4268263,29.252515 13.0127246,28.9972455 C13.5342216,28.7689222 13.9846707,28.5727545 14.9440419,28.5727545 C15.9041317,28.5727545 16.3546707,28.7689222 16.8760778,28.9972455 C17.4624251,29.252515 18.127006,29.5429042 19.3902395,29.5429042 C20.6534731,29.5429042 21.3180539,29.252515 21.9039521,28.9972455 C22.4254491,28.7699102 22.8758982,28.5727545 23.8350898,28.5727545 C24.5702695,28.5727545 25.1693713,28.9270958 25.7496108,29.2700299 C26.3022754,29.5964371 26.8740719,29.934521 27.5381138,29.934521 C28.1117066,29.934521 28.6346407,29.6901198 29.1371856,29.1871257 C30.5312874,27.7922156 29.9064072,26.7037725 29.3550898,25.7441317 C29.0558084,25.2211976 28.7161976,24.6300898 28.5143713,23.8228743 C28.2884731,22.9172156 28.4964072,22.5202994 28.8118563,21.9206587 C29.1158982,21.3427545 29.4924251,20.6256287 29.4924251,19.4338922 C29.4924251,18.1706587 29.2025749,17.5060778 28.9468563,16.9201796 C28.718982,16.3986826 28.5223653,15.9482335 28.5223653,14.9888623 C28.5223653,14.0289521 28.7188922,13.5782335 28.9468563,13.0568263 C29.2026647,12.4699401 29.4924251,11.8056287 29.4924251,10.5421257 C29.4924251,9.27907186 29.2025749,8.61458084 28.9468563,8.02868263 C28.718982,7.50718563 28.5223653,7.05673653 28.5223653,6.09736527 C28.5223653,5.36245509 28.8771557,4.76308383 29.2200898,4.18284431 C29.7379042,3.30610778 30.4483832,2.10511976 29.1371856,0.795898204 C28.6341916,0.293353293 28.1108084,0.0489520958 27.5376647,0.0489520958 C26.8730838,0.0489520958 26.3013772,0.387215569 25.7486228,0.713532934 C25.1673952,1.05646707 24.5678443,1.41098802 23.8316766,1.41098802 C22.8715868,1.41098802 22.4205988,1.21446108 21.8982036,0.986586826 C21.3118563,0.730958084 20.6477246,0.440928144 19.3835928,0.440928144 C18.1207186,0.440928144 17.4562275,0.730958084 16.8703293,0.986586826 C16.3488323,1.21437126 15.8983832,1.41098802 14.9387425,1.41098802 C13.9788323,1.41098802 13.5282036,1.21446108 13.0068862,0.986586826 C12.4198204,0.730958084 11.7554192,0.440928144 10.492006,0.440928144 C9.2289521,0.440928144 8.56446108,0.730958084 7.97856287,0.986586826 C7.45697605,1.21437126 7.00661677,1.41098802 6.04715569,1.41098802 C5.31224551,1.41098802 4.71287425,1.05646707 4.13263473,0.713532934 C3.57988024,0.387215569 3.00835329,0.0489520958 2.34431138,0.0489520958 C1.77062874,0.0489520958 1.24778443,0.293443114 0.745149701,0.796437126 C-0.564341317,2.10754491 0.145508982,3.30844311 0.663413174,4.18526946 C1.00643713,4.76595808 1.36086826,5.36577844 1.36086826,6.10167665 Z M1.77511976,1.8251497 C2.09577844,1.50449102 2.27667665,1.50449102 2.34494012,1.50449102 C2.6108982,1.50449102 2.99101796,1.72922156 3.39269461,1.96679641 C4.0707485,2.36748503 4.91479042,2.86607784 6.04733533,2.86607784 C7.31038922,2.86607784 7.97488024,2.57595808 8.56077844,2.32041916 C9.08209581,2.09263473 9.53272455,1.89601796 10.4921856,1.89601796 C11.4520958,1.89601796 11.9024551,2.09254491 12.424491,2.32041916 C13.0108383,2.57595808 13.6754192,2.86607784 14.9389222,2.86607784 C16.2026048,2.86607784 16.8662874,2.57595808 17.4526347,2.32041916 C17.9736826,2.09263473 18.4245808,1.89601796 19.3837725,1.89601796 C20.3443114,1.89601796 20.7947605,2.09254491 21.3171557,2.32041916 C21.9035928,2.57595808 22.5686228,2.86607784 23.8318563,2.86607784 C24.9652994,2.86607784 25.8097904,2.36703593 26.4886527,1.96634731 C26.8912275,1.72877246 27.2706287,1.50404192 27.5378443,1.50404192 C27.606018,1.50404192 27.7879042,1.50404192 28.109012,1.8251497 C28.5830838,2.29904192 28.5220958,2.50374251 27.9673653,3.44272455 C27.5662275,4.12077844 27.0673653,4.96482036 27.0673653,6.09745509 C27.0673653,7.36050898 27.3577545,8.02473054 27.613024,8.61062874 C27.8413473,9.13212575 28.037515,9.58284431 28.037515,10.5422156 C28.037515,11.5021257 27.8413473,11.9525749 27.613024,12.474521 C27.3577545,13.0609581 27.0673653,13.7254491 27.0673653,14.9889521 C27.0673653,16.2524551 27.3577545,16.9160479 27.613024,17.502485 C27.8413473,18.0235329 28.037515,18.4743413 28.037515,19.4340719 C28.037515,20.2667964 27.7997605,20.7191317 27.5244611,21.2429641 C27.1583533,21.9407784 26.742485,22.7307485 27.1033832,24.1754192 C27.3538922,25.1786228 27.7645509,25.8934132 28.0937425,26.4679042 C28.6323054,27.4061677 28.7152096,27.5502395 28.1079341,28.1578743 C27.7872754,28.4785329 27.6063772,28.4785329 27.5381138,28.4785329 C27.2718862,28.4785329 26.8920359,28.2535329 26.4903593,28.0162275 C25.8120359,27.6150898 24.9675449,27.1167665 23.8350898,27.1167665 C22.5722156,27.1167665 21.9077246,27.4067066 21.3218263,27.6624251 C20.8003293,27.8897605 20.3499701,28.0868263 19.3902395,28.0868263 C18.4305988,28.0868263 17.9801497,27.8898503 17.4582036,27.6624251 C16.8723054,27.4066168 16.2071856,27.1167665 14.9439521,27.1167665 C13.6808982,27.1167665 13.0165868,27.4067066 12.4299701,27.6624251 C11.9086527,27.8897605 11.458024,28.0868263 10.4986527,28.0868263 C9.53829341,28.0868263 9.08784431,27.8898503 8.56535928,27.6624251 C7.97901198,27.4066168 7.31398204,27.1167665 6.05047904,27.1167665 C4.91703593,27.1167665 4.07245509,27.6155389 3.3939521,28.0162275 C2.99137725,28.2536228 2.61170659,28.4785329 2.34476048,28.4785329 C2.2654491,28.4808683 2.09416168,28.4785329 1.77359281,28.1574251 C1.29916168,27.6832635 1.36023952,27.4785629 1.9151497,26.5398503 C2.31736527,25.862515 2.81586826,25.0184731 2.81586826,23.8863772 C2.81586826,22.6231437 2.5257485,21.9585629 2.27020958,21.3731138 C2.04215569,20.8511677 1.84580838,20.4007186 1.84580838,19.4415269 C1.84580838,18.4814371 2.04215569,18.030988 2.27020958,17.5089521 C2.5257485,16.9226048 2.81586826,16.258024 2.81586826,14.994521 C2.81586826,13.7311078 2.5257485,13.0672455 2.27020958,12.4808084 C2.04215569,11.9597605 1.84580838,11.5090419 1.84580838,10.5496707 C1.84580838,9.58931138 2.04215569,9.13886228 2.27020958,8.61637725 C2.5257485,8.02994012 2.81586826,7.365 2.81586826,6.10140719 C2.81586826,4.96796407 2.31682635,4.12347305 1.91613772,3.44488024 C1.36086826,2.50562874 1.30032934,2.30002994 1.77511976,1.8251497 Z" id="Shape"></path>
            </g>
        </g>
    </g>
</svg>