<?xml version="1.0" encoding="UTF-8"?>
<svg width="21px" height="22px" viewBox="0 0 21 22" version="1.1" xmlns="http://www.w3.org/2000/svg" xmlns:xlink="http://www.w3.org/1999/xlink">
    <!-- Generator: Sketch 49.1 (51147) - http://www.bohemiancoding.com/sketch -->
    <title>Group 4</title>
    <desc>Created with Sketch.</desc>
    <defs></defs>
    <g id="Symbols" stroke="none" stroke-width="1" fill="none" fill-rule="evenodd">
        <g id="Header-Nav1" transform="translate(-1835.000000, -60.000000)" fill="#655F53" fill-rule="nonzero">
            <g id="Group-4" transform="translate(1835.000000, 60.000000)">
                <path d="M18.8028298,2.99687363 C17.3836886,1.55356143 15.4968303,0.75862069 13.489772,0.75862069 C11.4827137,0.75862069 9.59580524,1.55356143 8.17671413,2.99687363 C5.7376278,5.47759038 5.32965979,9.2533677 6.95190783,12.1678275 L0.705521021,18.5210828 C-0.0769815833,19.3171451 -0.0769815833,20.6075155 0.705521021,21.403068 C1.487773,22.1989264 2.75643874,22.1990283 3.53914185,21.403068 L9.78377428,15.0522088 C10.9011625,15.698541 12.1694273,16.0426602 13.489772,16.0426602 C15.49673,16.0426602 17.3836385,15.2477194 18.8028298,13.8044072 C21.7323901,10.8246922 21.7323901,5.97648668 18.8028298,2.99687363 Z M17.6221336,12.6035588 C16.5182791,13.726203 15.0507171,14.3443939 13.489772,14.3443939 C11.9287267,14.3443939 10.4611646,13.726152 9.35741036,12.6035588 C7.07882453,10.286082 7.07882453,6.51519884 9.35741036,4.19772203 C10.4612147,3.07507789 11.9287768,2.45688695 13.489772,2.45688695 C15.0507672,2.45688695 16.5183794,3.07512887 17.6221336,4.19772203 C19.9006693,6.51514786 19.9006693,10.286031 17.6221336,12.6035588 Z" id="Shape"></path>
                <path d="M17.1647515,5.48618496 C16.8480184,5.25181948 16.3342359,5.25167546 16.0173731,5.48608895 C15.7004453,5.72040643 15.7004453,6.10032622 16.0172433,6.33473971 C17.5154295,7.44315116 17.5154295,9.24659404 16.0172433,10.3549575 C15.7004453,10.589323 15.7004453,10.9692908 16.0173731,11.2036082 C16.1758045,11.320743 16.3834334,11.3793103 16.5909974,11.3793103 C16.7986263,11.3793103 17.0062552,11.320695 17.1647515,11.2035122 C19.2953653,9.62728193 19.2953653,7.06251127 17.1647515,5.48618496 Z" id="Shape"></path>
            </g>
        </g>
    </g>
</svg>