<?xml version="1.0" encoding="UTF-8"?>
<svg width="43px" height="61px" viewBox="0 0 73 91" version="1.1" xmlns="http://www.w3.org/2000/svg" xmlns:xlink="http://www.w3.org/1999/xlink">
    <!-- Generator: Sketch 49.1 (51147) - http://www.bohemiancoding.com/sketch -->
    <title>Shape Copy 5</title>
    <desc>Created with Sketch.</desc>
    <defs>
        <path d="M299.413199,607.565151 C295.163246,603.331757 289.512287,601 283.502277,601 C277.491093,601 271.841308,603.331757 267.591355,607.565151 C259.726244,615.398451 258.748825,630.137024 265.474592,639.066658 L283.502277,665 L301.502974,639.102891 C308.255729,630.137024 307.27831,615.398451 299.413199,607.565151 Z M283.709964,631.388809 C279.181922,631.388809 275.496361,627.717607 275.496361,623.207206 C275.496361,618.696806 279.181922,615.025604 283.709964,615.025604 C288.238005,615.025604 291.923566,618.696806 291.923566,623.207206 C291.923566,627.717607 288.238005,631.388809 283.709964,631.388809 Z" id="path-1"></path>
        <filter x="-47.8%" y="-30.5%" width="195.6%" height="167.2%" filterUnits="objectBoundingBox" id="filter-2">
            <feMorphology radius="1" operator="dilate" in="SourceAlpha" result="shadowSpreadOuter1"></feMorphology>
            <feOffset dx="0" dy="2" in="shadowSpreadOuter1" result="shadowOffsetOuter1"></feOffset>
            <feGaussianBlur stdDeviation="6.5" in="shadowOffsetOuter1" result="shadowBlurOuter1"></feGaussianBlur>
            <feComposite in="shadowBlurOuter1" in2="SourceAlpha" operator="out" result="shadowBlurOuter1"></feComposite>
            <feColorMatrix values="0 0 0 0 0   0 0 0 0 0   0 0 0 0 0  0 0 0 0.198879076 0" type="matrix" in="shadowBlurOuter1"></feColorMatrix>
        </filter>
    </defs>
    <g id="//Booking-A-Property" stroke="none" stroke-width="1" fill="none" fill-rule="evenodd">
        <g id="Listings" transform="translate(-247.000000, -589.000000)" fill-rule="nonzero">
            <g id="Shape-Copy-5">
                <use fill="black" fill-opacity="1" filter="url(#filter-2)" xlink:href="#path-1"></use>
                <use stroke="#FFFFFF" stroke-width="2" fill="#66C3BF" fill-rule="evenodd" xlink:href="#path-1"></use>
            </g>
        </g>
    </g>
</svg>