<?xml version="1.0" encoding="UTF-8"?>
<svg width="16px" height="16px" viewBox="0 0 16 16" version="1.1" xmlns="http://www.w3.org/2000/svg" xmlns:xlink="http://www.w3.org/1999/xlink">
    <!-- Generator: Sketch 49.1 (51147) - http://www.bohemiancoding.com/sketch -->
    <title>Group 2</title>
    <desc>Created with Sketch.</desc>
    <defs></defs>
    <g id="//Booking-A-Property" stroke="none" stroke-width="1" fill="none" fill-rule="evenodd">
        <g id="Listing-Profile" transform="translate(-555.000000, -1809.000000)" fill="#937154">
            <g id="Group-2" transform="translate(555.000000, 1809.000000)">
                <g id="Icon/Cancel">
                    <g id="Group">
                        <path d="M14.25,7.78683181 C14.25,4.33767511 11.4518959,1.54139505 8,1.54139505 C4.54810412,1.54139505 1.75,4.33767511 1.75,7.78683181 C1.75,11.2359885 4.54810412,14.0322686 8,14.0322686 C11.4518959,14.0322686 14.25,11.2359885 14.25,7.78683181 Z M15.75,7.78683181 C15.75,12.0646347 12.2801041,15.5322686 8,15.5322686 C3.71989588,15.5322686 0.25,12.0646347 0.25,7.78683181 C0.25,3.50902894 3.71989588,0.0413950456 8,0.0413950456 C12.2801041,0.0413950456 15.75,3.50902894 15.75,7.78683181 Z M6.05574286,6.90415662 L8.88374286,9.73031308 C9.17673156,10.0231108 9.65160527,10.0229559 9.94440297,9.72996725 C10.2372007,9.43697855 10.2370458,8.96210484 9.94405714,8.66930713 L7.11605714,5.84315068 C6.82306844,5.55035297 6.34819473,5.55050781 6.05539703,5.84349651 C5.76259932,6.13648521 5.76275416,6.61135892 6.05574286,6.90415662 Z M8.88394286,5.84315068 L6.05594286,8.66930713 C5.76295416,8.96210484 5.76279932,9.43697855 6.05559703,9.72996725 C6.34839473,10.0229559 6.82326844,10.0231108 7.11625714,9.73031308 L9.94425714,6.90415662 C10.2372458,6.61135892 10.2374007,6.13648521 9.94460297,5.84349651 C9.65180527,5.55050781 9.17693156,5.55035297 8.88394286,5.84315068 Z" id="Combined-Shape" fill-rule="nonzero"></path>
                    </g>
                </g>
            </g>
        </g>
    </g>
</svg>