<?xml version="1.0" encoding="UTF-8"?>
<svg width="117px" height="117px" viewBox="0 0 117 117" version="1.1" xmlns="http://www.w3.org/2000/svg" xmlns:xlink="http://www.w3.org/1999/xlink">
    <!-- Generator: Sketch 49.1 (51147) - http://www.bohemiancoding.com/sketch -->
    <title>Shape</title>
    <desc>Created with Sketch.</desc>
    <defs></defs>
    <g id="//RVDashboards" stroke="none" stroke-width="1" fill="none" fill-rule="evenodd">
        <g id="RV-Dash-Profile" transform="translate(-332.000000, -365.000000)" fill="#FFFFFF" fill-rule="nonzero">
            <path d="M348.461628,464.143895 C359.107267,475.129651 374.00436,482 390.5,482 C422.743023,482 449,455.743023 449,423.5 C449,391.256977 422.743023,365 390.5,365 C358.256977,365 332,391.256977 332,423.5 C332,438.873256 337.986047,452.886047 347.713372,463.327616 C347.917442,463.667733 348.189535,463.905814 348.461628,464.143895 Z M390.534114,476 C377.775458,476 366.040224,471.350427 357,463.65812 C372.214868,458.598291 377.843686,452.444444 379.924644,448.34188 C382.824338,449.606838 386.065173,450.290598 389.647149,450.324786 C389.715377,450.324786 389.817719,450.324786 389.885947,450.324786 C389.920061,450.324786 390.124745,450.324786 390.192974,450.324786 C390.261202,450.324786 390.363544,450.324786 390.431772,450.324786 C394.320774,450.25641 397.834521,449.470085 400.870672,448 C402.815173,452.102564 408.34165,458.461538 424,463.65812 C414.99389,471.350427 403.29277,476 390.534114,476 Z M372.166534,413.07608 C372.166534,413.00891 372.166534,412.941741 372.166534,412.874572 C372.978159,395.376971 385.964168,394 389.95466,394 C390.123748,394 390.259019,394 390.360472,394 C390.461926,394 390.529561,394 390.631014,394 C390.732467,394 390.833921,394 391.036827,394 C394.993501,394 408.013327,395.376971 408.824953,412.874572 C408.824953,412.941741 408.824953,413.00891 408.824953,413.07608 C408.858771,413.244003 410.515839,429.431803 402.90685,437.928718 C399.897072,441.287183 395.872762,442.966415 390.631014,443 C390.597197,443 390.529561,443 390.529561,443 C390.495743,443 390.461926,443 390.428108,443 C385.152542,442.932831 381.16205,441.287183 378.152272,437.928718 C370.509465,429.498972 372.132716,413.244003 372.166534,413.07608 Z M390.5,371 C418.88929,371 442,394.253365 442,422.817894 C442,435.891528 437.127464,447.875693 429.175756,457 C407.317017,450.599367 406.471091,442.836896 406.471091,442.734759 C406.471091,442.870942 406.471091,442.904988 406.471091,442.904988 L406.234231,442.904988 C406.640276,442.496437 407.046321,442.087886 407.452365,441.645289 C416.757556,431.125099 415.201051,413.114806 415.031866,411.344418 C414.118265,392.551069 401.294021,385.878068 390.567674,385.878068 C390.364652,385.878068 390.161629,385.878068 390.026281,385.878068 C389.890933,385.878068 389.721748,385.878068 389.484888,385.878068 C378.758541,385.878068 365.90046,392.551069 365.020696,411.344418 C364.851511,413.08076 363.328844,431.091053 372.600197,441.645289 C373.14159,442.258116 373.71682,442.836896 374.29205,443.381631 C373.581472,445.356295 369.994744,451.620744 351.824244,456.965954 C343.838699,447.841647 339,435.891528 339,422.817894 C339,394.253365 362.11071,371 390.5,371 Z" id="Shape"></path>
        </g>
    </g>
</svg>