<?xml version="1.0" encoding="UTF-8"?>
<svg width="158px" height="158px" viewBox="0 0 158 158" version="1.1" xmlns="http://www.w3.org/2000/svg" xmlns:xlink="http://www.w3.org/1999/xlink">
    <!-- Generator: Sketch 49.1 (51147) - http://www.bohemiancoding.com/sketch -->
    <title>play-button (3)</title>
    <desc>Created with Sketch.</desc>
    <defs></defs>
    <g id="//Our-Story" stroke="none" stroke-width="1" fill="none" fill-rule="evenodd">
        <g id="About" transform="translate(-880.000000, -3056.000000)" fill="#FFFFFF" fill-rule="nonzero">
            <g id="play-button-(3)" transform="translate(880.000000, 3056.000000)">
                <path d="M146.966083,39.3896508 C125.219263,1.72295238 77.0528381,-11.1833905 39.3891492,10.5674413 C1.72245079,32.3112508 -11.1843937,80.4756698 10.5664381,118.140863 C32.3102476,155.807562 80.4751683,168.715911 118.139359,146.967086 C155.806559,125.215752 168.719422,77.0538413 146.966083,39.3896508 Z M110.265943,133.322406 C80.1370984,150.723473 41.6016508,140.397797 24.2056,110.262933 C6.80553651,80.1340889 17.1347238,41.5991429 47.2645714,24.2066032 C77.3954222,6.80653968 115.928863,17.1312127 133.325917,47.265073 C150.723473,77.3984317 140.397295,115.925352 110.265943,133.322406 Z M107.116476,75.5651302 L65.8789778,51.5145206 C62.1210857,49.3205778 59.0899937,51.0746286 59.1110603,55.4213841 L59.3222286,103.159454 C59.3412889,107.505206 62.4094984,109.274305 66.1784254,107.097416 L107.100425,83.4711492 C110.86534,81.298273 110.873365,77.759073 107.116476,75.5651302 Z" id="Shape"></path>
            </g>
        </g>
    </g>
</svg>