<?xml version="1.0" encoding="UTF-8"?>
<svg width="22px" height="23px" viewBox="0 0 22 23" version="1.1" xmlns="http://www.w3.org/2000/svg" xmlns:xlink="http://www.w3.org/1999/xlink">
    <!-- Generator: Sketch 49.1 (51147) - http://www.bohemiancoding.com/sketch -->
    <title>verified</title>
    <desc>Created with Sketch.</desc>
    <defs></defs>
    <g id="//Booking-A-Property" stroke="none" stroke-width="1" fill="none" fill-rule="evenodd">
        <g id="Listing-Profile" transform="translate(-710.000000, -270.000000)">
            <g id="Group-3" transform="translate(709.000000, 269.000000)">
                <g id="verified">
                    <g id="Group-2">
                        <path d="M11.4094828,1 C14.3836207,2.91666667 16.6142241,4.11458333 18.1012931,4.59375 C19.5883621,5.07291667 21.075431,5.55208333 22.5625,6.03125 C22.0668103,11.78125 20.3318966,16.09375 17.3577586,18.96875 C14.3836207,21.84375 12.4008621,23.5208333 11.4094828,24 C8.43534483,22.5625 6.45258621,20.8854167 5.4612069,18.96875 C3.97413793,16.09375 1,12.5 1,9.625 C1,7.70833333 1,6.27083333 1,5.3125 C2.98275862,5.3125 4.96551724,4.83333333 6.94827586,3.875 C8.93103448,2.91666667 10.4181034,1.95833333 11.4094828,1 Z" id="Path-2" fill="#DDAD46"></path>
                        <polygon id="Shape" fill="#FFFFFF" fill-rule="nonzero" points="16.1902823 8 14.8981046 9.27700943 10.0822982 14.036313 7.64160228 11.6242672 7.3097177 11.2962785 6.65487288 11.9434364 6.65487288 11.9434641 6 12.5906498 10.0822982 16.625 17.5 9.29437125"></polygon>
                    </g>
                </g>
            </g>
        </g>
    </g>
</svg>