<?xml version="1.0" encoding="UTF-8"?>
<svg width="24px" height="29px" viewBox="0 0 24 29" version="1.1" xmlns="http://www.w3.org/2000/svg" xmlns:xlink="http://www.w3.org/1999/xlink">
    <!-- Generator: Sketch 49.1 (51147) - http://www.bohemiancoding.com/sketch -->
    <title>x</title>
    <desc>Created with Sketch.</desc>
    <defs></defs>
    <g id="//Signin/Thanks" stroke="none" stroke-width="1" fill="none" fill-rule="evenodd" opacity="0.492828825">
        <g id="Areyousure" transform="translate(-1161.000000, -205.000000)" fill="#937154">
            <path d="M1184.37245,229.078 C1184.76112,229.502002 1184.95546,229.996664 1184.95546,230.562 C1184.95546,231.26867 1184.69046,231.878164 1184.16045,232.3905 C1183.63045,232.902836 1183.04746,233.159 1182.41145,233.159 C1181.59878,233.159 1180.90979,232.788004 1180.34445,232.046 L1173.24246,223.089 L1166.24645,232.046 C1165.99912,232.399335 1165.69879,232.664332 1165.34545,232.841 C1164.99212,233.017668 1164.62112,233.106 1164.23246,233.106 C1163.63179,233.106 1163.07529,232.885169 1162.56296,232.4435 C1162.05062,232.001831 1161.79445,231.48067 1161.79445,230.88 C1161.79445,230.243997 1161.98879,229.714002 1162.37746,229.29 L1170.32746,219.379 L1162.16546,209.097 C1161.81212,208.637664 1161.63546,208.143003 1161.63546,207.613 C1161.63546,206.90633 1161.89162,206.305669 1162.40395,205.811 C1162.91629,205.316331 1163.50812,205.069 1164.17945,205.069 C1165.02746,205.069 1165.71645,205.42233 1166.24645,206.129 L1173.50745,215.298 L1180.34445,206.182 C1180.87446,205.439996 1181.54578,205.069 1182.35846,205.069 C1183.02979,205.069 1183.59512,205.289831 1184.05445,205.7315 C1184.51379,206.173169 1184.74346,206.69433 1184.74346,207.295 C1184.74346,207.966337 1184.54912,208.513998 1184.16045,208.938 L1176.31645,218.849 L1184.37245,229.078 Z" id="x"></path>
        </g>
    </g>
</svg>